<svg width="27" height="40" viewBox="0 0 27 40" fill="none" xmlns="http://www.w3.org/2000/svg">
<g clip-path="url(#clip0_1191_60)">
<path d="M13.5 20C13.5 16.3181 16.5214 13.3333 20.2487 13.3333C23.9758 13.3333 26.9973 16.3181 26.9973 20C26.9973 23.6819 23.9758 26.6666 20.2487 26.6666C16.5214 26.6666 13.5 23.6819 13.5 20Z" fill="#1ABCFE"/>
<path d="M0.00292969 33.3334C0.00292969 29.6515 3.02437 26.6667 6.75158 26.6667H13.5002V33.3334C13.5002 37.0153 10.4788 40 6.75158 40C3.02437 40 0.00292969 37.0153 0.00292969 33.3334Z" fill="#0ACF83"/>
<path d="M13.5 6.10352e-05V13.3333H20.2487C23.9759 13.3333 26.9973 10.3486 26.9973 6.66664C26.9973 2.98471 23.9759 6.10352e-05 20.2487 6.10352e-05H13.5Z" fill="#FF7262"/>
<path d="M0.00244141 6.66667C0.00244141 10.3486 3.02388 13.3333 6.75109 13.3333H13.4997V0H6.75109C3.02388 0 0.00244141 2.98483 0.00244141 6.66667Z" fill="#F24E1E"/>
<path d="M0.00292969 20C0.00292969 23.6819 3.02437 26.6666 6.75158 26.6666H13.5002V13.3333H6.75158C3.02437 13.3333 0.00292969 16.3181 0.00292969 20Z" fill="#A259FF"/>
</g>
<defs>
<clipPath id="clip0_1191_60">
<rect width="27" height="40" fill="white"/>
</clipPath>
</defs>
</svg>
