<svg width="39" height="40" viewBox="0 0 39 40" fill="none" xmlns="http://www.w3.org/2000/svg">
<g clip-path="url(#clip0_1191_96)">
<path d="M39 20.4431C39 18.8034 38.8672 17.6068 38.5799 16.366H19.8979V23.7669H30.8638C30.6428 25.6061 29.449 28.376 26.7959 30.2372L26.7587 30.485L32.6656 35.0713L33.0748 35.1123C36.8332 31.6333 39 26.5146 39 20.4431Z" fill="#4285F4"/>
<path d="M19.8981 39.9429C25.2705 39.9429 29.7806 38.1701 33.075 35.1123L26.796 30.2372C25.1158 31.4117 22.8606 32.2315 19.8981 32.2315C14.6362 32.2315 10.1703 28.7527 8.57831 23.9443L8.34496 23.9641L2.20288 28.7283L2.12256 28.9521C5.39463 35.4667 12.1157 39.9429 19.8981 39.9429Z" fill="#34A853"/>
<path d="M8.57815 23.9443C8.15809 22.7034 7.91498 21.3738 7.91498 20C7.91498 18.6261 8.15809 17.2966 8.55605 16.0558L8.54492 15.7915L2.32587 10.9508L2.1224 11.0478C0.773818 13.7512 0 16.787 0 20C0 23.213 0.773818 26.2487 2.1224 28.9521L8.57815 23.9443Z" fill="#FBBC05"/>
<path d="M19.8981 7.76832C23.6345 7.76832 26.1548 9.38589 27.5919 10.7377L33.2076 5.24227C29.7587 2.02926 25.2705 0.0571289 19.8981 0.0571289C12.1157 0.0571289 5.39463 4.53316 2.12256 11.0478L8.55621 16.0557C10.1703 11.2473 14.6362 7.76832 19.8981 7.76832Z" fill="#EB4335"/>
</g>
<defs>
<clipPath id="clip0_1191_96">
<rect width="39" height="40" fill="white"/>
</clipPath>
</defs>
</svg>
