<svg xmlns="http://www.w3.org/2000/svg" width="40" height="40" viewBox="0 0 40 40" fill="none">
<path d="M20.0002 12.5001C20.0002 15.7217 17.3885 18.3334 14.1668 18.3334C10.9452 18.3334 8.3335 15.7217 8.3335 12.5001C8.3335 9.27841 10.9452 6.66675 14.1668 6.66675C17.3885 6.66675 20.0002 9.27841 20.0002 12.5001Z" stroke="#7556FD" stroke-width="2.5"/>
<path d="M22.5 18.3334C25.7217 18.3334 28.3333 15.7217 28.3333 12.5001C28.3333 9.27841 25.7217 6.66675 22.5 6.66675" stroke="#7556FD" stroke-width="2.5" stroke-linecap="round"/>
<path d="M21.905 33.3333H6.42873C4.71928 33.3333 3.3335 32.0541 3.3335 30.4761C3.3335 26.5313 6.79796 23.3333 11.0716 23.3333H17.262C19.004 23.3333 20.6117 23.8646 21.905 24.7613" stroke="#7556FD" stroke-width="2.5" stroke-linecap="round" stroke-linejoin="round"/>
<path d="M31.6665 23.3333V33.3333M36.6665 28.3333H26.6665" stroke="#7556FD" stroke-width="2.5" stroke-linecap="round"/>
</svg>