<svg preserveAspectRatio="none" width="100%" height="100%" overflow="visible" style="display: block;" viewBox="0 0 86.8043 40.6634" fill="none" xmlns="http://www.w3.org/2000/svg">
<g id="bubble_chat">
<path id="Vector" d="M79.2323 28.3277H7.57204C3.39006 28.3277 0 24.9377 0 20.7557V7.57204C0 3.39006 3.39006 0 7.57204 0H79.2323C83.4143 0 86.8043 3.39006 86.8043 7.57204V20.7557C86.8043 24.9375 83.4141 28.3277 79.2323 28.3277Z" fill="var(--fill-0, #E2F0FB)"/>
<g id="Group">
<path id="Vector_2" d="M41.4155 9.95877H10.3652C9.27074 9.95877 8.38368 9.07153 8.38368 7.97727C8.38368 6.88282 9.27092 5.99577 10.3652 5.99577H41.4155C42.51 5.99577 43.397 6.883 43.397 7.97727C43.3972 9.07153 42.51 9.95877 41.4155 9.95877Z" fill="var(--fill-0, #FF4500)"/>
<path id="Vector_3" d="M77.1862 16.1452H9.61764C8.93597 16.1452 8.38357 15.5926 8.38357 14.9112C8.38357 14.2297 8.93616 13.6771 9.61764 13.6771H77.1862C77.8679 13.6771 78.4203 14.2297 78.4203 14.9112C78.4203 15.5928 77.8677 16.1452 77.1862 16.1452Z" fill="var(--fill-0, #FF4500)"/>
<path id="Vector_4" d="M77.1862 22.3318H9.61764C8.93597 22.3318 8.38357 21.7792 8.38357 21.0978C8.38357 20.4161 8.93616 19.8637 9.61764 19.8637H77.1862C77.8679 19.8637 78.4203 20.4163 78.4203 21.0978C78.4203 21.7792 77.8677 22.3318 77.1862 22.3318Z" fill="var(--fill-0, #FF4500)"/>
</g>
<path id="Vector_5" d="M60.6236 28.3281L59.0813 40.6634L71.3652 28.3281H60.6236Z" fill="var(--fill-0, #E2F0FB)"/>
</g>
</svg>
