<svg preserveAspectRatio="none" width="100%" height="100%" overflow="visible" style="display: block;" viewBox="0 0 27.4522 59.1195" fill="none" xmlns="http://www.w3.org/2000/svg">
<g id="Ellipse 8" opacity="0.2">
<mask id="path-1-inside-1_0_18" fill="white">
<path d="M23.5128 59.1195C13.3962 53.553 5.78091 44.3407 2.21679 33.3577C-1.34734 22.3746 -0.592432 10.4461 4.32786 7.11304e-08L11.7205 3.48207C7.68589 12.0479 7.06687 21.8292 9.98945 30.8353C12.912 39.8415 19.1566 47.3955 27.4522 51.96L23.5128 59.1195Z"/>
</mask>
<path d="M23.5128 59.1195C13.3962 53.553 5.78091 44.3407 2.21679 33.3577C-1.34734 22.3746 -0.592432 10.4461 4.32786 7.11304e-08L11.7205 3.48207C7.68589 12.0479 7.06687 21.8292 9.98945 30.8353C12.912 39.8415 19.1566 47.3955 27.4522 51.96L23.5128 59.1195Z" fill="var(--fill-0, #F8EEE7)" stroke="var(--stroke-0, white)" stroke-width="0.873043" mask="url(#path-1-inside-1_0_18)"/>
</g>
</svg>
