<svg preserveAspectRatio="none" width="100%" height="100%" overflow="visible" style="display: block;" viewBox="0 0 16 16" fill="none" xmlns="http://www.w3.org/2000/svg">
<g id="code-folder">
<path id="Vector" d="M6.00065 4.66667H11.1673C12.5718 4.66667 13.274 4.66667 13.7785 5.00373C13.9969 5.14965 14.1843 5.33715 14.3303 5.55553C14.6673 6.05997 14.6673 6.7622 14.6673 8.16667C14.6673 10.5075 14.6673 11.6778 14.1055 12.5186C13.8624 12.8825 13.5499 13.1951 13.1859 13.4382C12.3451 14 11.1748 14 8.83398 14H8.00065C4.85795 14 3.2866 14 2.3103 13.0237C1.33398 12.0474 1.33398 10.476 1.33398 7.33333V5.29618C1.33398 4.0852 1.33398 3.47971 1.58753 3.02537C1.76826 2.70151 2.0355 2.43428 2.35936 2.25355C2.81369 2 3.41918 2 4.63016 2C5.406 2 5.79392 2 6.13349 2.12734C6.90878 2.41808 7.22852 3.12239 7.57838 3.82209L8.00065 4.66667" stroke="var(--stroke-0, white)" stroke-linecap="round"/>
<path id="Vector_2" d="M10.334 8L10.9473 8.5286C11.2051 8.7508 11.334 8.86193 11.334 9C11.334 9.13807 11.2051 9.2492 10.9473 9.4714L10.334 10" stroke="var(--stroke-0, white)" stroke-linecap="round" stroke-linejoin="round"/>
<path id="Vector_3" d="M5.66602 8L5.05274 8.5286C4.79493 8.7508 4.66602 8.86193 4.66602 9C4.66602 9.13807 4.79492 9.2492 5.05274 9.4714L5.66602 10" stroke="var(--stroke-0, white)" stroke-linecap="round" stroke-linejoin="round"/>
<path id="Vector_4" d="M8.66732 7.3335L7.33398 10.6668" stroke="var(--stroke-0, white)" stroke-linecap="round" stroke-linejoin="round"/>
</g>
</svg>
