<svg preserveAspectRatio="none" width="100%" height="100%" overflow="visible" style="display: block;" viewBox="0 0 20 20" fill="none" xmlns="http://www.w3.org/2000/svg">
<g id="copy">
<path id="Vector" d="M5.83203 9.16669V7.50002C5.83203 4.75016 5.83203 3.37523 6.68631 2.52096C7.54057 1.66669 8.91553 1.66669 11.6654 1.66669C14.4152 1.66669 15.7901 1.66669 16.6444 2.52096C17.4987 3.37523 17.4987 4.75016 17.4987 7.50002V9.16669C17.4987 11.9165 17.4987 13.2914 16.6444 14.1458C15.7901 15 14.4152 15 11.6654 15C8.91553 15 7.54057 15 6.68631 14.1458C5.83203 13.2914 5.83203 11.9165 5.83203 9.16669Z" stroke="var(--stroke-0, #686868)" stroke-width="1.25" stroke-linecap="round" stroke-linejoin="round"/>
<path id="Vector_2" d="M2.5 5V12.5C2.5 15.2498 2.5 16.6247 3.35427 17.4791C4.20854 18.3333 5.58348 18.3333 8.33333 18.3333H14.1667" stroke="var(--stroke-0, #686868)" stroke-width="1.25" stroke-linecap="round" stroke-linejoin="round"/>
</g>
</svg>
