<svg preserveAspectRatio="none" width="100%" height="100%" overflow="visible" style="display: block;" viewBox="0 0 48 48" fill="none" xmlns="http://www.w3.org/2000/svg">
<g id="calendar-03">
<path id="Vector" d="M32 4V12M16 4V12" stroke="var(--stroke-0, #7556FD)" stroke-width="3" stroke-linecap="round" stroke-linejoin="round"/>
<path id="Vector_2" d="M26 8H22C14.4575 8 10.6863 8 8.34314 10.3431C6 12.6863 6 16.4575 6 24V28C6 35.5424 6 39.3138 8.34314 41.6568C10.6863 44 14.4575 44 22 44H26C33.5424 44 37.3138 44 39.6568 41.6568C42 39.3138 42 35.5424 42 28V24C42 16.4575 42 12.6863 39.6568 10.3431C37.3138 8 33.5424 8 26 8Z" stroke="var(--stroke-0, #7556FD)" stroke-width="3" stroke-linecap="round" stroke-linejoin="round"/>
<path id="Vector_3" d="M6 20H42" stroke="var(--stroke-0, #7556FD)" stroke-width="3" stroke-linecap="round" stroke-linejoin="round"/>
<path id="Vector_4" d="M23.991 28H24.009M23.991 36H24.009M31.982 28H32M16 28H16.0179M16 36H16.0179" stroke="var(--stroke-0, #7556FD)" stroke-width="4" stroke-linecap="round" stroke-linejoin="round"/>
</g>
</svg>
