<svg preserveAspectRatio="none" width="100%" height="100%" overflow="visible" style="display: block;" viewBox="0 0 48 48" fill="none" xmlns="http://www.w3.org/2000/svg">
<g id="discount-tag-01">
<path id="Vector" d="M15.457 30.5722H25.457M20.4542 25.5722H20.4728M20.4588 35.5722H20.4776" stroke="var(--stroke-0, #7556FD)" stroke-width="3" stroke-linecap="round" stroke-linejoin="round"/>
<path id="Vector_2" d="M13 7.39364C19.0666 13.5634 29.0714 0.24744 34.9914 5.07996C38.3978 7.86056 37.321 14 32.8988 18" stroke="var(--stroke-0, #7556FD)" stroke-width="3" stroke-linecap="round"/>
<path id="Vector_3" d="M37.328 13.1566C39.2946 13.5133 39.7358 14.6863 40.323 17.941C40.8518 20.8722 41 24.3898 41 25.8872C40.9462 26.439 40.7064 26.954 40.323 27.374C36.2108 31.444 28.0502 39.13 23.9314 42.948C22.315 44.311 19.8764 44.3404 18.1609 43.0894C14.6481 40.1052 11.2731 36.732 7.96686 33.6858C6.6386 32.07 6.66974 29.7732 8.117 28.251C12.4742 23.9818 20.3586 16.6746 24.8094 12.6377C25.2556 12.2766 25.8024 12.0507 26.3884 12C27.387 11.9998 29.1002 12.1265 30.769 12.2179" stroke="var(--stroke-0, #7556FD)" stroke-width="3" stroke-linecap="round"/>
</g>
</svg>
