<svg preserveAspectRatio="none" width="100%" height="100%" overflow="visible" style="display: block;" viewBox="0 0 52 38" fill="none" xmlns="http://www.w3.org/2000/svg">
<g id="discord-6 1">
<path id="Vector" d="M43.262 3.21966C48.8931 11.494 51.674 20.8272 50.6344 31.5719C50.6301 31.6174 50.6064 31.6591 50.569 31.6865C46.3047 34.8159 42.1732 36.715 38.0997 37.9745C38.068 37.9841 38.034 37.9836 38.0026 37.973C37.9712 37.9624 37.9439 37.9422 37.9246 37.9153C36.9835 36.6066 36.1284 35.227 35.3792 33.7781C35.3362 33.6928 35.3755 33.59 35.464 33.5564C36.822 33.045 38.1134 32.4321 39.3555 31.7064C39.4534 31.6491 39.4596 31.509 39.3692 31.4417C39.1056 31.2461 38.8445 31.0406 38.5945 30.835C38.5478 30.797 38.4849 30.7896 38.4319 30.8151C30.3677 34.5368 21.5338 34.5368 13.3742 30.8151C13.3213 30.7914 13.2583 30.7995 13.2128 30.8369C12.9635 31.0425 12.7018 31.2461 12.4406 31.4417C12.3502 31.509 12.3577 31.6491 12.4562 31.7064C13.6983 32.4184 14.9897 33.045 16.3459 33.5589C16.4338 33.5925 16.4755 33.6928 16.4319 33.7781C15.6989 35.2288 14.8439 36.6085 13.8853 37.9172C13.8435 37.9701 13.775 37.9944 13.7102 37.9745C9.65594 36.715 5.52444 34.8159 1.26019 31.6865C1.22466 31.6591 1.19911 31.6155 1.19537 31.57C0.326561 22.276 2.09721 12.8656 8.5609 3.21779C8.57648 3.19225 8.60016 3.17232 8.62759 3.16049C11.808 1.7017 15.2153 0.628479 18.7765 0.0155652C18.8414 0.00559914 18.9062 0.0354974 18.9398 0.0928023C19.3798 0.871402 19.8828 1.86988 20.2231 2.68585C23.9769 2.1128 27.7893 2.1128 31.6217 2.68585C31.962 1.88732 32.4475 0.871402 32.8856 0.0928023C32.9012 0.0643739 32.9254 0.0415987 32.9547 0.027728C32.984 0.0138574 33.017 0.00960055 33.0489 0.0155652C36.612 0.630348 40.0193 1.70357 43.1972 3.16049C43.2253 3.17232 43.2483 3.19225 43.262 3.21966ZM22.1315 20.8908C22.1707 18.1432 20.1664 15.8697 17.6503 15.8697C15.1549 15.8697 13.1698 18.1233 13.1698 20.8908C13.1698 23.6576 15.1941 25.9112 17.6503 25.9112C20.1464 25.9112 22.1315 23.6576 22.1315 20.8908ZM38.6986 20.8908C38.7379 18.1432 36.7335 15.8697 34.2181 15.8697C31.722 15.8697 29.737 18.1233 29.737 20.8908C29.737 23.6576 31.7613 25.9112 34.2181 25.9112C36.7335 25.9112 38.6986 23.6576 38.6986 20.8908Z" fill="var(--fill-0, #5865F2)"/>
</g>
</svg>
