<svg width="40" height="40" viewBox="0 0 40 40" fill="none" xmlns="http://www.w3.org/2000/svg">
<path d="M16.25 5H9.58333C8.42037 5 7.83888 5 7.36572 5.14353C6.30038 5.4667 5.4667 6.30038 5.14353 7.36572C5 7.83888 5 8.42037 5 9.58333C5 10.7463 5 11.3278 5.14353 11.801C5.4667 12.8663 6.30038 13.7 7.36572 14.0231C7.83888 14.1667 8.42037 14.1667 9.58333 14.1667H16.25C17.413 14.1667 17.9945 14.1667 18.4677 14.0231C19.533 13.7 20.3667 12.8663 20.6898 11.801C20.8333 11.3278 20.8333 10.7463 20.8333 9.58333C20.8333 8.42037 20.8333 7.83888 20.6898 7.36572C20.3667 6.30038 19.533 5.4667 18.4677 5.14353C17.9945 5 17.413 5 16.25 5Z" stroke="#7556FD" stroke-width="2.5" stroke-linejoin="round"/>
<path d="M35.0002 16.25V9.58333C35.0002 8.42037 35.0002 7.83888 34.8567 7.36572C34.5335 6.30038 33.6998 5.4667 32.6345 5.14353C32.1613 5 31.5798 5 30.4168 5C29.2538 5 28.6723 5 28.1992 5.14353C27.1338 5.4667 26.3002 6.30038 25.977 7.36572C25.8335 7.83888 25.8335 8.42037 25.8335 9.58333V16.25C25.8335 17.413 25.8335 17.9945 25.977 18.4677C26.3002 19.533 27.1338 20.3667 28.1992 20.6898C28.6723 20.8333 29.2538 20.8333 30.4168 20.8333C31.5798 20.8333 32.1613 20.8333 32.6345 20.6898C33.6998 20.3667 34.5335 19.533 34.8567 18.4677C35.0002 17.9945 35.0002 17.413 35.0002 16.25Z" stroke="#7556FD" stroke-width="2.5" stroke-linejoin="round"/>
<path d="M28.1992 34.8564C28.6723 34.9999 29.2538 34.9999 30.4168 34.9999C31.5798 34.9999 32.1613 34.9999 32.6345 34.8564C33.6998 34.5333 34.5335 33.6996 34.8567 32.6343C35.0002 32.1611 35.0002 31.5796 35.0002 30.4166C35.0002 29.2536 35.0002 28.6721 34.8567 28.1989C34.5335 27.1336 33.6998 26.2999 32.6345 25.9768C32.1613 25.8333 31.5798 25.8333 30.4168 25.8333C29.2538 25.8333 28.6723 25.8333 28.1992 25.9768C27.1338 26.2999 26.3002 27.1336 25.977 28.1989C25.8335 28.6721 25.8335 29.2536 25.8335 30.4166C25.8335 31.5796 25.8335 32.1611 25.977 32.6343C26.3002 33.6996 27.1338 34.5333 28.1992 34.8564Z" stroke="#7556FD" stroke-width="2.5" stroke-linejoin="round"/>
<path d="M14.1667 19.1667H11.6667C8.52397 19.1667 6.95262 19.1667 5.97632 20.1431C5 21.1194 5 22.6907 5 25.8334V28.3334C5 31.4761 5 33.0474 5.97632 34.0237C6.95262 35.0001 8.52397 35.0001 11.6667 35.0001H14.1667C17.3093 35.0001 18.8807 35.0001 19.857 34.0237C20.8333 33.0474 20.8333 31.4761 20.8333 28.3334V25.8334C20.8333 22.6907 20.8333 21.1194 19.857 20.1431C18.8807 19.1667 17.3093 19.1667 14.1667 19.1667Z" stroke="#7556FD" stroke-width="2.5" stroke-linejoin="round"/>
</svg>
