<svg preserveAspectRatio="none" width="100%" height="100%" overflow="visible" style="display: block;" viewBox="0 0 39.1638 38.2032" fill="none" xmlns="http://www.w3.org/2000/svg">
<g id="emoji_00000090273456294284901140000005836258626247210406_">
<path id="Vector" d="M39.1638 38.2032L34.3852 29.3424C36.4221 26.3366 37.6121 22.7103 37.6121 18.806C37.6121 8.41984 29.1924 0 18.806 0C8.41964 0 0 8.41966 0 18.806C0 29.1924 8.41964 37.6121 18.806 37.6121C22.7884 37.6121 26.481 36.3732 29.5213 34.2611L39.1638 38.2032Z" fill="var(--fill-0, #FF4500)"/>
<g id="Group">
<path id="Vector_2" d="M28.8262 19.0267C30.0715 20.5439 30.1031 21.8904 28.3549 22.9863C29.6512 24.377 28.5196 26.6842 27.2235 27.0874C22.1852 28.1903 18.0639 28.0586 14.567 27.0874C12.2074 24.907 12.4992 17.732 15.8162 15.6329C18.6706 15.0137 20.0467 14.3366 20.1529 7.81988C22.2805 7.58995 24.7229 7.24977 23.8296 14.2188H27.2752C29.1103 14.2188 30.5211 15.9606 30.0119 17.7236C29.8329 18.3437 29.4536 18.7919 28.8262 19.0267Z" fill="var(--fill-0, white)"/>
<path id="Vector_3" d="M14.5679 15.633C11.2511 17.7321 10.9593 24.9068 13.3187 27.0872H9.56754C6.26141 24.2137 7.19258 17.7969 10.3807 15.633H14.5679Z" fill="var(--fill-0, white)"/>
</g>
</g>
</svg>
