<svg preserveAspectRatio="none" width="100%" height="100%" overflow="visible" style="display: block;" viewBox="0 0 39.1638 38.2031" fill="none" xmlns="http://www.w3.org/2000/svg">
<g id="emoji">
<path id="Vector" d="M0 38.2031L4.77857 29.3424C2.74167 26.3366 1.55175 22.7103 1.55175 18.806C1.55175 8.41984 9.97139 0 20.3578 0C30.7441 0 39.1638 8.41966 39.1638 18.806C39.1638 29.1924 30.7441 37.6121 20.3578 37.6121C16.3754 37.6121 12.6828 36.3732 9.64248 34.2611L0 38.2031Z" fill="var(--fill-0, #7556FD)"/>
<path id="Vector_2" d="M20.3571 28.604C15.1754 25.7665 10.6209 22.5499 10.321 16.761C10.321 13.848 12.6824 11.4866 15.5954 11.4866C17.6953 11.4866 19.5083 12.7138 20.3571 14.4901C21.2057 12.7138 23.0189 11.4866 25.1188 11.4866C28.0318 11.4866 30.3932 13.848 30.3932 16.761C30.0933 22.5499 25.5389 25.7665 20.3571 28.604Z" fill="var(--fill-0, white)"/>
</g>
</svg>
