<svg preserveAspectRatio="none" width="100%" height="100%" overflow="visible" style="display: block;" viewBox="0 0 26 26" fill="none" xmlns="http://www.w3.org/2000/svg">
<g id="famicons:logo-behance">
<path id="Vector" d="M17.473 11.8623C16.0055 11.8623 15.8023 13.3248 15.8023 13.3248H18.9203C18.9203 13.3248 18.9406 11.8623 17.473 11.8623ZM10.3992 13.3248H7.63672V15.8639H10.2621C10.6582 15.8537 11.3996 15.742 11.3996 14.6299C11.3996 13.3096 10.3992 13.3248 10.3992 13.3248Z" fill="var(--fill-0, white)"/>
<path id="Vector_2" d="M13 1.625C6.71836 1.625 1.625 6.71836 1.625 13C1.625 19.2816 6.71836 24.375 13 24.375C19.2816 24.375 24.375 19.2816 24.375 13C24.375 6.71836 19.2816 1.625 13 1.625ZM15.3969 8.6125H19.3121V9.78047H15.3969V8.6125ZM13.4164 14.7469C13.4164 17.6414 10.4 17.55 10.4 17.55H5.46406V8.05391H10.4C11.9031 8.05391 13.0863 8.88164 13.0863 10.5828C13.0863 12.284 11.6391 12.3906 11.6391 12.3906C13.5484 12.3906 13.4164 14.7469 13.4164 14.7469ZM20.7391 14.5895H15.8184C15.8184 16.3516 17.4891 16.2398 17.4891 16.2398C19.0684 16.2398 19.0125 15.2191 19.0125 15.2191H20.6832C20.6832 17.9309 17.4332 17.743 17.4332 17.743C13.5383 17.743 13.7871 14.1121 13.7871 14.1121C13.7871 14.1121 13.782 10.466 17.4332 10.466C21.2773 10.4711 20.7391 14.5895 20.7391 14.5895Z" fill="var(--fill-0, white)"/>
<path id="Vector_3" d="M11.0695 10.7303C11.0695 9.74512 10.3992 9.74512 10.3992 9.74512H7.63672V11.8627H10.2266C10.6734 11.8627 11.0695 11.7154 11.0695 10.7303Z" fill="var(--fill-0, white)"/>
</g>
</svg>
