<svg preserveAspectRatio="none" width="100%" height="100%" overflow="visible" style="display: block;" viewBox="0 0 36 36" fill="none" xmlns="http://www.w3.org/2000/svg">
<g id="fluent:flash-flow-20-filled">
<path id="Vector" d="M12.983 3.6001C12.1298 3.6001 11.3792 4.1653 11.1452 4.9861L7.09516 19.1593C7.0138 19.4438 6.9996 19.7433 7.05368 20.0342C7.10775 20.3252 7.22863 20.5996 7.40679 20.8358C7.58494 21.0721 7.81552 21.2638 8.08035 21.3958C8.34519 21.5278 8.63705 21.5965 8.93296 21.5965H11.2154L9.10936 30.0205C8.63416 31.9195 10.9814 33.2191 12.3404 31.8115L21.0074 22.9627L20.5556 21.6001H20.2262C19.4369 22.4821 18.3798 23.0803 17.2174 23.3029C16.0549 23.5254 14.8516 23.3599 13.7924 22.8317C12.7332 22.3036 11.8769 21.4421 11.3551 20.3798C10.8334 19.3174 10.6751 18.1131 10.9046 16.952C11.1341 15.791 11.7387 14.7374 12.6254 13.9535C13.5121 13.1696 14.6318 12.6987 15.8122 12.6133C16.9927 12.5278 18.1685 12.8326 19.1589 13.4806C20.1492 14.1287 20.8992 15.0842 21.2936 16.2001C22.1098 16.2165 22.9062 16.4547 23.5974 16.8891C24.2887 17.3235 24.8487 17.9378 25.2176 18.6661L27.9608 15.8671L27.9662 15.8599C29.12 14.6593 28.2902 12.6001 26.5874 12.6001H21.9722L24.242 6.1309L24.2474 6.1165C24.3433 5.82891 24.3694 5.52264 24.3236 5.22296C24.2778 4.92327 24.1614 4.63878 23.984 4.39296C23.8066 4.14714 23.5732 3.94704 23.3032 3.80918C23.0332 3.67132 22.7343 3.59966 22.4312 3.6001H12.983ZM32.2664 28.3915C32.8622 28.0807 33.3591 27.6093 33.701 27.0307C33.9393 26.6224 34.095 26.1711 34.159 25.7026C34.2229 25.2341 34.194 24.7576 34.0738 24.3003C33.9536 23.843 33.7446 23.4138 33.4585 23.0373C33.1725 22.6608 32.8151 22.3443 32.4068 22.1059C31.9984 21.8675 31.5471 21.7119 31.0786 21.6479C30.6101 21.5839 30.1336 21.6129 29.6763 21.733C28.7527 21.9757 27.9634 22.5754 27.482 23.4001H25.5956C25.4064 23.4003 25.222 23.341 25.0686 23.2305C24.9151 23.12 24.8003 22.9639 24.7406 22.7845L23.7614 19.8469C23.5825 19.3098 23.2393 18.8425 22.7803 18.5111C22.3213 18.1797 21.7697 18.0009 21.2036 18.0001H19.7996C19.7996 17.1267 19.4821 16.2831 18.9063 15.6264C18.3305 14.9697 17.5355 14.5448 16.6696 14.4308C15.8037 14.3167 14.9259 14.5214 14.1996 15.0066C13.4734 15.4918 12.9484 16.2244 12.7223 17.068C12.4962 17.9116 12.5845 18.8087 12.9707 19.592C13.357 20.3754 14.0148 20.9916 14.8217 21.3258C15.6286 21.6601 16.5295 21.6896 17.3566 21.4089C18.1836 21.1282 18.8804 20.5565 19.3172 19.8001H21.2018C21.3909 19.7999 21.5753 19.8592 21.7288 19.9697C21.8822 20.0802 21.997 20.2363 22.0568 20.4157L23.036 23.3533L23.0504 23.4001C23.0948 23.5201 23.1458 23.6365 23.2034 23.7493C23.4317 24.1868 23.7756 24.5534 24.1977 24.8092C24.6197 25.065 25.1038 25.2002 25.5974 25.2001H26.9996C26.9995 25.8192 27.159 26.4278 27.4629 26.9673C27.7667 27.5067 28.2045 27.9586 28.7339 28.2795C29.2634 28.6003 29.8667 28.7792 30.4855 28.7988C31.1042 28.8184 31.7176 28.6781 32.2664 28.3915ZM31.4744 26.7733C31.2028 26.9244 30.8966 27.0026 30.5858 27.0003C30.275 26.998 29.9701 26.9152 29.7008 26.7601C29.4315 26.6049 29.2069 26.3827 29.049 26.115C28.891 25.8473 28.8051 25.5433 28.7996 25.2325V25.2001C28.798 24.9637 28.8431 24.7294 28.9321 24.5104C29.0211 24.2914 29.1524 24.0921 29.3185 23.9239C29.4846 23.7556 29.6821 23.6218 29.8999 23.5299C30.1177 23.438 30.3515 23.3899 30.5879 23.3884C30.8242 23.3869 31.0586 23.4319 31.2776 23.5209C31.4966 23.61 31.6958 23.7413 31.8641 23.9073C32.2038 24.2427 32.3965 24.6993 32.3996 25.1767V25.2001C32.3996 25.521 32.3138 25.8361 32.1511 26.1127C31.9885 26.3893 31.7548 26.6173 31.4744 26.7733ZM17.9996 18.0001C17.9996 18.4775 17.8099 18.9353 17.4724 19.2729C17.1348 19.6105 16.677 19.8001 16.1996 19.8001C15.7222 19.8001 15.2643 19.6105 14.9268 19.2729C14.5892 18.9353 14.3996 18.4775 14.3996 18.0001C14.3996 17.5227 14.5892 17.0649 14.9268 16.7273C15.2643 16.3897 15.7222 16.2001 16.1996 16.2001C16.677 16.2001 17.1348 16.3897 17.4724 16.7273C17.8099 17.0649 17.9996 17.5227 17.9996 18.0001Z" fill="var(--fill-0, #7556FD)"/>
</g>
</svg>
