<svg preserveAspectRatio="none" width="100%" height="100%" overflow="visible" style="display: block;" viewBox="0 0 48 48" fill="none" xmlns="http://www.w3.org/2000/svg">
<g id="flowchart-01">
<path id="Vector" d="M28.0556 26.7498C29.3518 25.4536 30 24.8054 30 24C30 23.1946 29.3518 22.5464 28.0556 21.2502L26.7498 19.9444C25.4536 18.6481 24.8054 18 24 18C23.1946 18 22.5464 18.6481 21.2502 19.9444L19.9444 21.2502C18.6481 22.5464 18 23.1946 18 24C18 24.8054 18.6481 25.4536 19.9444 26.7498L21.2502 28.0556C22.5464 29.3518 23.1946 30 24 30C24.8054 30 25.4536 29.3518 26.7498 28.0556L28.0556 26.7498Z" stroke="var(--stroke-0, #7556FD)" stroke-width="3"/>
<path id="Vector_2" d="M16 8C16 4.69066 16.6907 4 20 4H28C31.3094 4 32 4.69066 32 8C32 11.3093 31.3094 12 28 12H20C16.6907 12 16 11.3093 16 8Z" stroke="var(--stroke-0, #7556FD)" stroke-width="3"/>
<path id="Vector_3" d="M16 40C16 36.6906 16.6907 36 20 36H28C31.3094 36 32 36.6906 32 40C32 43.3094 31.3094 44 28 44H20C16.6907 44 16 43.3094 16 40Z" stroke="var(--stroke-0, #7556FD)" stroke-width="3"/>
<path id="Vector_4" d="M17 24H16C12.2288 24 10.3431 24 9.17158 22.8284C8 21.6568 8 19.7712 8 16C8 12.2288 8 10.3431 9.17158 9.17158C10.3431 8 12.2288 8 16 8" stroke="var(--stroke-0, #7556FD)" stroke-width="3" stroke-linecap="round" stroke-linejoin="round"/>
<path id="Vector_5" d="M31 24H32C35.7712 24 37.6568 24 38.8284 25.1716C40 26.3432 40 28.2288 40 32C40 35.7712 40 37.6568 38.8284 38.8284C37.6568 40 35.7712 40 32 40" stroke="var(--stroke-0, #7556FD)" stroke-width="3" stroke-linecap="round" stroke-linejoin="round"/>
<path id="Vector_6" d="M24 17V12M24 31V36" stroke="var(--stroke-0, #7556FD)" stroke-width="3" stroke-linecap="round" stroke-linejoin="round"/>
</g>
</svg>
