<svg preserveAspectRatio="none" width="100%" height="100%" overflow="visible" style="display: block;" viewBox="0 0 21.6626 23.6318" fill="none" xmlns="http://www.w3.org/2000/svg">
<g id="Group">
<g id="Vector">
</g>
<path id="Vector_2" d="M12.7526 13.4756C13.5826 15.935 14.1406 18.478 14.4166 21.0589C13.2642 21.4621 12.0518 21.6676 10.8308 21.6667C8.68278 21.6702 6.58266 21.0319 4.7999 19.8337C5.6307 18.2943 6.7629 16.9379 8.12902 15.8454C9.49514 14.7529 11.0672 13.9466 12.7516 13.4745L12.7526 13.4756ZM21.2016 13.9772C20.4284 16.5191 18.7497 18.6892 16.4836 20.0763C16.1794 17.6959 15.6498 15.3497 14.902 13.0693C17.0446 12.848 19.2086 13.1599 21.2016 13.9772ZM10.9879 9.19209C11.3483 9.92731 11.6841 10.6759 11.9954 11.4378C8.24319 12.5371 5.05891 15.04 3.10448 18.4264C2.0061 17.3008 1.16382 15.9513 0.63524 14.47C0.106662 12.9888 -0.0957341 11.4109 0.0418963 9.84425C3.66348 10.6113 7.4844 10.3881 10.9879 9.19209ZM19.1941 3.94767C20.999 6.15191 21.8699 8.97472 21.6208 11.8127C19.2376 10.9159 16.6681 10.6292 14.1458 10.9785C13.7974 10.0986 13.4162 9.23205 13.0029 8.38067C15.3244 7.30092 17.4241 5.79753 19.1941 3.94767ZM5.70231 1.28917C7.32182 3.12499 8.74847 5.12231 9.95981 7.24967C6.8851 8.2289 3.60819 8.38946 0.45248 7.7155C1.28335 4.96323 3.17112 2.65241 5.70231 1.28917ZM10.8308 3.10071e-06C13.4178 3.10071e-06 15.7936 0.906753 17.6558 2.42017C16.044 4.11227 14.1248 5.48214 12.0008 6.45667C10.8053 4.31551 9.40482 2.29538 7.81915 0.42467C8.79807 0.142196 9.81195 -0.000767759 10.8308 3.10071e-06Z" fill="var(--fill-0, white)"/>
</g>
</svg>
