<svg preserveAspectRatio="none" width="100%" height="100%" overflow="visible" style="display: block;" viewBox="0 0 39.6428 39.6427" fill="none" xmlns="http://www.w3.org/2000/svg">
<g id="Group">
<path id="Vector" fill-rule="evenodd" clip-rule="evenodd" d="M31.8558 10.6186C33.4196 10.6186 34.6875 9.35076 34.6875 7.78696C34.6875 6.22315 33.4196 4.95534 31.8558 4.95534C30.292 4.95534 29.0242 6.22315 29.0242 7.78696C29.0242 9.35076 30.292 10.6186 31.8558 10.6186ZM11.7959 9.75422L20.4825 1.06753C21.1452 0.404882 22.0654 2.23638e-05 23.0777 2.23638e-05H35.9616C36.4455 -0.00166699 36.925 0.0923932 37.3723 0.276786C37.8197 0.461178 38.2262 0.732258 38.5684 1.07441C38.9105 1.41657 39.1816 1.82304 39.366 2.27041C39.5504 2.71778 39.6445 3.19722 39.6428 3.6811V16.565C39.6428 17.5773 39.2379 18.4976 38.5569 19.1602L29.8834 27.8419L11.7959 9.75422Z" fill="var(--fill-0, #4285F4)"/>
<path id="Vector_2" fill-rule="evenodd" clip-rule="evenodd" d="M29.8834 27.8419L19.1786 38.5568C18.4975 39.2194 17.5773 39.6427 16.5651 39.6427C15.5528 39.6427 14.6324 39.2194 13.9698 38.5568L1.08587 25.673C0.404859 25.0103 0 24.0901 0 23.0778C0 22.0471 0.423301 21.1268 1.08587 20.4642L11.7959 9.75422L29.8834 27.8419Z" fill="var(--fill-0, #34A853)"/>
<path id="Vector_3" fill-rule="evenodd" clip-rule="evenodd" d="M7.33814 31.9252L1.08587 25.6729C0.404859 25.0105 0 24.0901 0 23.0778C0 22.0471 0.423301 21.1269 1.08587 20.4643L11.7959 9.7543L20.6524 18.611L7.33814 31.9252Z" fill="var(--fill-0, #FBBC05)"/>
<path id="Vector_4" fill-rule="evenodd" clip-rule="evenodd" d="M38.3717 0.891642C37.7021 0.313594 36.8462 -0.00305309 35.9616 2.23635e-05H23.0777C22.0654 2.23635e-05 21.1452 0.404882 20.4825 1.06753L11.7959 9.75422L20.6524 18.6109L29.6728 9.5905C29.2527 9.08347 29.0232 8.44542 29.0243 7.78696C29.0243 6.22315 30.292 4.95534 31.8558 4.95534C32.5143 4.95432 33.1524 5.18376 33.6594 5.60389L38.3717 0.891642Z" fill="var(--fill-0, #EA4335)"/>
<path id="Vector_5" d="M20.6473 25.3666C23.8239 25.3666 26.399 22.7915 26.399 19.6149C26.399 16.4383 23.8239 13.8632 20.6473 13.8632C17.4707 13.8632 14.8956 16.4383 14.8956 19.6149C14.8956 22.7915 17.4707 25.3666 20.6473 25.3666Z" fill="var(--fill-0, #4285F4)"/>
<path id="Vector_6" fill-rule="evenodd" clip-rule="evenodd" d="M28.4833 17.9228H20.8336V21.2049H25.2369C24.8264 23.29 23.1099 24.487 20.8336 24.487C18.1468 24.487 15.9825 22.2475 15.9825 19.4673C15.9825 16.6872 18.1468 14.4476 20.8336 14.4476C21.9904 14.4476 23.0352 14.8724 23.8562 15.5674L26.2444 13.0961C24.7891 11.7833 22.9233 10.9724 20.8336 10.9724C16.281 10.9724 12.624 14.7565 12.624 19.4673C12.624 24.1781 16.281 27.9622 20.8336 27.9622C24.9383 27.9622 28.6699 24.8731 28.6699 19.4673C28.6699 18.9654 28.5953 18.4248 28.4833 17.9228Z" fill="var(--fill-0, white)"/>
</g>
</svg>
