<svg preserveAspectRatio="none" width="100%" height="100%" overflow="visible" style="display: block;" viewBox="0 0 42.1463 53.9063" fill="none" xmlns="http://www.w3.org/2000/svg">
<g id="Group 8">
<path id="Subtract" d="M32.3525 0.290999C35.5984 -0.189548 39.2972 1.54772 41.0039 4.33494C42.3358 6.51008 42.5801 8.76532 41.3262 10.9961C40.2136 12.9744 39.0277 14.9408 37.6328 16.7236C35.1941 19.8403 32.4598 22.7271 30.0459 25.8603C24.3435 33.2646 20.8691 41.6768 18.9658 50.8047C18.7499 51.8408 18.5197 52.8744 18.2822 53.9062C15.9772 42.6845 9.24954 33.077 0 26.9844C3.51411 25.5562 6.66537 23.422 9.2793 20.7588C9.25811 20.8867 9.23588 21.0205 9.21289 21.1611C9.71119 20.6628 9.91511 20.4761 10.0996 20.2705C12.0681 18.0877 13.9949 15.8641 16.0078 13.7226C19.2131 10.3109 22.492 6.96791 25.707 3.56444C27.5276 1.63729 29.7816 0.672242 32.3525 0.290999Z" fill="var(--fill-0, #FFC296)"/>
<path id="Vector" fill-rule="evenodd" clip-rule="evenodd" d="M28.864 12.433C29.9512 13.2641 30.9843 14.1818 32.1406 14.9019C33.4051 15.6896 34.7874 15.5152 35.737 14.4244C36.8736 13.1189 37.9828 11.753 38.8676 10.2722C40.1736 8.0861 39.7822 5.78855 38.0791 4.20916C35.8135 2.1072 33.7309 1.75964 31.4184 3.28625C30.0246 4.20611 28.7005 5.26438 27.479 6.40394C25.9302 7.84956 25.9396 8.81678 27.2777 10.4298C27.8131 11.075 28.388 11.6884 28.9447 12.3161C28.918 12.3552 28.8906 12.394 28.864 12.433Z" fill="var(--fill-0, #FFE3D0)"/>
</g>
</svg>
