<svg preserveAspectRatio="none" width="100%" height="100%" overflow="visible" style="display: block;" viewBox="0 0 390.004 93.1613" fill="none" xmlns="http://www.w3.org/2000/svg">
<g id="Group">
<path id="Vector" fill-rule="evenodd" clip-rule="evenodd" d="M365.277 49.0467C367.889 49.2459 370.344 49.3356 372.766 49.662C373.922 49.8173 375.061 50.3314 376.13 50.8467C377.919 51.7105 378.788 53.2024 378.699 55.2179C378.682 55.6306 378.697 56.0447 378.697 56.6691C379.383 56.6983 380.013 56.7087 380.64 56.7555C382.486 56.8939 384.383 56.8289 386.168 57.2423C389.32 57.9733 390.783 61.1423 389.59 64.1763C388.841 66.0809 387.435 67.3172 385.556 68.0357C384.945 68.2698 384.3 68.4125 383.543 68.6349C383.744 69.0388 383.915 69.395 384.096 69.7463C385.654 72.7693 384.852 76.2156 381.856 77.8569C379.887 78.9354 377.684 79.7887 375.484 80.2081C367.252 81.7781 358.945 82.2635 350.572 81.4127C345.976 80.9458 341.36 80.6851 336.755 80.2989C333.047 79.9882 329.342 79.6356 325.638 79.289C321.476 78.899 317.508 77.7284 313.672 76.1309C308.356 73.9167 303.073 71.6252 297.787 69.3414C291.676 66.7012 285.523 64.191 279.196 62.0911C271.184 59.4325 263.025 57.5092 254.602 56.9344C249.75 56.6037 244.88 56.8289 240.034 57.3414C238.482 57.5059 236.929 57.6619 235.374 57.7893C233.843 57.9145 233.596 57.6582 233.428 56.0658C233.394 55.7475 233.218 55.4031 233.009 55.1533C231.342 53.1622 230.488 50.8074 229.938 48.3248C228.393 41.3587 228.142 34.2777 228.31 27.1882C228.398 23.4182 228.836 19.6517 229.223 15.8949C229.35 14.6639 229.813 13.4673 230.176 12.0457C229.247 12.0457 228.405 12.1512 227.609 12.0037C227.162 11.9218 226.601 11.4944 226.447 11.0873C226.312 10.7325 226.674 10.1884 226.881 9.51956C228.568 11.181 230.344 10.5257 232.014 10.3746C234.102 10.1846 236.166 9.67594 238.254 9.55292C241.781 9.34447 245.066 8.16703 248.407 7.23726C252.449 6.11234 256.433 4.78029 260.461 3.60213C265.571 2.10785 270.785 1.41476 276.118 1.79041C278.266 1.94152 280.231 2.68493 282.048 3.75953C286.229 6.23581 290.439 8.67653 294.501 11.3382C302.302 16.4468 310.706 19.9384 319.974 21.1419C323.897 21.6505 327.872 21.7583 331.8 22.2377C334.047 22.512 336.276 23.0641 338.462 23.6762C340.926 24.367 342.348 26.1348 342.944 28.6149C343.708 31.7926 342.321 35.6362 339.686 37.5916C337.599 39.14 335.322 40.0513 332.672 39.9758C327.992 39.8426 323.31 39.7969 318.631 39.6509C315.693 39.5601 312.759 39.3503 309.823 39.1988C309.547 39.1839 309.271 39.1964 308.566 39.1964C309.467 39.8445 310.038 40.2418 310.593 40.6577C311.206 41.1171 311.867 41.4788 312.144 42.3278C312.282 42.7554 312.85 43.1079 313.3 43.3578C315.789 44.7407 318.505 45.5033 321.258 46.1339C327.054 47.4619 332.864 48.6567 338.853 48.7508C344.708 48.8423 350.478 48.2998 356.168 46.912C357.509 46.5849 358.843 46.2291 360.188 45.9212C363.14 45.2458 364.645 46.1917 365.277 49.0467ZM315.463 46.0949C315.347 46.199 315.231 46.303 315.114 46.4067C315.327 46.5948 315.538 46.7856 315.761 46.9595C315.77 46.9667 315.985 46.755 315.973 46.7366C315.818 46.5128 315.637 46.3059 315.463 46.0949Z" fill="var(--fill-0, #FFC296)"/>
<path id="Vector_2" fill-rule="evenodd" clip-rule="evenodd" d="M298.639 35.3245C300.709 34.9153 302.76 35.2874 304.765 35.7705C308.151 36.5871 311.207 38.0931 313.776 40.6176C315.241 42.0585 316.873 43.3209 318.45 44.6389C320.865 46.6603 323.722 47.6366 326.712 48.2537C334.079 49.7751 341.51 50.8179 349.032 50.688C353.383 50.6131 357.727 50.1376 362.074 49.8247C363.22 49.7422 364.363 49.5934 365.787 49.4458C363.517 50.8209 355.444 51.9522 347.355 52.3085C341.111 52.5834 334.964 51.741 328.718 51.0855C329.026 51.248 329.316 51.4749 329.643 51.5635C331.775 52.1422 333.892 52.8217 336.056 53.2215C340.515 54.0441 344.982 54.9147 349.481 55.3903C354.504 55.9192 359.565 56.1138 364.616 56.3013C369.493 56.4832 374.377 56.4672 379.258 56.5506C379.797 56.5603 380.334 56.6562 380.847 56.9173C363.673 58.0986 346.555 58.4813 329.694 53.9538C329.653 54.0755 329.611 54.1972 329.569 54.318C331.31 55.2158 333.007 56.2283 334.802 56.9893C340.187 59.2704 345.721 61.0532 351.438 62.2439C356.525 63.3033 361.675 63.7521 366.83 64.1693C371.13 64.5184 375.389 65.0627 379.454 66.6497C380.663 67.1226 381.898 67.5972 382.699 68.8611C382.379 68.7832 382.051 68.7364 381.742 68.625C377.438 67.0767 373.033 66.1746 368.458 65.9524C363.412 65.7075 358.35 65.4092 353.346 64.729C343.451 63.3833 334.129 60.1559 325.518 54.8562C321.439 52.3453 317.852 49.216 314.683 45.592C312.006 42.5278 308.982 39.92 305.505 37.9282C304.159 37.1579 302.583 36.8009 301.092 36.3213C300.28 36.0596 299.428 35.9349 298.593 35.7487C298.609 35.6068 298.624 35.4652 298.639 35.3245Z" fill="var(--fill-0, #E8A576)"/>
<path id="Vector_3" fill-rule="evenodd" clip-rule="evenodd" d="M329.254 31.0516C329.435 29.6951 329.517 28.3157 329.825 26.9889C330.162 25.5378 331.263 24.6836 332.706 24.7835C334.433 24.9029 336.183 25.0844 337.856 25.5059C340.325 26.1282 341.673 28.0295 341.585 30.3506C341.47 33.4389 340.243 35.1573 337.528 35.7131C335.892 36.0482 334.208 36.2362 332.538 36.2941C330.421 36.3671 329.743 35.6765 329.549 33.5898C329.471 32.7549 329.444 31.9147 329.394 31.0772C329.347 31.0684 329.301 31.0604 329.254 31.0516Z" fill="var(--fill-0, #FFE3D0)"/>
<g id="Group_2">
<path id="Vector_4" fill-rule="evenodd" clip-rule="evenodd" d="M220.848 65.5628C220.27 64.1639 220.209 62.6534 219.934 61.1929C218.607 54.1191 217.827 46.9983 217.616 39.7864C217.289 28.65 216.773 17.5179 216.566 6.37784C216.547 5.30163 216.576 4.22529 216.584 3.14879C217.179 3.50075 217.835 3.51698 218.5 3.51113C219.821 3.50031 221.146 3.57623 222.462 3.49943C225.585 3.31774 228.668 3.98538 231.788 3.89673C233.074 3.86031 233.811 4.74006 233.878 6.07796C234.01 8.65956 233.73 11.211 233.284 13.7495C233.243 13.9853 233.178 14.2201 233.171 14.4569C233.067 18.2866 232.507 22.1122 232.83 25.9425C233.196 30.2945 233.108 34.676 233.572 39.0095C234.116 44.1044 234.836 49.189 236.139 54.1659C236.67 56.1866 236.993 58.26 237.708 60.2334C237.899 60.756 237.856 61.3014 237.83 61.8384C237.789 62.6652 237.333 63.2041 236.519 63.3059C234.035 63.6185 231.604 64.2342 229.099 64.4548C226.605 64.6742 224.134 65.1564 221.618 65.1625C221.301 65.1624 221.049 65.3221 220.848 65.5628Z" fill="var(--fill-0, #D9D9D9)"/>
<path id="Vector_5" fill-rule="evenodd" clip-rule="evenodd" d="M221.444 68.1885C221.732 69.5619 221.387 70.1914 220.031 70.622C219.521 70.7838 218.979 70.8825 218.446 70.9381C206.744 72.1565 195.041 73.3588 183.341 74.5768C171.4 75.8196 159.462 77.0822 147.522 78.325C136.417 79.4803 125.31 80.617 114.204 81.7697C101.905 83.046 89.6082 84.3363 77.3094 85.6122C67.5174 86.6271 57.7233 87.6226 47.9315 88.6375C37.0649 89.765 26.2 90.9052 15.3341 92.0395C11.872 92.4009 8.40957 92.7646 4.94636 93.1186C4.16697 93.1977 3.38876 93.168 2.61537 93.0197C0.750286 92.6634 0.302226 92.1427 0.294035 90.2394C0.273409 85.4962 0.264925 80.7533 0.246786 76.0104C0.185787 60.1018 0.120253 44.1919 0.0617404 28.2828C0.0342396 20.8386 0.0105424 13.3939 1.02071e-05 5.94974C-0.00320798 3.57688 0.753944 2.73664 3.15837 2.508C4.29073 2.39961 5.43699 2.43105 6.5774 2.41789C23.8076 2.21382 41.0379 2.01078 58.2679 1.81301C74.538 1.62679 90.808 1.45052 107.078 1.2624C127.37 1.02703 147.662 0.779666 167.954 0.542102C180.142 0.399476 192.329 0.260074 204.517 0.132369C207.635 0.0994551 210.755 -0.150836 213.872 0.13661C217.792 0.943214 217.16 4.71482 217.132 5.5637C216.921 11.9222 217.324 18.2773 217.597 24.6137C217.977 33.4053 217.953 42.2265 218.921 50.991C219.342 54.8094 220.125 58.5706 220.717 62.362C220.884 63.4293 221.26 67.31 221.444 68.1885Z" fill="var(--fill-0, #7556FD)"/>
</g>
</g>
</svg>
