<svg preserveAspectRatio="none" width="100%" height="100%" overflow="visible" style="display: block;" viewBox="0 0 48 48" fill="none" xmlns="http://www.w3.org/2000/svg">
<g id="idea-01">
<path id="Vector" d="M12.1788 29.9984C11.4219 28.2972 11 26.4046 11 24.4102C11 17.0031 16.8203 10.9984 24 10.9984C31.1798 10.9984 37 17.0031 37 24.4102C37 26.4046 36.578 28.2972 35.8212 29.9984" stroke="var(--stroke-0, #7556FD)" stroke-width="3" stroke-linecap="round"/>
<path id="Vector_2" d="M24 3.99841V5.99841" stroke="var(--stroke-0, #7556FD)" stroke-width="3" stroke-linecap="round" stroke-linejoin="round"/>
<path id="Vector_3" d="M44 23.9984H42" stroke="var(--stroke-0, #7556FD)" stroke-width="3" stroke-linecap="round" stroke-linejoin="round"/>
<path id="Vector_4" d="M6 23.9984H4" stroke="var(--stroke-0, #7556FD)" stroke-width="3" stroke-linecap="round" stroke-linejoin="round"/>
<path id="Vector_5" d="M38.1408 9.85583L36.7266 11.2701" stroke="var(--stroke-0, #7556FD)" stroke-width="3" stroke-linecap="round" stroke-linejoin="round"/>
<path id="Vector_6" d="M11.2736 11.272L9.85938 9.85779" stroke="var(--stroke-0, #7556FD)" stroke-width="3" stroke-linecap="round" stroke-linejoin="round"/>
<path id="Vector_7" d="M29.033 38.6112C31.0538 37.9576 31.8642 36.108 32.0922 34.2476C32.1602 33.6918 31.703 33.2308 31.143 33.2308L16.9527 33.2312C16.3735 33.2312 15.9084 33.7228 15.9775 34.2978C16.2008 36.1546 16.7644 37.511 18.9059 38.6112M29.033 38.6112C29.033 38.6112 19.2585 38.6112 18.9059 38.6112M29.033 38.6112C28.79 42.5012 27.6666 44.0418 24.0126 43.9986C20.1042 44.0708 19.2051 42.1666 18.9059 38.6112" stroke="var(--stroke-0, #7556FD)" stroke-width="3" stroke-linecap="round" stroke-linejoin="round"/>
</g>
</svg>
