<svg preserveAspectRatio="none" width="100%" height="100%" overflow="visible" style="display: block;" viewBox="0 0 40 16" fill="none" xmlns="http://www.w3.org/2000/svg">
<g id="levis-1 1" clip-path="url(#clip0_0_4)">
<path id="Vector" d="M35.2911 0.978848C35.3913 0.971964 35.4803 0.951865 35.5587 0.918411C35.6366 0.88537 35.6993 0.834433 35.7454 0.764634C35.7921 0.695524 35.8153 0.598604 35.8153 0.474977C35.8153 0.370486 35.794 0.28692 35.7531 0.224556C35.7128 0.164037 35.6571 0.114715 35.5915 0.0813795C35.5202 0.04651 35.4434 0.0237443 35.3642 0.0140591C35.3274 0.00855228 35.2908 0.00511053 35.2546 0.00221947H34.4519V0.989311H34.9723C35.0848 0.989311 35.1909 0.986007 35.2911 0.978848ZM33.4076 2.79168C33.6103 2.99667 33.8499 3.15733 34.1261 3.27435C34.402 3.39123 34.7013 3.44933 35.0233 3.44933C35.3415 3.44933 35.6367 3.3911 35.9105 3.27435C36.179 3.16094 36.4219 2.99692 36.6253 2.79168C36.8278 2.58697 36.9868 2.34481 37.1019 2.06603C37.2164 1.78683 37.2743 1.48299 37.2743 1.15383C37.2743 0.834846 37.2164 0.536791 37.1019 0.260212C37.0644 0.171729 37.0214 0.0855701 36.9732 0.00221947L36.1932 0.00221947C36.2728 0.134107 36.3137 0.298209 36.3137 0.496178C36.3137 0.777437 36.2332 0.983942 36.0716 1.11445C35.9105 1.24565 35.7105 1.3233 35.4706 1.34725L36.3871 2.72725H35.8516L34.9798 1.38291H34.4521V2.72725H33.9541V0.00221947H33.0597C33.0115 0.0856085 32.9686 0.171815 32.9313 0.26035C32.8167 0.536791 32.759 0.834846 32.759 1.15396C32.759 1.48327 32.8166 1.78711 32.9313 2.06616C33.0459 2.34481 33.2049 2.58697 33.4076 2.79168ZM14.0938 5.35041C13.3991 5.35041 13.0311 5.87975 13.0233 6.42162H15.2564C15.2564 5.78283 14.8421 5.35041 14.0938 5.35041ZM37.5012 0.00221947C37.518 0.0359485 37.5366 0.0681632 37.5523 0.102856C37.6986 0.427206 37.7723 0.777575 37.7723 1.15383C37.7723 1.54082 37.6988 1.89669 37.5523 2.22366C37.406 2.54925 37.2083 2.83312 36.9586 3.07377C36.7086 3.31509 36.4123 3.50592 36.0866 3.63532C35.7544 3.76872 35.4001 3.83563 35.0231 3.83563C34.6471 3.83563 34.2915 3.76886 33.9573 3.63532C33.6292 3.50615 33.3303 3.31536 33.0775 3.07377C32.8259 2.83298 32.6269 2.54911 32.4806 2.22366C32.334 1.89669 32.2603 1.54082 32.2603 1.15383C32.2603 0.777575 32.3338 0.427206 32.4806 0.102856C32.4963 0.0681632 32.515 0.0359485 32.5318 0.00221947H5.91553e-07L3.84627 15.9978C11.9217 10.9311 19.6828 15.8002 19.9949 15.9859H19.9958C19.9965 15.9854 19.9973 15.9849 19.9982 15.9846H20.0021C20.0027 15.985 20.0038 15.9854 20.0044 15.9859H20.0056C20.3172 15.8002 28.0788 10.9311 36.154 15.9978L40 0.00221947H37.5012ZM10.5694 9.7133H5.312V4.37089H7.67561V8.25965H10.5694V9.7133ZM17.6406 7.49682H13.0274C13.0274 8.19219 13.6308 8.71671 14.435 8.71671C14.9132 8.71671 15.3488 8.56238 15.6566 8.14483H17.4963C16.895 9.49275 15.7287 9.87602 14.1387 9.87602C12.0708 9.87602 10.6088 8.78362 10.6088 7.05325C10.6088 5.20517 12.0489 4.23019 14.1387 4.23019C16.4766 4.23019 17.6488 5.70821 17.6488 7.13089C17.6487 7.24956 17.6581 7.3681 17.6406 7.49682ZM21.92 9.72183H19.928L16.954 4.36649H19.6379L21.3445 7.62182L21.3915 7.71998L21.4343 7.62182L23.0304 4.36635H24.642L21.92 9.72183ZM27.1727 9.71137H24.8929V4.35644H27.1727V9.71137ZM28.8854 5.02757L28.1986 5.7564H27.913L28.2278 4.96177H27.5986V3.90213H28.8854V5.02757ZM31.8773 9.86391C29.4412 9.86391 28.9978 8.49079 28.9978 8.15061H30.7619C30.7619 8.35051 31.0394 8.59019 31.2737 8.68766C31.4664 8.7682 31.6812 8.78403 31.8821 8.78403C32.3789 8.78403 32.7864 8.66646 32.7864 8.38506C32.7864 8.0424 32.3691 7.96641 31.9088 7.90198C30.6562 7.72576 28.9006 7.5205 28.9006 6.15344C28.9006 4.87834 30.3277 4.22937 31.8426 4.22937C34.2679 4.22937 34.9108 5.54012 34.9108 5.91967H33.118C33.118 5.80637 33.0295 5.58885 32.7851 5.4644C32.6038 5.37202 32.3372 5.29727 32.0796 5.29727C31.4097 5.29727 31.0328 5.43329 31.0328 5.73272C31.0328 5.97736 31.3726 6.09864 31.8604 6.18028C33.1337 6.39353 35.0889 6.46732 35.0889 7.97907C35.0888 8.747 34.4072 9.86391 31.8773 9.86391Z" fill="var(--fill-0, white)"/>
</g>
<defs>
<clipPath id="clip0_0_4">
<rect width="40" height="16" fill="white"/>
</clipPath>
</defs>
</svg>
