<svg preserveAspectRatio="none" width="100%" height="100%" overflow="visible" style="display: block;" viewBox="0 0 28 28" fill="none" xmlns="http://www.w3.org/2000/svg">
<g id="mdi:file-cad">
<path id="Vector" d="M6.99965 2.33369C5.71632 2.33369 4.66632 3.38369 4.66632 4.66702V23.3337C4.66632 24.617 5.71632 25.667 6.99965 25.667H20.9997C22.283 25.667 23.333 24.617 23.333 23.3337V9.33369L16.333 2.33369M15.1663 4.08369L21.583 10.5004H15.1663M11.5263 10.792H12.973V11.8887C13.778 11.877 14.443 12.542 14.443 13.347V15.7504L14.303 15.902L15.3413 17.6987C15.7147 17.1154 15.9013 16.4387 15.8897 15.7504H17.3597C17.3597 16.9637 16.9163 18.142 16.1347 19.0754L18.083 22.4587V23.917L16.823 23.1937L15.0147 20.0554C14.198 20.592 13.2297 20.872 12.2497 20.872C11.2697 20.872 10.313 20.592 9.48465 20.0554L7.67632 23.1937L6.41632 23.917V22.4587L10.1963 15.902L10.0563 15.7504V13.347C10.0563 12.542 10.7213 11.877 11.5263 11.8887M12.2497 13.347C11.4447 13.347 11.0363 14.327 11.608 14.8987C12.1797 15.4704 13.1597 15.0737 13.1597 14.257C13.1597 13.7554 12.7513 13.347 12.2497 13.347ZM11.2697 16.9637L10.2197 18.7954C11.4447 19.6237 13.0547 19.6237 14.2797 18.7954L13.2297 16.9637C12.6813 17.5004 11.818 17.5004 11.2697 16.9637Z" fill="var(--fill-0, white)"/>
</g>
</svg>
