<svg preserveAspectRatio="none" width="100%" height="100%" overflow="visible" style="display: block;" viewBox="0 0 28 28" fill="none" xmlns="http://www.w3.org/2000/svg">
<g id="mdi:file-cad">
<path id="Vector" d="M6.99963 2.3332C5.7163 2.3332 4.6663 3.3832 4.6663 4.66653V23.3332C4.6663 24.6165 5.7163 25.6665 6.99963 25.6665H20.9996C22.283 25.6665 23.333 24.6165 23.333 23.3332V9.3332L16.333 2.3332M15.1663 4.0832L21.583 10.4999H15.1663M11.5263 10.7915H12.973V11.8882C13.778 11.8765 14.443 12.5415 14.443 13.3465V15.7499L14.303 15.9015L15.3413 17.6982C15.7146 17.1149 15.9013 16.4382 15.8896 15.7499H17.3596C17.3596 16.9632 16.9163 18.1415 16.1346 19.0749L18.083 22.4582V23.9165L16.823 23.1932L15.0146 20.0549C14.198 20.5915 13.2296 20.8715 12.2496 20.8715C11.2696 20.8715 10.313 20.5915 9.48463 20.0549L7.6763 23.1932L6.4163 23.9165V22.4582L10.1963 15.9015L10.0563 15.7499V13.3465C10.0563 12.5415 10.7213 11.8765 11.5263 11.8882M12.2496 13.3465C11.4446 13.3465 11.0363 14.3265 11.608 14.8982C12.1796 15.4699 13.1596 15.0732 13.1596 14.2565C13.1596 13.7549 12.7513 13.3465 12.2496 13.3465ZM11.2696 16.9632L10.2196 18.7949C11.4446 19.6232 13.0546 19.6232 14.2796 18.7949L13.2296 16.9632C12.6813 17.4999 11.818 17.4999 11.2696 16.9632Z" fill="var(--fill-0, #F97316)"/>
</g>
</svg>
