<svg preserveAspectRatio="none" width="100%" height="100%" overflow="visible" style="display: block;" viewBox="0 0 32 32" fill="none" xmlns="http://www.w3.org/2000/svg">
<g id="material-icon-theme:folder-pdf">
<path id="Vector" d="M13.844 7.536L12.556 6.464C12.1967 6.1644 11.7438 6.00021 11.276 6H4C3.46957 6 2.96086 6.21071 2.58579 6.58579C2.21071 6.96086 2 7.46957 2 8V24C2 24.5304 2.21071 25.0391 2.58579 25.4142C2.96086 25.7893 3.46957 26 4 26H28C28.5304 26 29.0391 25.7893 29.4142 25.4142C29.7893 25.0391 30 24.5304 30 24V10C30 9.46957 29.7893 8.96086 29.4142 8.58579C29.0391 8.21071 28.5304 8 28 8H15.124C14.6562 7.99979 14.2033 7.8356 13.844 7.536Z" fill="var(--fill-0, #EF5350)"/>
<path id="Vector_2" d="M22.433 17.937C22.1668 18.7679 21.8271 19.5734 21.418 20.344C21.2315 20.6785 21.0665 21.0245 20.924 21.38L21.033 21.339C22.1152 20.9259 23.2343 20.6165 24.375 20.415C24.2297 20.3143 24.0897 20.2063 23.955 20.091C23.3002 19.4894 22.7813 18.7551 22.433 17.937ZM28.907 21.749C28.7872 21.8605 28.6449 21.9449 28.4896 21.9965C28.3343 22.0481 28.1697 22.0657 28.007 22.048C26.9704 22.0195 25.9522 21.7674 25.022 21.309C23.6508 21.4192 22.2946 21.6705 20.975 22.059L20.791 22.129C19.548 24.252 18.629 25.199 17.817 25.199C17.6643 25.1984 17.5138 25.1628 17.377 25.095L16.897 24.78L16.874 24.727C16.7968 24.5586 16.7781 24.3692 16.821 24.189C17.1521 23.2666 17.8267 22.5078 18.704 22.071C18.9849 21.8806 19.2829 21.7165 19.594 21.581C19.89 21.059 20.21 20.453 20.546 19.777C20.9956 18.8371 21.3595 17.8584 21.633 16.853L21.628 16.841C21.1862 15.8092 21.1089 14.6576 21.409 13.576C21.519 13.19 21.829 12.8 22.203 12.8H22.44C22.5526 12.7987 22.6643 12.8198 22.7687 12.862C22.8731 12.9042 22.968 12.9668 23.048 13.046C23.707 13.705 23.405 15.313 23.07 16.641L23.035 16.782C23.3325 17.7597 23.8831 18.6415 24.631 19.338C24.9053 19.5519 25.1932 19.7476 25.493 19.924C25.924 19.8759 26.3573 19.8512 26.791 19.85C28.031 19.85 28.777 20.074 29.068 20.536C29.1749 20.6985 29.219 20.8944 29.192 21.087C29.1866 21.3363 29.0844 21.5737 28.907 21.749ZM30 10H16C15.4696 10 14.9609 10.2107 14.5858 10.5858C14.2107 10.9609 14 11.4696 14 12V26C14 26.5304 14.2107 27.0391 14.5858 27.4142C14.9609 27.7893 15.4696 28 16 28H30C30.5304 28 31.0391 27.7893 31.4142 27.4142C31.7893 27.0391 32 26.5304 32 26V12C32 11.4696 31.7893 10.9609 31.4142 10.5858C31.0391 10.2107 30.5304 10 30 10ZM28.514 21.043C28.402 20.937 27.992 20.687 26.596 20.687C26.5523 20.6829 26.5084 20.6899 26.4681 20.7074C26.4279 20.7249 26.3928 20.7523 26.366 20.787C26.9632 21.0728 27.608 21.2464 28.268 21.299C28.3336 21.299 28.3991 21.2939 28.464 21.284L28.498 21.278C28.546 21.264 28.578 21.248 28.588 21.148C28.5656 21.1115 28.5409 21.0764 28.514 21.043ZM19.329 22.498C19.1634 22.5912 19.0047 22.6962 18.854 22.812C18.2937 23.2464 17.8716 23.8342 17.639 24.504C18.094 24.348 18.682 23.692 19.331 22.498H19.329ZM22.345 15.592L22.401 15.555C22.474 15.232 22.521 14.954 22.561 14.732L22.591 14.57C22.687 14.029 22.676 13.717 22.493 13.474L22.346 13.424C22.321 13.4618 22.2986 13.5012 22.279 13.542C22.1049 14.2177 22.1282 14.9291 22.346 15.592H22.345Z" fill="var(--fill-0, white)"/>
</g>
</svg>
