<svg preserveAspectRatio="none" width="100%" height="100%" overflow="visible" style="display: block;" viewBox="0 0 48 48" fill="none" xmlns="http://www.w3.org/2000/svg">
<g id="new-office">
<path id="Vector" d="M12.2219 26.5102C12.5912 26.17 12.7758 26 13 26C13.2242 26 13.4088 26.17 13.7781 26.5102L15.2034 27.8234C15.3756 27.982 15.4617 28.0614 15.5686 28.1006C15.6756 28.14 15.7926 28.1354 16.0265 28.1262L17.9523 28.0506C18.4482 28.031 18.6961 28.0214 18.8661 28.1642C19.0362 28.307 19.0693 28.553 19.1355 29.0448L19.4008 31.0154C19.4314 31.2432 19.4467 31.357 19.5022 31.4542C19.5577 31.5514 19.648 31.6224 19.8285 31.7646L21.3796 32.9856C21.7634 33.2878 21.9554 33.4388 21.9934 33.6548C22.0314 33.8708 21.9026 34.0782 21.645 34.4934L20.593 36.1886C20.4726 36.3826 20.4126 36.4796 20.3934 36.5892C20.3742 36.6986 20.398 36.8104 20.4456 37.0336L20.863 38.9904C20.9654 39.4712 21.0168 39.7116 20.9066 39.9026C20.7966 40.0934 20.5628 40.1696 20.0954 40.3218L18.244 40.9248C18.0233 40.9966 17.913 41.0326 17.8268 41.1056C17.7407 41.1788 17.6872 41.2818 17.5803 41.4878L16.676 43.2308C16.4455 43.675 16.3302 43.897 16.1202 43.9736C15.9101 44.0502 15.679 43.9544 15.2168 43.7626L13.4399 43.0256C13.2229 42.9356 13.1143 42.8906 13 42.8906C12.8857 42.8906 12.7771 42.9356 12.5601 43.0256L10.7832 43.7626C10.321 43.9544 10.0899 44.0502 9.87982 43.9736C9.66976 43.897 9.55452 43.675 9.32404 43.2308L8.41966 41.4878C8.31278 41.2818 8.25934 41.1788 8.17318 41.1056C8.087 41.0326 7.97666 40.9966 7.756 40.9248L5.90452 40.3218C5.43712 40.1696 5.20342 40.0934 5.09336 39.9026C4.9833 39.7116 5.03454 39.4712 5.13706 38.9904L5.55432 37.0336C5.60192 36.8104 5.62572 36.6986 5.60662 36.5892C5.5875 36.4796 5.52732 36.3826 5.40696 36.1886L4.35492 34.4934C4.09734 34.0782 3.96854 33.8708 4.00656 33.6548C4.04458 33.4388 4.2365 33.2878 4.62036 32.9856L6.17146 31.7646C6.352 31.6224 6.44226 31.5514 6.49776 31.4542C6.55328 31.357 6.5686 31.2432 6.59924 31.0154L6.86452 29.0448C6.93072 28.553 6.96382 28.307 7.13386 28.1642C7.30388 28.0214 7.5518 28.031 8.04768 28.0506L9.97346 28.1262C10.2074 28.1354 10.3244 28.14 10.4314 28.1006C10.5383 28.0614 10.6244 27.982 10.7966 27.8234L12.2219 26.5102Z" stroke="var(--stroke-0, #7556FD)" stroke-width="3"/>
<path id="Vector_2" d="M13 18H11M21 18H19M13 12H11M21 12H19" stroke="var(--stroke-0, #7556FD)" stroke-width="3" stroke-linecap="round"/>
<path id="Vector_3" d="M37 30H35M37 22H35" stroke="var(--stroke-0, #7556FD)" stroke-width="3" stroke-linecap="round"/>
<path id="Vector_4" d="M28 16V44H36C39.7712 44 41.6568 44 42.8284 42.8284C44 41.6568 44 39.7712 44 36V24C44 20.2288 44 18.3431 42.8284 17.1716C41.6568 16 39.7712 16 36 16H28ZM28 16C28 10.3431 28 7.51472 26.2426 5.75736C24.4852 4 21.6568 4 16 4C10.3431 4 7.51472 4 5.75736 5.75736C4 7.51472 4 10.3431 4 16V22" stroke="var(--stroke-0, #7556FD)" stroke-width="3" stroke-linecap="round" stroke-linejoin="round"/>
</g>
</svg>
