<svg preserveAspectRatio="none" width="100%" height="100%" overflow="visible" style="display: block;" viewBox="0 0 16 16" fill="none" xmlns="http://www.w3.org/2000/svg">
<g id="new-job">
<path id="Vector" d="M7.33832 13.9998H6.40429C4.01412 13.9998 2.81904 13.9998 2.07651 13.2432C1.33398 12.4866 1.33398 11.2688 1.33398 8.83317C1.33398 6.39758 1.33398 5.17978 2.07651 4.42314C2.81904 3.6665 4.01412 3.6665 6.40429 3.6665H8.93945C11.3296 3.6665 12.5247 3.6665 13.2673 4.42314C13.8385 5.0053 13.9703 5.86044 14.0007 7.33317" stroke="var(--stroke-0, white)" stroke-linecap="round"/>
<path id="Vector_2" d="M11.4067 8.83657C11.5297 8.72317 11.5913 8.6665 11.666 8.6665C11.7407 8.6665 11.8023 8.72317 11.9253 8.83657L12.4005 9.2743C12.4579 9.32717 12.4865 9.35364 12.5222 9.3667C12.5579 9.37984 12.5969 9.3783 12.6749 9.37524L13.3168 9.35004C13.4821 9.3435 13.5647 9.3403 13.6214 9.3879C13.6781 9.4355 13.6891 9.5175 13.7111 9.68144L13.7996 10.3383C13.8098 10.4142 13.8149 10.4522 13.8334 10.4846C13.8519 10.517 13.882 10.5406 13.9422 10.588L14.4592 10.995C14.5871 11.0958 14.6511 11.1461 14.6638 11.2181C14.6765 11.2901 14.6335 11.3592 14.5477 11.4976L14.197 12.0627C14.1569 12.1274 14.1369 12.1597 14.1305 12.1962C14.1241 12.2327 14.132 12.27 14.1479 12.3444L14.287 12.9966C14.3211 13.1569 14.3383 13.237 14.3015 13.3007C14.2649 13.3643 14.1869 13.3897 14.0311 13.4404L13.414 13.6414C13.3405 13.6654 13.3037 13.6774 13.2749 13.7017C13.2462 13.7261 13.2284 13.7604 13.1928 13.8291L12.8913 14.4101C12.8145 14.5582 12.7761 14.6322 12.7061 14.6577C12.6361 14.6832 12.559 14.6513 12.4049 14.5874L11.8127 14.3417C11.7403 14.3117 11.7041 14.2967 11.666 14.2967C11.6279 14.2967 11.5917 14.3117 11.5193 14.3417L10.9271 14.5874C10.773 14.6513 10.6959 14.6832 10.6259 14.6577C10.5559 14.6322 10.5175 14.5582 10.4407 14.4101L10.1392 13.8291C10.1036 13.7604 10.0858 13.7261 10.0571 13.7017C10.0283 13.6774 9.99153 13.6654 9.918 13.6414L9.30087 13.4404C9.14507 13.3897 9.06713 13.3643 9.03047 13.3007C8.99373 13.237 9.01087 13.1569 9.045 12.9966L9.18413 12.3444C9.2 12.27 9.20793 12.2327 9.20153 12.1962C9.19513 12.1597 9.17513 12.1274 9.135 12.0627L8.78433 11.4976C8.69847 11.3592 8.65553 11.2901 8.6682 11.2181C8.68087 11.1461 8.74487 11.0958 8.8728 10.995L9.3898 10.588C9.45 10.5406 9.48007 10.517 9.4986 10.4846C9.51707 10.4522 9.5222 10.4142 9.5324 10.3383L9.62087 9.68144C9.64293 9.5175 9.65393 9.4355 9.7106 9.3879C9.76727 9.3403 9.84993 9.3435 10.0152 9.35004L10.6571 9.37524C10.7351 9.3783 10.7741 9.37984 10.8098 9.3667C10.8455 9.35364 10.8741 9.32717 10.9315 9.2743L11.4067 8.83657Z" stroke="var(--stroke-0, white)"/>
<path id="Vector_3" d="M10.666 3.66683L10.5998 3.46079C10.2698 2.43409 10.1048 1.92074 9.71191 1.62712C9.31911 1.3335 8.79731 1.3335 7.75371 1.3335H7.57831C6.53471 1.3335 6.01292 1.3335 5.62009 1.62712C5.22726 1.92074 5.06225 2.43409 4.73224 3.46079L4.66602 3.66683" stroke="var(--stroke-0, white)"/>
</g>
</svg>
