<svg preserveAspectRatio="none" width="100%" height="100%" overflow="visible" style="display: block;" viewBox="0 0 295.29 73.0528" fill="none" xmlns="http://www.w3.org/2000/svg">
<g id="ornament">
<g id="Group">
<path id="Vector" d="M255.303 3.20316H258.71" stroke="var(--stroke-0, #282626)" stroke-width="3" stroke-miterlimit="10" stroke-linecap="round"/>
<path id="Vector_2" d="M255.303 3.20316H258.71" stroke="var(--stroke-0, #282626)" stroke-width="3" stroke-miterlimit="10" stroke-linecap="round"/>
<path id="Vector_3" d="M257.006 1.5V4.9067" stroke="var(--stroke-0, #282626)" stroke-width="3" stroke-miterlimit="10" stroke-linecap="round"/>
<path id="Vector_4" d="M257.006 1.5V4.9067" stroke="var(--stroke-0, #CFCFD2)" stroke-width="3" stroke-miterlimit="10" stroke-linecap="round"/>
</g>
<path id="Vector_5" d="M254.231 46.3496C255.763 46.3496 257.005 45.1075 257.005 43.5753C257.005 42.0432 255.763 40.8011 254.231 40.8011C252.699 40.8011 251.457 42.0432 251.457 43.5753C251.457 45.1075 252.699 46.3496 254.231 46.3496Z" fill="var(--fill-0, #7556FD)"/>
<path id="Vector_6" d="M290.276 11.8239L289.088 7.31731L293.595 8.5051L290.276 11.8239Z" fill="var(--fill-0, #FF4500)"/>
<path id="Vector_7" d="M251.457 15.6146C257.317 15.5728 263.182 17.0245 268.346 19.7946C270.688 21.0506 272.937 22.6217 274.447 24.8081C275.957 26.9944 276.63 29.8873 275.683 32.3702C274.736 34.8532 271.928 36.6465 269.358 35.9707C268.824 35.8303 268.282 35.5636 268.019 35.0786C267.609 34.3233 268.073 33.3282 268.805 32.8777C269.537 32.4275 270.444 32.3889 271.303 32.405C280.391 32.5754 289.224 37.7712 293.79 45.6307" stroke="var(--stroke-0, #CFCFD2)" stroke-width="3" stroke-miterlimit="10" stroke-linecap="round"/>
<path id="Vector_8" d="M72.0474 59.5477L76.554 58.3599L75.3662 62.8665L72.0474 59.5477Z" fill="var(--fill-0, #FF4500)"/>
<g id="Group_2">
<path id="Vector_9" d="M40.2252 27.3436H36.8185" stroke="var(--stroke-0, #282626)" stroke-width="3" stroke-miterlimit="10" stroke-linecap="round"/>
<path id="Vector_10" d="M40.2252 27.3436H36.8185" stroke="var(--stroke-0, #282626)" stroke-width="3" stroke-miterlimit="10" stroke-linecap="round"/>
<path id="Vector_11" d="M38.5224 25.6406V29.0473" stroke="var(--stroke-0, #282626)" stroke-width="3" stroke-miterlimit="10" stroke-linecap="round"/>
<path id="Vector_12" d="M38.5224 25.6406V29.0473" stroke="var(--stroke-0, #282626)" stroke-width="3" stroke-miterlimit="10" stroke-linecap="round"/>
</g>
<path id="Vector_13" d="M63.9805 27.3429C64.0695 34.7777 61.5726 42.2187 57.0167 48.0948C52.4611 53.971 45.8768 58.2431 38.6543 60.0095C34.8402 60.9421 30.6517 61.1523 27.133 59.41C23.6144 57.6677 21.0844 53.5386 22.1644 49.7636C23.4567 45.2468 29.6372 43.3536 33.7049 45.7044C37.7726 48.0553 39.4145 53.4653 38.2497 58.0167C37.085 62.5681 33.5998 66.2471 29.5748 68.6703C25.5497 71.0936 18.0897 72.1524 15.2385 71.2125" stroke="var(--stroke-0, #CFCFD2)" stroke-width="3" stroke-miterlimit="10" stroke-linecap="round"/>
<path id="Vector_14" d="M2.77437 40.8024C4.30654 40.8024 5.54861 39.5603 5.54861 38.0281C5.54861 36.496 4.30654 35.2539 2.77437 35.2539C1.24219 35.2539 0.000111307 36.496 0.000111307 38.0281C0.000111307 39.5603 1.24219 40.8024 2.77437 40.8024Z" fill="var(--fill-0, #7556FD)"/>
</g>
</svg>
