<svg preserveAspectRatio="none" width="100%" height="100%" overflow="visible" style="display: block;" viewBox="0 0 16 16" fill="none" xmlns="http://www.w3.org/2000/svg">
<g id="paint-board">
<path id="Vector" d="M14.6673 8.00016C14.6673 4.31826 11.6825 1.3335 8.00065 1.3335C4.31875 1.3335 1.33398 4.31826 1.33398 8.00016C1.33398 11.682 4.31875 14.6668 8.00065 14.6668C8.56178 14.6668 9.33398 14.7444 9.33398 14.0002C9.33398 13.5942 9.12278 13.281 8.91305 12.9698C8.60612 12.5145 8.30218 12.0637 8.66732 11.3335C9.11178 10.4446 9.85252 10.4446 10.9883 10.4446C11.5563 10.4446 12.2229 10.4446 13.0007 10.3335C14.4013 10.1334 14.6673 9.27243 14.6673 8.00016Z" stroke="var(--stroke-0, white)"/>
<path id="Vector_2" d="M4.66602 10.0011L4.6718 9.99951" stroke="var(--stroke-0, white)" stroke-width="1.33333" stroke-linecap="round" stroke-linejoin="round"/>
<path id="Vector_3" d="M6.33398 6.6665C6.88627 6.6665 7.33398 6.21879 7.33398 5.6665C7.33398 5.11422 6.88627 4.6665 6.33398 4.6665C5.7817 4.6665 5.33398 5.11422 5.33398 5.6665C5.33398 6.21879 5.7817 6.6665 6.33398 6.6665Z" stroke="var(--stroke-0, white)"/>
<path id="Vector_4" d="M11 7.33333C11.5523 7.33333 12 6.88562 12 6.33333C12 5.78105 11.5523 5.33333 11 5.33333C10.4477 5.33333 10 5.78105 10 6.33333C10 6.88562 10.4477 7.33333 11 7.33333Z" stroke="var(--stroke-0, white)"/>
</g>
</svg>
