<svg preserveAspectRatio="none" width="100%" height="100%" overflow="visible" style="display: block;" viewBox="0 0 48 48" fill="none" xmlns="http://www.w3.org/2000/svg">
<g id="question">
<path id="Vector" d="M44 14.5668C44 19.85 39.5222 24.1336 34 24.1336C33.3506 24.1344 32.7032 24.0744 32.0654 23.9546C31.6062 23.8684 31.3766 23.8254 31.2164 23.8498C31.0562 23.8742 30.829 23.995 30.3748 24.2366C29.09 24.9198 27.5918 25.1612 26.151 24.8932C26.6986 24.2196 27.0726 23.4114 27.2376 22.545C27.3376 22.015 27.09 21.5002 26.7188 21.1234C25.0332 19.4117 24 17.1052 24 14.5668C24 9.28368 28.4776 5.00012 34 5.00012C39.5222 5.00012 44 9.28368 44 14.5668Z" stroke="var(--stroke-0, #7556FD)" stroke-width="3" stroke-linejoin="round"/>
<path id="Vector_2" d="M30.9844 15.0001H31.0006M36.9844 15.0001H37.0006" stroke="var(--stroke-0, #7556FD)" stroke-width="3" stroke-linecap="round"/>
<path id="Vector_3" d="M15.0038 43H9.43634C8.78976 43 8.14042 42.909 7.54654 42.6538C5.61332 41.8234 4.63248 40.7266 4.17538 40.0404C3.91528 39.65 3.95234 39.1528 4.23452 38.778C6.47432 35.803 11.6769 34.006 15.0133 34.006C18.3497 34.006 23.5428 35.803 25.7826 38.778C26.0648 39.1528 26.1018 39.65 25.8418 40.0404C25.3846 40.7266 24.4038 41.8234 22.4706 42.6538C21.8766 42.909 21.2274 43 20.5808 43H15.0038Z" stroke="var(--stroke-0, #7556FD)" stroke-width="3" stroke-linecap="round" stroke-linejoin="round"/>
<path id="Vector_4" d="M20.5701 23.5778C20.5701 26.6404 18.0818 29.1232 15.0125 29.1232C11.9432 29.1232 9.45508 26.6404 9.45508 23.5778C9.45508 20.5152 11.9432 18.0325 15.0125 18.0325C18.0818 18.0325 20.5701 20.5152 20.5701 23.5778Z" stroke="var(--stroke-0, #7556FD)" stroke-width="3" stroke-linecap="round" stroke-linejoin="round"/>
</g>
</svg>
