<svg preserveAspectRatio="none" width="100%" height="100%" overflow="visible" style="display: block;" viewBox="0 0 48 48" fill="none" xmlns="http://www.w3.org/2000/svg">
<g id="radar-01">
<path id="Vector" d="M33.1924 33.1924C28.1156 38.2692 19.8844 38.2692 14.8076 33.1924C9.73079 28.1156 9.73079 19.8844 14.8076 14.8076C17.8563 11.7589 22.0424 10.541 26 11.1539" stroke="var(--stroke-0, #7556FD)" stroke-width="3" stroke-linecap="round"/>
<path id="Vector_2" d="M24 24L33.8994 14.1005C35.9658 12.0341 36.999 11.001 36.7734 9.50346C36.5478 8.00596 35.4764 7.4396 33.3334 6.30686C30.5472 4.83398 27.371 4 24 4C12.9543 4 4 12.9543 4 24C4 35.0456 12.9543 44 24 44C35.0456 44 44 35.0456 44 24C44 21.1556 43.4062 18.4498 42.3358 16" stroke="var(--stroke-0, #7556FD)" stroke-width="3" stroke-linecap="round"/>
</g>
</svg>
