<svg preserveAspectRatio="none" width="100%" height="100%" overflow="visible" style="display: block;" viewBox="0 0 35 40" fill="none" xmlns="http://www.w3.org/2000/svg">
<g id="shopify 1" clip-path="url(#clip0_0_35)">
<path id="Vector" d="M30.5928 7.8548C30.5653 7.6548 30.3905 7.54411 30.246 7.53192C30.1018 7.51986 27.0494 7.29315 27.0494 7.29315C27.0494 7.29315 24.9295 5.18425 24.6968 4.95082C24.464 4.71754 24.0094 4.78849 23.8329 4.84055C23.8069 4.84822 23.3697 4.98343 22.6465 5.20767C21.9384 3.16575 20.6887 1.28932 18.49 1.28932C18.4293 1.28932 18.3669 1.29178 18.3044 1.29534C17.6791 0.466713 16.9045 0.106713 16.2355 0.106713C11.1138 0.106713 8.66694 6.52247 7.89975 9.78274C5.9096 10.4007 4.49579 10.84 4.31521 10.8969C3.20434 11.246 3.16921 11.2811 3.02334 12.33C2.91357 13.1241 0.0069451 35.6486 0.0069451 35.6486L22.656 39.901L34.928 37.2407C34.928 37.2407 30.6199 8.0548 30.5928 7.8548ZM21.3947 5.59562L19.4783 6.19C19.4789 6.05466 19.4796 5.92151 19.4796 5.77589C19.4796 4.50685 19.3038 3.48507 19.0218 2.67507C20.1547 2.81754 20.9092 4.10918 21.3947 5.59562ZM17.6165 2.92671C17.9314 3.71754 18.1362 4.85247 18.1362 6.38397C18.1362 6.46233 18.1355 6.53397 18.1349 6.60644C16.8885 6.99329 15.5342 7.41329 14.1768 7.83466C14.939 4.88726 16.3675 3.4637 17.6165 2.92671ZM16.0948 1.48329C16.3159 1.48329 16.5386 1.55849 16.7517 1.70548C15.1103 2.47945 13.3509 4.42877 12.6079 8.32151L9.47924 9.29247C10.3495 6.32329 12.4161 1.48329 16.0948 1.48329Z" fill="var(--fill-0, #95BF46)"/>
<path id="Vector_2" d="M30.246 7.53192C30.1017 7.51986 27.0494 7.29315 27.0494 7.29315C27.0494 7.29315 24.9295 5.18425 24.6968 4.95082C24.6098 4.86397 24.4923 4.81945 24.3696 4.80028L22.6571 39.9007L34.928 37.2407C34.928 37.2407 30.6199 8.0548 30.5928 7.8548C30.5653 7.6548 30.3905 7.54411 30.246 7.53192Z" fill="var(--fill-0, #5E8E3E)"/>
<path id="Vector_3" d="M18.49 14.3267L16.9768 18.8371C16.9768 18.8371 15.6511 18.1281 14.0259 18.1281C11.6434 18.1281 11.5235 19.6263 11.5235 20.0038C11.5235 22.0638 16.8824 22.8531 16.8824 27.6784C16.8824 31.4747 14.4795 33.9192 11.2396 33.9192C7.3517 33.9192 5.36346 31.4945 5.36346 31.4945L6.40447 28.0479C6.40447 28.0479 8.44821 29.8062 10.1727 29.8062C11.2996 29.8062 11.758 28.9171 11.758 28.2675C11.758 25.5804 7.36154 25.4605 7.36154 21.0451C7.36154 17.3288 10.0235 13.7325 15.3968 13.7325C17.4672 13.7325 18.49 14.3267 18.49 14.3267Z" fill="var(--fill-0, #121212)"/>
</g>
<defs>
<clipPath id="clip0_0_35">
<rect width="35" height="40" fill="white"/>
</clipPath>
</defs>
</svg>
