<svg preserveAspectRatio="none" width="100%" height="100%" overflow="visible" style="display: block;" viewBox="0 0 20 20" fill="none" xmlns="http://www.w3.org/2000/svg">
<g id="sidebar-left-01">
<path id="Vector" d="M1.66667 10C1.66667 6.87522 1.66667 5.31283 2.46242 4.21756C2.71942 3.86383 3.0305 3.55276 3.38422 3.29576C4.4795 2.5 6.04189 2.5 9.16667 2.5H10.8333C13.9581 2.5 15.5205 2.5 16.6157 3.29576C16.9695 3.55276 17.2806 3.86383 17.5376 4.21756C18.3333 5.31283 18.3333 6.87522 18.3333 10C18.3333 13.1247 18.3333 14.6872 17.5376 15.7824C17.2806 16.1362 16.9695 16.4472 16.6157 16.7042C15.5205 17.5 13.9581 17.5 10.8333 17.5H9.16667C6.04189 17.5 4.4795 17.5 3.38422 16.7042C3.0305 16.4472 2.71942 16.1362 2.46242 15.7824C1.66667 14.6872 1.66667 13.1247 1.66667 10Z" stroke="var(--stroke-0, #686868)" stroke-width="1.25" stroke-linejoin="round"/>
<path id="Vector_2" d="M7.91667 2.91667V17.0833" stroke="var(--stroke-0, #686868)" stroke-width="1.25" stroke-linejoin="round"/>
<path id="Vector_3" d="M4.16667 5.83333C4.16667 5.83333 4.92851 5.83333 5.41667 5.83333" stroke="var(--stroke-0, #686868)" stroke-width="1.25" stroke-linecap="round" stroke-linejoin="round"/>
<path id="Vector_4" d="M4.16667 9.16667H5.41667" stroke="var(--stroke-0, #686868)" stroke-width="1.25" stroke-linecap="round" stroke-linejoin="round"/>
<path id="Vector_5" d="M14.1667 8.33333L13.1446 9.21433C12.7148 9.58467 12.5 9.76992 12.5 10C12.5 10.2301 12.7148 10.4153 13.1446 10.7857L14.1667 11.6667" stroke="var(--stroke-0, #686868)" stroke-width="1.25" stroke-linecap="round" stroke-linejoin="round"/>
</g>
</svg>
