<svg preserveAspectRatio="none" width="100%" height="100%" overflow="visible" style="display: block;" viewBox="0 0 48 48" fill="none" xmlns="http://www.w3.org/2000/svg">
<g id="screen-add-to-home">
<path id="Vector" d="M27 38H27.02" stroke="var(--stroke-0, #7556FD)" stroke-width="4" stroke-linecap="round" stroke-linejoin="round"/>
<path id="Vector_2" d="M14 34C14 38.714 14 41.071 15.4645 42.5356C16.9289 44 19.286 44 24 44H30C34.714 44 37.071 44 38.5356 42.5356C40 41.071 40 38.714 40 34V14C40 9.28596 40 6.92894 38.5356 5.46446C37.071 4 34.714 4 30 4H24C19.286 4 16.9289 4 15.4645 5.46446C14.2236 6.70528 14.0342 8.58688 14.0052 12" stroke="var(--stroke-0, #7556FD)" stroke-width="3" stroke-linecap="round" stroke-linejoin="round"/>
<path id="Vector_3" d="M12 18H22V28M21 19L8 32" stroke="var(--stroke-0, #7556FD)" stroke-width="3" stroke-linecap="round" stroke-linejoin="round"/>
</g>
</svg>
