<svg preserveAspectRatio="none" width="100%" height="100%" overflow="visible" style="display: block;" viewBox="0 0 20 20" fill="none" xmlns="http://www.w3.org/2000/svg">
<g id="share-03">
<path id="Vector" d="M6.66699 5.83333C6.66699 5.83333 8.49683 3.56988 9.50399 2.69907C9.66591 2.55908 9.84774 2.49293 10.0284 2.5006C10.1905 2.50747 10.3516 2.5737 10.4968 2.69926C11.5037 3.57023 13.3337 5.83333 13.3337 5.83333M10.0284 3.33333V12.5" stroke="var(--stroke-0, #686868)" stroke-width="1.25" stroke-linecap="round" stroke-linejoin="round"/>
<path id="Vector_2" d="M6.66634 9.16667C5.49957 9.16667 4.91617 9.16667 4.47052 9.39375C4.07852 9.5935 3.75982 9.91217 3.56007 10.3042C3.33301 10.7498 3.33301 11.3333 3.33301 12.5V13.3333C3.33301 15.2975 3.33301 16.2796 3.9432 16.8898C4.5534 17.5 5.53549 17.5 7.49967 17.5H12.4997C14.4638 17.5 15.4459 17.5 16.0562 16.8898C16.6663 16.2796 16.6663 15.2975 16.6663 13.3333V12.5C16.6663 11.3333 16.6663 10.7498 16.4393 10.3042C16.2395 9.91217 15.9208 9.5935 15.5288 9.39375C15.0832 9.16667 14.4998 9.16667 13.333 9.16667" stroke="var(--stroke-0, #686868)" stroke-width="1.25" stroke-linecap="round" stroke-linejoin="round"/>
</g>
</svg>
