<svg width="32" height="32" viewBox="0 0 32 32" fill="none" xmlns="http://www.w3.org/2000/svg">
<path fill-rule="evenodd" clip-rule="evenodd" d="M4.6185 4.6185C2.6665 6.57317 2.6665 9.7145 2.6665 15.9998C2.6665 22.2852 2.6665 25.4278 4.6185 27.3798C6.57317 29.3332 9.7145 29.3332 15.9998 29.3332C22.2852 29.3332 25.4278 29.3332 27.3798 27.3798C29.3332 25.4292 29.3332 22.2852 29.3332 15.9998C29.3332 9.7145 29.3332 6.57184 27.3798 4.6185C25.4292 2.6665 22.2852 2.6665 15.9998 2.6665C9.7145 2.6665 6.57184 2.6665 4.6185 4.6185ZM17.9838 8.5945C18.2398 8.66325 18.4579 8.83077 18.5905 9.06028C18.723 9.28978 18.7589 9.56249 18.6905 9.8185L15.2398 22.6985C15.2058 22.8254 15.1471 22.9443 15.0671 23.0484C14.9871 23.1526 14.8873 23.24 14.7735 23.3056C14.5437 23.4381 14.2707 23.474 14.0145 23.4052C13.7583 23.3364 13.5399 23.1687 13.4074 22.9389C13.2749 22.7091 13.2391 22.436 13.3078 22.1798L16.7598 9.30117C16.8286 9.04524 16.9961 8.82706 17.2256 8.69456C17.4551 8.56206 17.7278 8.52607 17.9838 8.5945ZM19.9598 11.2932C20.1473 11.1059 20.4015 11.0007 20.6665 11.0007C20.9315 11.0007 21.1857 11.1059 21.3732 11.2932L21.6518 11.5705C22.4985 12.4172 23.2052 13.1238 23.6905 13.7598C24.2025 14.4318 24.5625 15.1412 24.5625 15.9998C24.5625 16.8585 24.2025 17.5678 23.6905 18.2398C23.2052 18.8758 22.4985 19.5825 21.6505 20.4292L21.3732 20.7065C21.2816 20.8048 21.1712 20.8836 21.0486 20.9382C20.9259 20.9929 20.7935 21.0223 20.6592 21.0246C20.5249 21.027 20.3916 21.0023 20.267 20.952C20.1425 20.9017 20.0294 20.8268 19.9345 20.7319C19.8395 20.6369 19.7646 20.5238 19.7143 20.3993C19.664 20.2748 19.6393 20.1414 19.6417 20.0071C19.6441 19.8729 19.6735 19.7405 19.7281 19.6178C19.7828 19.4951 19.8616 19.3847 19.9598 19.2932L20.1878 19.0638C21.0972 18.1545 21.7065 17.5438 22.0998 17.0265C22.4772 16.5332 22.5625 16.2452 22.5625 15.9998C22.5625 15.7545 22.4772 15.4665 22.0998 14.9732C21.7065 14.4572 21.0972 13.8452 20.1878 12.9358L19.9598 12.7065C19.7726 12.519 19.6674 12.2648 19.6674 11.9998C19.6674 11.7348 19.7726 11.4807 19.9598 11.2932ZM10.6265 11.2932C10.8161 11.1165 11.0668 11.0204 11.3259 11.0249C11.5849 11.0295 11.8321 11.1345 12.0153 11.3177C12.1986 11.5009 12.3035 11.7481 12.3081 12.0071C12.3126 12.2662 12.2165 12.5169 12.0398 12.7065L11.8118 12.9358C10.9025 13.8452 10.2945 14.4558 9.89984 14.9732C9.5225 15.4665 9.4385 15.7545 9.4385 15.9998C9.4385 16.2452 9.5225 16.5332 9.89984 17.0265C10.2945 17.5425 10.9025 18.1545 11.8118 19.0638L12.0412 19.2932C12.1366 19.3855 12.2128 19.4958 12.2651 19.6179C12.3175 19.7399 12.345 19.8711 12.3461 20.0039C12.3472 20.1367 12.3218 20.2684 12.2715 20.3912C12.2211 20.5141 12.1468 20.6257 12.0529 20.7196C11.959 20.8134 11.8473 20.8876 11.7243 20.9378C11.6014 20.9881 11.4697 21.0133 11.337 21.0121C11.2042 21.0109 11.073 20.9832 10.951 20.9308C10.829 20.8783 10.7187 20.8021 10.6265 20.7065L10.3492 20.4292C9.50117 19.5825 8.7945 18.8758 8.30917 18.2398C7.79717 17.5678 7.4385 16.8585 7.4385 15.9998C7.4385 15.1412 7.7985 14.4318 8.30917 13.7598C8.7945 13.1238 9.50117 12.4172 10.3492 11.5705L10.6265 11.2932Z" fill="#7556FD"/>
</svg>
