<svg preserveAspectRatio="none" width="100%" height="100%" overflow="visible" style="display: block;" viewBox="0 0 28 28" fill="none" xmlns="http://www.w3.org/2000/svg">
<g id="solar:code-file-bold">
<path id="Vector" d="M22.5776 8.88651L17.9576 4.72968C16.6428 3.54551 15.9859 2.95285 15.1774 2.64368L15.1669 5.83335C15.1669 8.58318 15.1669 9.95868 16.0209 10.8127C16.8749 11.6667 18.2504 11.6667 21.0003 11.6667H25.1769C24.7546 10.8453 23.9963 10.164 22.5776 8.88651Z" fill="var(--fill-0, #7556FD)"/>
<path id="Vector_2" fill-rule="evenodd" clip-rule="evenodd" d="M11.6662 25.6669H16.3329C20.7324 25.6669 22.9327 25.6669 24.2989 24.2996C25.665 22.9322 25.6662 20.7331 25.6662 16.3336V15.8237C25.6662 14.8052 25.6662 14.0399 25.616 13.4169H20.8887C19.6089 13.4169 18.4772 13.4169 17.566 13.2944C16.5779 13.1614 15.5897 12.8569 14.7835 12.0507C13.9762 11.2434 13.6717 10.2552 13.5387 9.26708C13.4162 8.35591 13.4162 7.22541 13.4162 5.94441L13.4279 2.63808C13.4279 2.54164 13.4356 2.44675 13.4512 2.35341C12.974 2.33358 12.4082 2.33358 11.7012 2.33358C7.27836 2.33358 5.06636 2.33358 3.7002 3.70091C2.33286 5.06708 2.33286 7.26741 2.33286 11.6669V16.3336C2.33286 20.7331 2.33286 22.9334 3.7002 24.2996C5.06753 25.6657 7.2667 25.6669 11.6662 25.6669ZM12.7979 18.0486C12.9619 17.8847 13.1843 17.7927 13.4162 17.7927C13.6481 17.7927 13.8705 17.8847 14.0345 18.0486L15.2012 19.2152C15.3651 19.3793 15.4571 19.6017 15.4571 19.8336C15.4571 20.0655 15.3651 20.2879 15.2012 20.4519L14.0345 21.6186C13.9544 21.7045 13.8578 21.7735 13.7505 21.8213C13.6432 21.8691 13.5273 21.8949 13.4098 21.8969C13.2923 21.899 13.1756 21.8774 13.0667 21.8334C12.9577 21.7894 12.8587 21.7239 12.7757 21.6408C12.6926 21.5577 12.6271 21.4587 12.5831 21.3498C12.539 21.2408 12.5174 21.1241 12.5195 21.0066C12.5216 20.8892 12.5473 20.7733 12.5951 20.666C12.6429 20.5586 12.7119 20.462 12.7979 20.3819L13.3462 19.8336L12.7979 19.2852C12.634 19.1212 12.542 18.8988 12.542 18.6669C12.542 18.435 12.634 18.2126 12.7979 18.0486ZM12.4852 16.6404C12.5296 16.532 12.5519 16.4158 12.5505 16.2986C12.5492 16.1815 12.5244 16.0658 12.4775 15.9584C12.4306 15.851 12.3627 15.7542 12.2776 15.6736C12.1926 15.5929 12.0923 15.5302 11.9826 15.4891C11.8729 15.448 11.756 15.4294 11.6389 15.4343C11.5219 15.4392 11.407 15.4675 11.3011 15.5177C11.1952 15.5678 11.1005 15.6387 11.0225 15.7262C10.9445 15.8136 10.8849 15.9158 10.8472 16.0267L9.09719 20.6934C9.05275 20.8018 9.03053 20.918 9.03185 21.0352C9.03318 21.1523 9.05801 21.268 9.10489 21.3754C9.15177 21.4828 9.21973 21.5797 9.30475 21.6603C9.38977 21.7409 9.49011 21.8036 9.59982 21.8447C9.70954 21.8858 9.82639 21.9045 9.94345 21.8996C10.0605 21.8947 10.1754 21.8663 10.2813 21.8161C10.3872 21.766 10.4819 21.6951 10.5599 21.6077C10.6379 21.5202 10.6975 21.418 10.7352 21.3071L12.4852 16.6404ZM8.78453 15.7152C8.94839 15.8793 9.04043 16.1017 9.04043 16.3336C9.04043 16.5655 8.94839 16.7878 8.78453 16.9519L8.23619 17.5002L8.78453 18.0486C8.8705 18.1287 8.93945 18.2253 8.98727 18.3326C9.0351 18.44 9.06081 18.5558 9.06288 18.6733C9.06496 18.7908 9.04335 18.9075 8.99934 19.0164C8.95533 19.1254 8.88983 19.2244 8.80674 19.3075C8.72365 19.3905 8.62468 19.456 8.51573 19.5001C8.40677 19.5441 8.29007 19.5657 8.17259 19.5636C8.0551 19.5615 7.93923 19.5358 7.8319 19.488C7.72457 19.4402 7.62797 19.3712 7.54786 19.2852L6.38119 18.1186C6.21734 17.9545 6.1253 17.7321 6.1253 17.5002C6.1253 17.2684 6.21734 17.046 6.38119 16.8819L7.54786 15.7152C7.71192 15.5514 7.93432 15.4593 8.1662 15.4593C8.39807 15.4593 8.62047 15.5514 8.78453 15.7152Z" fill="var(--fill-0, #7556FD)"/>
</g>
</svg>
