<svg preserveAspectRatio="none" width="100%" height="100%" overflow="visible" style="display: block;" viewBox="0 0 48 48" fill="none" xmlns="http://www.w3.org/2000/svg">
<g id="timeline-list">
<path id="Vector" d="M8 18C9.10456 18 10 17.1046 10 16C10 14.8954 9.10456 14 8 14C6.89544 14 6 14.8954 6 16C6 17.1046 6.89544 18 8 18Z" stroke="var(--stroke-0, #7556FD)" stroke-width="3" stroke-linecap="round" stroke-linejoin="round"/>
<path id="Vector_2" d="M8 34C9.10456 34 10 33.1046 10 32C10 30.8954 9.10456 30 8 30C6.89544 30 6 30.8954 6 32C6 33.1046 6.89544 34 8 34Z" stroke="var(--stroke-0, #7556FD)" stroke-width="3" stroke-linecap="round" stroke-linejoin="round"/>
<path id="Vector_3" d="M8 42V6" stroke="var(--stroke-0, #7556FD)" stroke-width="3" stroke-linecap="round" stroke-linejoin="round"/>
<path id="Vector_4" d="M19.8284 18.8284L18.7071 17.7071C18.5879 17.5879 18.5282 17.5282 18.4756 17.4662C18.2046 17.1472 18.0406 16.7512 18.0066 16.3341C18 16.2529 18 16.1686 18 16C18 15.8314 18 15.7471 18.0066 15.6659C18.0406 15.2488 18.2046 14.8528 18.4756 14.5338C18.5282 14.4718 18.5879 14.4121 18.7071 14.2929L19.8284 13.1716C20.4064 12.5935 20.6956 12.3045 21.063 12.1522C21.4306 12 21.8394 12 22.6568 12H34C35.8856 12 36.8284 12 37.4142 12.5858C38 13.1716 38 14.1144 38 16C38 17.8856 38 18.8284 37.4142 19.4142C36.8284 20 35.8856 20 34 20H22.6568C21.8394 20 21.4306 20 21.063 19.8478C20.6956 19.6955 20.4064 19.4065 19.8284 18.8284Z" stroke="var(--stroke-0, #7556FD)" stroke-width="3" stroke-linecap="round" stroke-linejoin="round"/>
<path id="Vector_5" d="M19.8284 34.8284L18.7071 33.7072C18.5879 33.5878 18.5282 33.5282 18.4756 33.4662C18.2046 33.1472 18.0406 32.7512 18.0066 32.334C18 32.253 18 32.1686 18 32C18 31.8314 18 31.747 18.0066 31.666C18.0406 31.2488 18.2046 30.8528 18.4756 30.5338C18.5282 30.4718 18.5879 30.4122 18.7071 30.2928L19.8284 29.1716C20.4064 28.5936 20.6956 28.3044 21.063 28.1522C21.4306 28 21.8394 28 22.6568 28H38C39.8856 28 40.8284 28 41.4142 28.5858C42 29.1716 42 30.1144 42 32C42 33.8856 42 34.8284 41.4142 35.4142C40.8284 36 39.8856 36 38 36H22.6568C21.8394 36 21.4306 36 21.063 35.8478C20.6956 35.6956 20.4064 35.4064 19.8284 34.8284Z" stroke="var(--stroke-0, #7556FD)" stroke-width="3" stroke-linecap="round" stroke-linejoin="round"/>
</g>
</svg>
