<svg preserveAspectRatio="none" width="100%" height="100%" overflow="visible" style="display: block;" viewBox="0 0 40 40" fill="none" xmlns="http://www.w3.org/2000/svg">
<g id="tencent-meeting-1 1" clip-path="url(#clip0_0_13)">
<path id="Vector" d="M8.60581 -5.699e-07H31.3942C37.0087 -5.699e-07 39.816 2.83332 39.816 8.49997V31.5C39.816 37.1667 37.0087 40 31.3942 40H8.60581C2.99127 40 0.183999 37.1667 0.183999 31.5V8.49997C0.183999 2.83332 2.99127 -5.699e-07 8.60581 -5.699e-07Z" fill="var(--fill-0, #0377FC)"/>
<path id="Vector_2" d="M33.1628 20.77L29.908 17.5275L24.9664 12.5L19.9876 17.4675L15.0089 12.5L10.0672 17.525L6.83226 20.7725C6.3812 21.2302 6.128 21.8495 6.128 22.495C6.128 23.1405 6.3812 23.7598 6.83226 24.2175L10.0672 27.5L15.0262 22.5125L19.9876 27.58L24.9466 22.5125L29.908 27.56L33.1628 24.295C33.6182 23.8234 33.8731 23.191 33.8731 22.5325C33.8731 21.8739 33.6182 21.2415 33.1628 20.7699L33.1628 20.77Z" fill="var(--fill-0, #121212)"/>
<path id="Vector_3" d="M15.2607 11.6825L20.5152 16.9858L10.0062 27.5924L4.75163 22.2891L15.2607 11.6825Z" fill="var(--fill-0, #E0EBFD)"/>
<path id="Vector_4" d="M15.0064 12.5L20.2304 17.21L15.2986 23.135H15.1426L15.0064 12.5Z" fill="var(--fill-0, #ABC4FB)"/>
</g>
<defs>
<clipPath id="clip0_0_13">
<rect width="40" height="40" fill="white"/>
</clipPath>
</defs>
</svg>
