<svg xmlns="http://www.w3.org/2000/svg" width="40" height="40" viewBox="0 0 40 40" fill="none">
<path d="M19.9998 36.6667C21.8408 36.6667 23.3332 35.1743 23.3332 33.3333C23.3332 31.4923 21.8408 30 19.9998 30C18.1588 30 16.6665 31.4923 16.6665 33.3333C16.6665 35.1743 18.1588 36.6667 19.9998 36.6667Z" stroke="#7556FD" stroke-width="2.5" stroke-linecap="round" stroke-linejoin="round"/>
<path d="M20.0002 3.33325C14.9375 3.33325 10.8335 7.4373 10.8335 12.4999C10.8335 16.6959 13.6527 20.2333 17.5002 21.3216L20.0002 24.9999L22.5002 21.3216C26.3477 20.2333 29.1668 16.6959 29.1668 12.4999C29.1668 7.4373 25.0628 3.33325 20.0002 3.33325Z" stroke="#7556FD" stroke-width="2.5" stroke-linecap="round" stroke-linejoin="round"/>
<path d="M20 8.33325V12.4999L22.5 14.1666" stroke="#7556FD" stroke-width="2.5" stroke-linecap="round" stroke-linejoin="round"/>
<path d="M23.3333 33.3333H35M16.6667 33.3333H5" stroke="#7556FD" stroke-width="2.5" stroke-linecap="round" stroke-linejoin="round"/>
</svg>