<svg width="35" height="54" viewBox="0 0 35 54" fill="none" xmlns="http://www.w3.org/2000/svg">
<path fill-rule="evenodd" clip-rule="evenodd" d="M22.5835 30.3933C22.3955 30.1818 22.161 29.9971 21.9268 29.8128C20.7463 28.7707 19.3927 27.5425 17.8969 26.9141C15.9171 26.1005 14.3231 26.2507 13.068 26.9711C11.3022 27.9863 10.2417 30.2924 10.1648 32.6806C10.0785 35.0527 10.9079 37.4975 12.6542 38.8621C13.8379 39.8046 15.4776 40.2558 17.5876 39.8198C19.9826 39.3389 21.5855 37.7349 22.5914 35.6511C22.9918 34.8563 23.2469 34.027 23.4711 33.1455C24.0548 33.8127 24.6429 34.4872 25.2372 35.1724C27.0976 37.4633 28.7535 40.0392 30.1116 42.6387C31.9533 46.0519 33.1475 49.6353 33.67 53.4513C33.7458 53.7885 34.0799 54.0358 34.4302 53.9957C34.7801 53.9552 35.0267 53.6362 34.9977 53.2727C34.4499 49.3091 33.2279 45.5741 31.3083 42.0299C29.86 39.3833 28.2054 36.7053 26.2549 34.3678C25.4343 33.4067 24.6254 32.4652 23.7768 31.5618C24.0455 29.6015 23.991 27.6215 23.7433 26.0509C21.9184 15.6382 10.7984 6.47423 1.97035 1.062C1.6684 0.868668 1.27929 0.948881 1.08419 1.25C0.889363 1.55157 0.996433 1.9415 1.29839 2.13484C9.8378 7.37617 20.6793 16.1755 22.4338 26.2602C22.64 27.4462 22.6981 28.9077 22.5835 30.3933ZM22.3546 32.0016C21.9699 31.564 21.5406 31.1558 21.065 30.7753C19.948 29.8399 18.7558 28.6732 17.4086 28.0848C15.9194 27.4675 14.707 27.5264 13.7773 28.06C12.2899 28.9142 11.5433 30.8043 11.5005 32.7253C11.4201 34.6881 12.0177 36.7426 13.4881 37.8529C14.4175 38.5772 15.6706 38.902 17.285 38.5761C19.2849 38.1647 20.5936 36.8008 21.3914 35.1011C21.8758 34.1329 22.1814 33.0737 22.3546 32.0016Z" fill="#CFCFD2"/>
<path fill-rule="evenodd" clip-rule="evenodd" d="M1.35947 1.2913C1.68935 1.32184 2.06686 1.43251 2.44464 1.54364C3.18904 1.74712 3.90338 2.0047 4.43206 2.05502C7.62861 2.39815 11.4661 2.77081 14.6306 2.11598C14.9675 2.05343 15.1992 1.70914 15.1186 1.36363C15.0382 1.01858 14.711 0.782607 14.3273 0.871373C11.3233 1.48143 7.66111 1.08984 4.54969 0.785046C4.0085 0.713661 3.14058 0.406661 2.38937 0.191733C1.72793 0.0229331 1.11511 -0.0638488 0.624595 0.0549228C0.341802 0.103608 -0.0246058 0.431188 0.00130072 1.10413C0.0616085 2.04474 0.940291 4.25794 1.01029 4.4806C1.72556 6.73293 2.29884 8.74617 1.2688 10.9991C1.1425 11.3111 1.30351 11.6867 1.59158 11.8567C1.92641 12.0004 2.33325 11.8455 2.45927 11.5331C3.6186 8.97319 3.10742 6.64487 2.27343 4.08791C2.18743 3.94321 1.65348 2.6253 1.43297 1.62495C1.42556 1.5076 1.36605 1.40727 1.35947 1.2913Z" fill="#CFCFD2"/>
</svg>
