<svg width="62" height="22" viewBox="0 0 62 22" fill="none" xmlns="http://www.w3.org/2000/svg">
<path fill-rule="evenodd" clip-rule="evenodd" d="M25.3072 13.7211C25.5743 13.6555 25.8428 13.5343 26.1108 13.4131C27.5541 12.859 29.2365 12.2401 30.4985 11.1932C32.154 9.79835 32.8273 8.27427 32.8643 6.77417C32.9149 4.66297 31.5558 2.54983 29.638 1.29024C27.7381 0.0299708 25.3213 -0.433845 23.3311 0.474095C21.9676 1.08077 20.7789 2.34693 20.0818 4.4826C19.2792 6.8998 19.7923 9.15619 20.9965 11.1089C21.4475 11.8689 21.9993 12.514 22.6094 13.157C21.7713 13.3553 20.9249 13.554 20.0668 13.753C17.2608 14.3033 14.3236 14.5256 11.5158 14.4653C7.79993 14.4395 4.26812 13.7402 0.881392 12.3142C0.567278 12.215 0.197749 12.3957 0.0556204 12.7341C-0.0859976 13.0725 0.0521199 13.4556 0.364352 13.6103C3.88462 15.0868 7.55456 15.8364 11.4166 15.8568C14.308 15.8584 17.3283 15.6881 20.2174 15.0792C21.4147 14.8118 22.59 14.5454 23.7539 14.2238C25.2253 15.4448 26.8744 16.3817 28.2846 16.9389C37.7255 20.4671 50.7874 14.9217 59.6311 9.59131C59.9403 9.41309 60.069 9.01934 59.9198 8.69194C59.7701 8.36456 59.3972 8.26766 59.088 8.44588C50.5285 13.599 37.9045 19.0727 28.7675 15.644C27.6929 15.2406 26.4668 14.5653 25.3072 13.7211ZM24.1042 12.7118C24.6548 12.5799 25.2037 12.3929 25.7529 12.1501C27.0772 11.6004 28.6285 11.0978 29.7835 10.1659C31.0332 9.1195 31.5906 7.98782 31.618 6.87663C31.6614 5.09875 30.4862 3.47822 28.9341 2.48232C27.3666 1.43151 25.3851 0.951318 23.7411 1.73514C22.6834 2.21923 21.7913 3.19684 21.2517 4.82698C20.5896 6.85032 21.053 8.7197 22.0465 10.2918C22.5977 11.2146 23.3125 12.0201 24.1042 12.7118Z" fill="#CFCFD2"/>
<path fill-rule="evenodd" clip-rule="evenodd" d="M59.7485 8.92165C59.5586 9.20637 59.2794 9.49448 58.9996 9.78261C58.461 10.3581 57.8932 10.8792 57.5878 11.3349C55.7097 14.0703 53.4873 17.3737 52.4427 20.5772C52.3256 20.9147 52.4918 21.2969 52.8151 21.3957C53.1379 21.4945 53.4947 21.3146 53.6136 20.9216C54.6148 17.8863 56.7652 14.7516 58.5693 12.0745C58.8981 11.618 59.5832 10.9818 60.1346 10.4058C60.6033 9.88854 60.9805 9.37459 61.1283 8.86942C61.2297 8.58805 61.1445 8.09171 60.5803 7.78002C59.7797 7.36626 57.5279 7.06261 57.3105 7.01533C55.1083 6.54361 53.1728 6.0619 51.842 4.00298C51.6495 3.73273 51.2615 3.69202 50.9783 3.86926C50.6933 4.10208 50.6169 4.54914 50.8099 4.81937C52.3275 7.14875 54.49 7.8439 57.0011 8.35944C57.1626 8.35333 58.5089 8.5244 59.4384 8.82226C59.5383 8.87399 59.6502 8.86986 59.7485 8.92165Z" fill="#CFCFD2"/>
</svg>
