<svg preserveAspectRatio="none" width="100%" height="100%" overflow="visible" style="display: block;" viewBox="0 0 35 54" fill="none" xmlns="http://www.w3.org/2000/svg">
<g id="Vector">
<path fill-rule="evenodd" clip-rule="evenodd" d="M20.8277 21.2647C20.7403 21.5199 20.6969 21.8002 20.6538 22.0801C20.3425 23.5451 19.9578 25.241 20.1383 26.7642C20.3925 28.7718 21.2664 30.0005 22.4549 30.6784C24.1284 31.6311 26.5434 31.387 28.5643 30.3004C30.5764 29.2294 32.2186 27.376 32.5321 25.294C32.7593 23.8742 32.3637 22.3187 31.0099 20.8062C29.4847 19.0828 27.3984 18.5464 25.1939 18.7281C24.3452 18.7837 23.536 18.9746 22.698 19.2158C22.9783 18.4183 23.2625 17.6137 23.5527 16.7989C24.5825 14.178 25.9453 11.5868 27.4676 9.2274C29.439 6.08167 31.856 3.38249 34.782 1.11974C35.0267 0.895592 35.0752 0.503828 34.8773 0.237254C34.6792 -0.0288779 34.2982 -0.0766198 34.0097 0.121978C30.9729 2.47645 28.4429 5.27126 26.3993 8.54354C24.8803 10.9993 23.432 13.6385 22.4058 16.3554C21.9926 17.4877 21.5902 18.601 21.2382 19.7284C19.4826 20.4524 17.8627 21.4497 16.6737 22.4077C8.877 28.908 6.48608 42.3943 6.13622 52.2044C6.11743 52.5439 6.36694 52.8229 6.70888 52.8372C7.05108 52.8511 7.32484 52.5761 7.34363 52.2366C7.68707 42.7443 9.90588 29.6608 17.4629 23.3758C18.3518 22.6367 19.5392 21.8861 20.8277 21.2647ZM22.2719 20.6776C22.0891 21.2022 21.9515 21.749 21.8587 22.3203C21.6063 23.6822 21.1967 25.2167 21.3408 26.5995C21.5275 28.1121 22.1462 29.0733 23.0266 29.5754C24.4354 30.3783 26.3572 30.0782 27.9739 29.1888C29.6429 28.3098 31.0697 26.8333 31.3015 25.0989C31.4668 23.9918 31.1479 22.8126 30.1185 21.6518C28.8367 20.2174 27.0882 19.8055 25.3007 19.9722C24.2683 20.0428 23.2444 20.303 22.2719 20.6776Z" fill="var(--fill-0, black)"/>
<path fill-rule="evenodd" clip-rule="evenodd" d="M6.61385 52.5927C6.48422 52.3087 6.39881 51.9473 6.31364 51.5855C6.13296 50.88 6.01137 50.173 5.80476 49.7172C4.58787 46.943 3.09436 43.6314 1.06309 41.3636C0.852801 41.1187 0.457736 41.0952 0.208484 41.3273C-0.0405153 41.559 -0.0828931 41.9396 0.171166 42.21C2.08983 44.3685 3.48523 47.5461 4.69399 50.2323C4.88897 50.7084 5.04166 51.5646 5.21602 52.2812C5.38655 52.9023 5.60239 53.4442 5.9316 53.7875C6.10495 53.9949 6.54938 54.1363 7.09651 53.7913C7.84992 53.2895 9.27645 51.5072 9.42862 51.3429C10.9645 49.6753 12.3683 48.2385 14.7248 47.9951C15.0434 47.9481 15.2799 47.6359 15.2858 47.319C15.248 46.9765 14.9281 46.719 14.6092 46.7665C11.9368 47.0521 10.2419 48.5897 8.50869 50.5009C8.42884 50.6407 7.58441 51.7108 6.85662 52.3721C6.76257 52.4346 6.70715 52.5315 6.61385 52.5927Z" fill="var(--fill-0, black)"/>
</g>
</svg>
