<svg preserveAspectRatio="none" width="100%" height="100%" overflow="visible" style="display: block;" viewBox="0 0 35 54" fill="none" xmlns="http://www.w3.org/2000/svg">
<g id="Vector">
<path fill-rule="evenodd" clip-rule="evenodd" d="M14.1307 32.7618C14.2165 32.5061 14.2575 32.2247 14.2982 31.9438C14.5981 30.4742 14.9698 28.7732 14.7711 27.24C14.4928 25.2191 13.5953 23.9748 12.3851 23.281C10.681 22.306 8.23889 22.5264 6.20443 23.5979C4.17876 24.6539 2.53582 26.5003 2.24017 28.5902C2.02507 30.0151 2.44179 31.583 3.8281 33.1176C5.39005 34.8659 7.5076 35.4267 9.73735 35.2668C10.5959 35.2197 11.413 35.0362 12.2588 34.8023C11.9834 35.6011 11.7041 36.4072 11.4189 37.2233C10.4039 39.8476 9.0514 42.4385 7.53501 44.7948C5.5723 47.937 3.15383 50.6256 0.215459 52.8703C-0.0299103 53.0931 -0.0749373 53.4864 0.128197 53.7565C0.331582 54.0261 0.717764 54.078 1.00771 53.8813C4.0572 51.5456 6.58915 48.762 8.62369 45.4933C10.1357 43.0402 11.5742 40.4018 12.5846 37.681C12.991 36.5469 13.3867 35.4318 13.7312 34.302C15.5008 33.5923 17.1303 32.6064 18.3239 31.6556C26.1485 25.201 28.4278 11.6674 28.6794 1.8085C28.6948 1.46738 28.4393 1.18431 28.093 1.16636C27.7465 1.14886 27.4722 1.42253 27.4568 1.76365C27.2084 11.3031 25.0991 24.4336 17.5148 30.6741C16.6227 31.408 15.4286 32.1504 14.1307 32.7618ZM12.6749 33.3371C12.8545 32.8116 12.988 32.2632 13.076 31.6899C13.3173 30.3233 13.7158 28.7848 13.5555 27.3932C13.3507 25.8706 12.7144 24.8979 11.8179 24.384C10.3833 23.5622 8.441 23.8441 6.81376 24.7216C5.1334 25.588 3.70453 27.0577 3.48802 28.799C3.33222 29.9103 3.66741 31.0991 4.72164 32.2767C6.03413 33.732 7.80851 34.1641 9.61625 34.015C10.6606 33.9547 11.6943 33.7036 12.6749 33.3371Z" fill="var(--fill-0, black)"/>
<path fill-rule="evenodd" clip-rule="evenodd" d="M28.1918 1.41322C28.326 1.70002 28.4162 2.06422 28.5062 2.42886C28.6965 3.14002 28.827 3.85206 29.0409 4.31236C30.3018 7.11397 31.8483 10.4586 33.9283 12.7595C34.1437 13.0079 34.5439 13.0356 34.7938 12.8048C35.0434 12.5745 35.0823 12.1923 34.8223 11.9178C32.8575 9.72803 31.4117 6.51908 30.16 3.80596C29.9576 3.32532 29.7941 2.46302 29.6101 1.74081C29.431 1.11462 29.2068 0.567541 28.8699 0.21909C28.6923 0.00879868 28.2409 -0.137981 27.6907 0.203192C26.9332 0.699957 25.5078 2.47698 25.3555 2.64058C23.8182 4.3013 22.4121 5.73121 20.0291 5.9516C19.7071 5.99561 19.4709 6.30699 19.4683 6.62555C19.5102 6.97025 19.8367 7.23246 20.159 7.188C22.8613 6.92847 24.561 5.40009 26.2955 3.4966C26.3749 3.35685 27.2185 2.28983 27.9483 1.63244C28.0429 1.57056 28.098 1.47376 28.1918 1.41322Z" fill="var(--fill-0, black)"/>
</g>
</svg>
