<svg width="35" height="54" viewBox="0 0 35 54" fill="none" xmlns="http://www.w3.org/2000/svg">
<path fill-rule="evenodd" clip-rule="evenodd" d="M12.4165 23.6067C12.6045 23.8182 12.839 24.0029 13.0732 24.1872C14.2537 25.2293 15.6073 26.4575 17.1031 27.0859C19.0829 27.8995 20.6769 27.7493 21.932 27.0289C23.6978 26.0137 24.7583 23.7076 24.8352 21.3194C24.9215 18.9473 24.0921 16.5025 22.3458 15.1379C21.1621 14.1954 19.5224 13.7442 17.4124 14.1802C15.0174 14.6611 13.4145 16.2651 12.4086 18.3489C12.0082 19.1437 11.7531 19.973 11.5289 20.8545C10.9452 20.1873 10.3571 19.5128 9.76279 18.8276C7.90237 16.5367 6.24648 13.9608 4.88844 11.3613C3.04675 7.94808 1.85245 4.36474 1.33001 0.548748C1.25424 0.21148 0.920076 -0.0358388 0.569837 0.00426665C0.219872 0.04483 -0.0266952 0.363838 0.0023164 0.727328C0.550127 4.69089 1.77213 8.42595 3.69167 11.9701C5.14001 14.6167 6.7946 17.2947 8.74506 19.6322C9.56572 20.5933 10.3746 21.5348 11.2232 22.4382C10.9545 24.3985 11.009 26.3785 11.2567 27.9491C13.0816 38.3618 24.2016 47.5258 33.0296 52.938C33.3316 53.1313 33.7207 53.0511 33.9158 52.75C34.1106 52.4484 34.0036 52.0585 33.7016 51.8652C25.1622 46.6238 14.3207 37.8245 12.5662 27.7398C12.36 26.5538 12.3019 25.0923 12.4165 23.6067ZM12.6453 21.9984C13.0301 22.436 13.4594 22.8442 13.935 23.2247C15.052 24.1601 16.2442 25.3268 17.5914 25.9152C19.0806 26.5325 20.293 26.4736 21.2227 25.94C22.7101 25.0858 23.4567 23.1957 23.4995 21.2747C23.5799 19.3119 22.9823 17.2574 21.5119 16.1471C20.5825 15.4228 19.3294 15.098 17.715 15.4239C15.7151 15.8353 14.4064 17.1992 13.6086 18.8989C13.1242 19.8671 12.8186 20.9263 12.6453 21.9984Z" fill="#CFCFD2"/>
<path fill-rule="evenodd" clip-rule="evenodd" d="M33.6405 52.7087C33.3107 52.6782 32.9331 52.5675 32.5554 52.4564C31.811 52.2529 31.0966 51.9953 30.5679 51.945C27.3714 51.6018 23.5339 51.2292 20.3694 51.884C20.0325 51.9466 19.8008 52.2909 19.8814 52.6364C19.9618 52.9814 20.289 53.2174 20.6727 53.1286C23.6767 52.5186 27.3389 52.9102 30.4503 53.215C30.9915 53.2863 31.8594 53.5933 32.6106 53.8083C33.2721 53.9771 33.8849 54.0638 34.3754 53.9451C34.6582 53.8964 35.0246 53.5688 34.9987 52.8959C34.9384 51.9553 34.0597 49.7421 33.9897 49.5194C33.2744 47.2671 32.7012 45.2538 33.7312 43.0009C33.8575 42.6889 33.6965 42.3133 33.4084 42.1433C33.0736 41.9996 32.6668 42.1545 32.5407 42.4669C31.3814 45.0268 31.8926 47.3551 32.7266 49.9121C32.8126 50.0568 33.3465 51.3747 33.567 52.375C33.5744 52.4924 33.6339 52.5927 33.6405 52.7087Z" fill="#CFCFD2"/>
</svg>
