<svg preserveAspectRatio="none" width="100%" height="100%" overflow="visible" style="display: block;" viewBox="0 0 40 39.9966" fill="none" xmlns="http://www.w3.org/2000/svg">
<g id="Group">
<path id="Vector" d="M33.9597 0H6.04031C2.70425 0 0 2.70425 0 6.04013V33.9566C0 37.2925 2.70425 39.9966 6.04031 39.9966H33.9597C37.2958 39.9966 40 37.2923 40 33.9566V6.04031C40 2.70442 37.2956 0 33.9597 0Z" fill="var(--fill-0, white)"/>
<path id="Vector_2" opacity="0.554" d="M29.4318 1.7099H10.568C5.57461 1.7099 1.55467 5.76253 1.55467 10.7964V29.2004C1.71636 33.1298 2.33813 30.6456 3.52141 26.2941C4.89685 21.2367 9.37585 16.8166 14.8308 13.5039C18.9942 10.9755 23.6543 9.36087 32.1375 9.20718C36.9482 9.1202 36.5237 2.96347 29.4318 1.7099Z" fill="url(#paint0_linear_0_28)"/>
<path id="Vector_3" d="M8.99271 7.26767C11.5109 5.0143 14.4635 3.42882 18.9793 4.24854V18.764C18.7857 19.4606 18.2052 19.6155 17.702 19.2285L8.99271 7.26767ZM27.0154 12.5511C29.0385 13.8147 31.3026 16.3404 31.9441 20.0599L22.2197 21.6343C21.6588 21.4211 21.2371 21.0691 21.2909 20.2408L27.0154 12.5511ZM22.5102 25.0019C21.8828 25.1428 21.5511 25.5198 21.6973 26.2793L26.6158 34.6055C28.8029 33.6019 30.986 31.2595 31.9739 27.7888L22.5102 25.0019ZM17.4588 26.163C18.1093 26.0788 18.717 26.0662 18.9103 26.7436L19.2007 36.0335C16.0052 36.2699 13.3405 35.4449 11.5366 32.8981L17.4588 26.163ZM16.1814 21.8665C16.6461 22.4249 16.9068 23.0125 16.2977 23.7245L7.35618 26.8599C6.30208 23.9493 6.39859 21.216 7.35618 18.6152L16.1814 21.8665Z" fill="var(--fill-0, #121212)"/>
</g>
<defs>
<linearGradient id="paint0_linear_0_28" x1="10.1806" y1="-5.88695" x2="15.3853" y2="9.28414" gradientUnits="userSpaceOnUse">
<stop stop-color="white"/>
<stop offset="1" stop-color="white" stop-opacity="0"/>
</linearGradient>
</defs>
</svg>
