<svg xmlns="http://www.w3.org/2000/svg" width="40" height="40" viewBox="0 0 40 40" fill="none">
<path d="M14.3801 21.1227H13.6151C11.1423 21.1227 9.9058 21.1227 9.37877 20.3073C8.85173 19.4922 9.3539 18.3563 10.3582 16.0847L13.3776 9.25538C14.2908 7.19 14.7474 6.1573 15.6331 5.57865C16.5189 5 17.643 5 19.8915 5H23.3738C26.1052 5 27.4708 5 27.9858 5.89225C28.501 6.7845 27.8235 7.97647 26.4683 10.3604L24.6818 13.5031C24.0082 14.6882 23.6713 15.2808 23.676 15.7659C23.6822 16.3963 24.0173 16.977 24.5588 17.295C24.9755 17.5398 25.6543 17.5398 27.0122 17.5398C28.7287 17.5398 29.587 17.5398 30.034 17.837C30.6147 18.223 30.9187 18.9137 30.8122 19.6053C30.7302 20.1377 30.1528 20.776 28.9982 22.0528L19.773 32.2538C17.961 34.2575 17.055 35.2593 16.4466 34.9423C15.8382 34.6252 16.1304 33.3037 16.7147 30.6603L17.8593 25.4827C18.3042 23.47 18.5267 22.4637 17.9917 21.7932C17.4567 21.1227 16.4311 21.1227 14.3801 21.1227Z" stroke="#7556FD" stroke-width="2.5" stroke-linejoin="round"/>
</svg>