<svg width="40" height="16" viewBox="0 0 40 16" fill="none" xmlns="http://www.w3.org/2000/svg">
<g clip-path="url(#clip0_1191_102)">
<path d="M35.2911 0.978826C35.3913 0.971942 35.4803 0.951843 35.5587 0.918389C35.6366 0.885348 35.6993 0.83441 35.7453 0.764612C35.7921 0.695502 35.8153 0.598582 35.8153 0.474955C35.8153 0.370464 35.794 0.286898 35.7531 0.224534C35.7128 0.164015 35.6572 0.114693 35.5915 0.0813573C35.5202 0.0464878 35.4434 0.0237221 35.3642 0.0140369C35.3274 0.00853007 35.2908 0.00508833 35.2546 0.00219727H34.4519V0.989289H34.9723C35.0848 0.989289 35.1909 0.985985 35.2911 0.978826ZM33.4076 2.79166C33.6103 2.99665 33.8499 3.15731 34.1261 3.27433C34.402 3.39121 34.7013 3.44931 35.0233 3.44931C35.3415 3.44931 35.6367 3.39107 35.9104 3.27433C36.179 3.16092 36.4219 2.99689 36.6253 2.79166C36.8278 2.58694 36.9868 2.34478 37.1019 2.066C37.2164 1.78681 37.2743 1.48297 37.2743 1.1538C37.2743 0.834823 37.2164 0.536769 37.1019 0.26019C37.0644 0.171707 37.0214 0.0855479 36.9732 0.00219727L36.1932 0.00219727C36.2728 0.134085 36.3137 0.298187 36.3137 0.496156C36.3137 0.777415 36.2332 0.98392 36.0716 1.11443C35.9104 1.24563 35.7105 1.32328 35.4706 1.34723L36.3871 2.72723H35.8516L34.9798 1.38289H34.4521V2.72723H33.9541V0.00219727H33.0597C33.0115 0.0855863 32.9686 0.171793 32.9313 0.260328C32.8167 0.536768 32.759 0.834823 32.759 1.15394C32.759 1.48325 32.8166 1.78708 32.9313 2.06614C33.0459 2.34478 33.2049 2.58694 33.4076 2.79166ZM14.0938 5.35039C13.3991 5.35039 13.0311 5.87973 13.0233 6.4216H15.2564C15.2564 5.78281 14.8421 5.35039 14.0938 5.35039ZM37.5012 0.00219727C37.518 0.0359263 37.5366 0.068141 37.5523 0.102834C37.6986 0.427183 37.7723 0.777553 37.7723 1.1538C37.7723 1.54079 37.6988 1.89667 37.5523 2.22363C37.4059 2.54922 37.2083 2.8331 36.9586 3.07375C36.7086 3.31507 36.4123 3.5059 36.0866 3.6353C35.7544 3.7687 35.4001 3.83561 35.0231 3.83561C34.6471 3.83561 34.2915 3.76884 33.9573 3.6353C33.6292 3.50613 33.3302 3.31533 33.0775 3.07375C32.8259 2.83296 32.6269 2.54909 32.4806 2.22363C32.334 1.89667 32.2603 1.54079 32.2603 1.1538C32.2603 0.777553 32.3338 0.427183 32.4806 0.102834C32.4963 0.068141 32.515 0.0359263 32.5318 0.00219727H0L3.84627 15.9978C11.9217 10.9311 19.6828 15.8002 19.9949 15.9859H19.9958C19.9965 15.9854 19.9973 15.9849 19.9982 15.9845H20.0021C20.0027 15.985 20.0038 15.9854 20.0044 15.9859H20.0056C20.3172 15.8002 28.0788 10.9311 36.154 15.9978L40 0.00219727H37.5012ZM10.5694 9.71328H5.312V4.37087H7.67561V8.25962H10.5694V9.71328ZM17.6406 7.4968H13.0274C13.0274 8.19216 13.6308 8.71669 14.435 8.71669C14.9132 8.71669 15.3488 8.56236 15.6566 8.14481H17.4963C16.895 9.49273 15.7287 9.876 14.1387 9.876C12.0708 9.876 10.6088 8.78359 10.6088 7.05322C10.6088 5.20515 12.0489 4.23017 14.1387 4.23017C16.4766 4.23017 17.6488 5.70819 17.6488 7.13087C17.6487 7.24954 17.6581 7.36807 17.6406 7.4968ZM21.92 9.72181H19.928L16.954 4.36646H19.6379L21.3445 7.6218L21.3915 7.71996L21.4343 7.6218L23.0304 4.36633H24.642L21.92 9.72181ZM27.1727 9.71135H24.8929V4.35641H27.1727V9.71135ZM28.8854 5.02755L28.1986 5.75638H27.913L28.2278 4.96175H27.5986V3.9021H28.8854V5.02755ZM31.8773 9.86389C29.4412 9.86389 28.9978 8.49077 28.9978 8.15059H30.7619C30.7619 8.35048 31.0394 8.59017 31.2737 8.68764C31.4664 8.76818 31.6812 8.78401 31.8821 8.78401C32.3789 8.78401 32.7864 8.66644 32.7864 8.38504C32.7864 8.04238 32.3691 7.96639 31.9088 7.90196C30.6562 7.72574 28.9006 7.52047 28.9006 6.15342C28.9006 4.87832 30.3277 4.22934 31.8426 4.22934C34.2679 4.22934 34.9108 5.5401 34.9108 5.91965H33.118C33.118 5.80635 33.0295 5.58883 32.7851 5.46438C32.6038 5.372 32.3372 5.29725 32.0796 5.29725C31.4097 5.29725 31.0328 5.43327 31.0328 5.7327C31.0328 5.97734 31.3726 6.09862 31.8604 6.18026C33.1337 6.39351 35.0889 6.4673 35.0889 7.97905C35.0888 8.74697 34.4072 9.86389 31.8773 9.86389Z" fill="#A8112E"/>
</g>
<defs>
<clipPath id="clip0_1191_102">
<rect width="40" height="16" fill="white"/>
</clipPath>
</defs>
</svg>
