<svg width="37" height="40" viewBox="0 0 37 40" fill="none" xmlns="http://www.w3.org/2000/svg">
<g clip-path="url(#clip0_1191_56)">
<path d="M13.221 1.256C7.19512 1.70892 2.07241 2.12545 1.83155 2.17423C1.15625 2.29656 0.541921 2.76187 0.253049 3.37428L0 3.91314L0.0243902 16.756L0.0602134 29.5988L0.445884 30.3947C0.66311 30.8353 2.13338 32.8924 3.73628 35.0099C6.90625 39.1845 7.13491 39.4176 8.33994 39.5399C8.68979 39.5763 11.3171 39.454 14.1616 39.2829C17.0183 39.0994 21.5976 38.8175 24.346 38.6588C36.0846 37.9349 35.4817 37.9961 36.1562 37.4085C37 36.6985 36.9398 37.8614 36.9756 22.2522C37 9.01761 36.9878 8.14893 36.795 7.74478C36.5663 7.29186 36.1562 6.97365 30.8049 3.15363C27.2256 0.607198 26.9726 0.472483 25.3689 0.447708C24.7066 0.423707 19.2348 0.79069 13.221 1.256ZM26.7675 2.93297C27.2736 3.16524 30.9741 5.78522 31.516 6.28769C31.6608 6.43479 31.7088 6.55712 31.6364 6.63067C31.468 6.77778 8.56784 8.16132 7.90549 8.06299C7.60442 8.01421 7.15854 7.83072 6.90549 7.65884C5.85671 6.93649 3.25381 4.76943 3.25381 4.61072C3.25381 4.19418 3.16921 4.19418 13.378 3.44783C15.3308 3.31312 18.5366 3.06846 20.4893 2.90897C24.7188 2.56599 25.9848 2.57838 26.7675 2.93297ZM34.0473 9.63002C34.2157 9.80113 34.3605 10.1317 34.4085 10.4499C34.4444 10.7441 34.4688 16.2287 34.4444 22.6192C34.4085 33.5884 34.3963 34.2744 34.1913 34.5926C34.0709 34.7885 33.83 34.9967 33.6486 35.0579C33.1433 35.2662 9.1471 36.6497 8.6532 36.5026C8.42454 36.4414 8.11052 36.2456 7.94207 36.0745L7.65244 35.7563L7.61662 23.93C7.59223 15.6295 7.61662 11.9566 7.71342 11.626C7.78582 11.3813 7.96646 11.0871 8.12348 10.9896C8.3407 10.8425 9.76296 10.7201 14.6562 10.4267C18.0915 10.2308 23.4062 9.90023 26.4558 9.71673C33.7096 9.26304 33.686 9.26304 34.0473 9.63002Z" fill="black"/>
<path d="M27.599 13.6823C26.2972 13.7682 25.1402 13.8906 25.0076 13.9641C24.6097 14.1724 24.3688 14.5154 24.3208 14.9071C24.285 15.3113 24.4054 15.36 25.7065 15.5195L26.2728 15.5931V20.8207C26.2728 23.9299 26.2248 25.9871 26.1646 25.9259C26.1044 25.8523 24.3932 23.2084 22.3559 20.0495C20.3193 16.8791 18.6318 14.2707 18.6074 14.2467C18.583 14.2219 17.2576 14.2955 15.6669 14.4062C13.7141 14.5409 12.6417 14.6632 12.4245 14.7856C12.0746 14.9691 11.689 15.6179 11.689 16.0468C11.689 16.3038 12.147 16.4385 13.1112 16.4385H13.6173V31.4724L12.798 31.7295C12.1592 31.9254 11.942 32.0477 11.8338 32.2923C11.6409 32.7089 11.6531 33.0883 11.846 33.0883C11.9184 33.0883 13.2804 33.0023 14.8467 32.9048C17.9443 32.7213 18.2934 32.6353 18.6188 31.9865C18.7156 31.7906 18.7995 31.5824 18.7995 31.5212C18.7995 31.4724 18.378 31.3253 17.8711 31.203C17.3528 31.0807 16.8345 30.9584 16.7263 30.9336C16.5213 30.8724 16.5091 30.493 16.5091 25.2283V19.5842L20.173 25.4242C24.0175 31.5452 24.4999 32.2436 25.0906 32.5494C25.8262 32.9412 27.6943 32.6717 28.6341 32.0477L28.9237 31.8642L28.9481 23.515L28.9839 15.1533L29.6227 15.031C30.3818 14.8839 30.7316 14.5293 30.7316 13.9169C30.7316 13.5251 30.7073 13.5003 30.346 13.5127C30.1303 13.5228 28.8887 13.5964 27.599 13.6823Z" fill="black"/>
</g>
<defs>
<clipPath id="clip0_1191_56">
<rect width="37" height="40" fill="white"/>
</clipPath>
</defs>
</svg>
