<svg width="35" height="40" viewBox="0 0 35 40" fill="none" xmlns="http://www.w3.org/2000/svg">
<g clip-path="url(#clip0_1191_47)">
<path d="M30.5927 7.85477C30.5652 7.65477 30.3904 7.54409 30.2459 7.5319C30.1016 7.51984 27.0493 7.29313 27.0493 7.29313C27.0493 7.29313 24.9294 5.18422 24.6967 4.9508C24.4639 4.71751 24.0092 4.78847 23.8328 4.84053C23.8068 4.8482 23.3696 4.9834 22.6464 5.20765C21.9383 3.16573 20.6885 1.28929 18.4899 1.28929C18.4292 1.28929 18.3667 1.29176 18.3043 1.29532C17.679 0.46669 16.9044 0.106689 16.2354 0.106689C11.1137 0.106689 8.66683 6.52244 7.89964 9.78272C5.90949 10.4007 4.49568 10.84 4.3151 10.8968C3.20423 11.246 3.1691 11.2811 3.02323 12.33C2.91346 13.1241 0.00683594 35.6486 0.00683594 35.6486L22.6559 39.9009L34.9279 37.2407C34.9279 37.2407 30.6198 8.05477 30.5927 7.85477ZM21.3946 5.59559L19.4782 6.18998C19.4788 6.05464 19.4795 5.92148 19.4795 5.77587C19.4795 4.50683 19.3037 3.48505 19.0217 2.67505C20.1546 2.81751 20.909 4.10916 21.3946 5.59559ZM17.6164 2.92669C17.9313 3.71751 18.1361 4.85244 18.1361 6.38395C18.1361 6.46231 18.1354 6.53395 18.1348 6.60642C16.8884 6.99327 15.5341 7.41327 14.1767 7.83464C14.9389 4.88724 16.3674 3.46368 17.6164 2.92669ZM16.0947 1.48326C16.3158 1.48326 16.5384 1.55847 16.7516 1.70546C15.1102 2.47943 13.3508 4.42874 12.6078 8.32149L9.47913 9.29244C10.3494 6.32327 12.416 1.48326 16.0947 1.48326Z" fill="#95BF46"/>
<path d="M30.2461 7.53194C30.1019 7.51988 27.0496 7.29317 27.0496 7.29317C27.0496 7.29317 24.9297 5.18427 24.697 4.95084C24.6099 4.86399 24.4925 4.81947 24.3697 4.80029L22.6572 39.9007L34.9281 37.2407C34.9281 37.2407 30.62 8.05481 30.593 7.85481C30.5655 7.65481 30.3906 7.54413 30.2461 7.53194Z" fill="#5E8E3E"/>
<path d="M18.4898 14.3267L16.9767 18.8371C16.9767 18.8371 15.6509 18.1281 14.0257 18.1281C11.6432 18.1281 11.5233 19.6263 11.5233 20.0039C11.5233 22.0639 16.8822 22.8532 16.8822 27.6784C16.8822 31.4747 14.4793 33.9192 11.2394 33.9192C7.35152 33.9192 5.36328 31.4945 5.36328 31.4945L6.40429 28.048C6.40429 28.048 8.44803 29.8062 10.1726 29.8062C11.2994 29.8062 11.7578 28.9171 11.7578 28.2675C11.7578 25.5804 7.36136 25.4606 7.36136 21.0451C7.36136 17.3288 10.0233 13.7325 15.3966 13.7325C17.467 13.7325 18.4898 14.3267 18.4898 14.3267Z" fill="white"/>
</g>
<defs>
<clipPath id="clip0_1191_47">
<rect width="35" height="40" fill="white"/>
</clipPath>
</defs>
</svg>
