<svg width="39" height="40" viewBox="0 0 39 40" fill="none" xmlns="http://www.w3.org/2000/svg">
<g clip-path="url(#clip0_1191_80)">
<path fill-rule="evenodd" clip-rule="evenodd" d="M14.2992 0C12.1433 0.00163099 10.3985 1.79246 10.4001 3.99919C10.3985 6.20591 12.1449 7.99674 14.3007 7.99837H18.2014V4.00082C18.203 1.79409 16.4566 0.00326198 14.2992 0C14.3007 0 14.3007 0 14.2992 0ZM14.2992 10.6667H3.90064C1.74477 10.6683 -0.00158904 12.4591 4.35456e-06 14.6659C-0.00318244 16.8726 1.74318 18.6634 3.89905 18.6667H14.2992C16.455 18.665 18.2014 16.8742 18.1998 14.6675C18.2014 12.4591 16.455 10.6683 14.2992 10.6667Z" fill="#36C5F0"/>
<path fill-rule="evenodd" clip-rule="evenodd" d="M39.0001 14.6659C39.0017 12.4591 37.2553 10.6683 35.0994 10.6667C32.9436 10.6683 31.1972 12.4591 31.1988 14.6659V18.6667H35.0994C37.2553 18.665 39.0017 16.8742 39.0001 14.6659ZM28.6 14.6659V3.99919C28.6016 1.79409 26.8568 0.00326198 24.7009 0C22.5451 0.00163099 20.7987 1.79246 20.8003 3.99919V14.6659C20.7971 16.8726 22.5435 18.6634 24.6993 18.6667C26.8552 18.665 28.6016 16.8742 28.6 14.6659Z" fill="#2EB67D"/>
<path fill-rule="evenodd" clip-rule="evenodd" d="M24.6995 40C26.8553 39.9984 28.6017 38.2076 28.6001 36.0008C28.6017 33.7941 26.8553 32.0033 24.6995 32.0017H20.7988V36.0008C20.7972 38.2059 22.5436 39.9968 24.6995 40ZM24.6995 29.3317H35.0996C37.2554 29.3301 39.0018 27.5393 39.0002 25.3325C39.0034 23.1258 37.257 21.335 35.1012 21.3317H24.7011C22.5452 21.3334 20.7988 23.1242 20.8004 25.3309C20.7988 27.5393 22.5436 29.3301 24.6995 29.3317Z" fill="#ECB22E"/>
<path fill-rule="evenodd" clip-rule="evenodd" d="M1.08951e-06 25.3325C-0.00159231 27.5392 1.74477 29.3301 3.90064 29.3317C6.05651 29.3301 7.80287 27.5392 7.80128 25.3325V21.3333H3.90064C1.74477 21.3349 -0.00159231 23.1258 1.08951e-06 25.3325ZM10.4001 25.3325V35.9992C10.3969 38.2059 12.1433 39.9967 14.2992 40C16.455 39.9984 18.2014 38.2075 18.1998 36.0008V25.3358C18.203 23.129 16.4566 21.3382 14.3007 21.3349C12.1433 21.3349 10.3985 23.1258 10.4001 25.3325Z" fill="#E01E5A"/>
</g>
<defs>
<clipPath id="clip0_1191_80">
<rect width="39" height="40" fill="white"/>
</clipPath>
</defs>
</svg>
