<svg width="40" height="40" viewBox="0 0 40 40" fill="none" xmlns="http://www.w3.org/2000/svg">
<g clip-path="url(#clip0_1191_68)">
<path d="M8.6059 0H31.3943C37.0088 0 39.8161 2.83332 39.8161 8.49997V31.5C39.8161 37.1667 37.0088 40 31.3943 40H8.6059C2.99135 40 0.184082 37.1667 0.184082 31.5V8.49997C0.184082 2.83332 2.99135 0 8.6059 0Z" fill="#0377FC"/>
<path d="M33.1627 20.77L29.908 17.5275L24.9663 12.5L19.9876 17.4675L15.0088 12.5L10.0672 17.525L6.83219 20.7725C6.38113 21.2302 6.12793 21.8495 6.12793 22.495C6.12793 23.1405 6.38113 23.7598 6.83219 24.2175L10.0672 27.5L15.0261 22.5125L19.9875 27.58L24.9466 22.5125L29.908 27.5599L33.1628 24.295C33.6182 23.8234 33.8731 23.191 33.8731 22.5324C33.8731 21.8739 33.6182 21.2415 33.1628 20.7699L33.1627 20.77Z" fill="white"/>
<path d="M15.2605 11.6826L20.515 16.9859L10.006 27.5924L4.75146 22.2891L15.2605 11.6826Z" fill="#E0EBFD"/>
<path d="M15.0063 12.5L20.2304 17.21L15.2986 23.135H15.1426L15.0063 12.5Z" fill="#ABC4FB"/>
</g>
<defs>
<clipPath id="clip0_1191_68">
<rect width="40" height="40" fill="white"/>
</clipPath>
</defs>
</svg>
