<svg width="16" height="16" viewBox="0 0 16 16" fill="none" xmlns="http://www.w3.org/2000/svg">
<path d="M7.9987 8.66671C8.36689 8.66671 8.66536 8.36823 8.66536 8.00004C8.66536 7.63185 8.36689 7.33337 7.9987 7.33337C7.63051 7.33337 7.33203 7.63185 7.33203 8.00004C7.33203 8.36823 7.63051 8.66671 7.9987 8.66671Z" stroke="white" stroke-linecap="round" stroke-linejoin="round"/>
<path d="M7.9987 3.99996C8.36689 3.99996 8.66536 3.70148 8.66536 3.33329C8.66536 2.9651 8.36689 2.66663 7.9987 2.66663C7.63051 2.66663 7.33203 2.9651 7.33203 3.33329C7.33203 3.70148 7.63051 3.99996 7.9987 3.99996Z" stroke="white" stroke-linecap="round" stroke-linejoin="round"/>
<path d="M7.9987 13.3333C8.36689 13.3333 8.66536 13.0349 8.66536 12.6667C8.66536 12.2985 8.36689 12 7.9987 12C7.63051 12 7.33203 12.2985 7.33203 12.6667C7.33203 13.0349 7.63051 13.3333 7.9987 13.3333Z" stroke="white" stroke-linecap="round" stroke-linejoin="round"/>
</svg>
