<svg preserveAspectRatio="none" width="100%" height="100%" overflow="visible" style="display: block;" viewBox="0 0 48 48" fill="none" xmlns="http://www.w3.org/2000/svg">
<g id="add-team-02">
<path id="Vector" d="M6 40V35.9408C6 33.4562 7.11854 31.0198 9.37936 29.9892C12.137 28.7322 15.4442 28 19 28C21.4896 28 23.8574 28.359 26 29.0056" stroke="var(--stroke-0, #7556FD)" stroke-width="3" stroke-linecap="round" stroke-linejoin="round"/>
<path id="Vector_2" d="M19 22C22.866 22 26 18.866 26 15C26 11.134 22.866 8 19 8C15.134 8 12 11.134 12 15C12 18.866 15.134 22 19 22Z" stroke="var(--stroke-0, #7556FD)" stroke-width="3" stroke-linecap="round" stroke-linejoin="round"/>
<path id="Vector_3" d="M29 8.28906C31.8914 9.14962 34 11.8282 34 14.9992C34 18.1702 31.8914 20.8488 29 21.7094" stroke="var(--stroke-0, #7556FD)" stroke-width="3" stroke-linecap="round" stroke-linejoin="round"/>
<path id="Vector_4" d="M36 28V40M30 34H42" stroke="var(--stroke-0, #7556FD)" stroke-width="3" stroke-linecap="round" stroke-linejoin="round"/>
</g>
</svg>
