<svg preserveAspectRatio="none" width="100%" height="100%" overflow="visible" style="display: block;" viewBox="0 0 48 48" fill="none" xmlns="http://www.w3.org/2000/svg">
<g id="agreement-02">
<path id="Vector" d="M44 13.5001H38.4222C37.22 13.5001 36.6188 13.5001 36.052 13.3284C35.4852 13.1568 34.985 12.8234 33.9846 12.1565C32.4842 11.1561 30.7724 10.015 29.922 9.7575C29.0718 9.50006 28.17 9.50006 26.3666 9.50006C23.9142 9.50006 22.3334 9.50006 21.2308 9.95678C20.1282 10.4135 19.2611 11.2806 17.5269 13.0148L16.0008 14.5409C15.61 14.9318 15.4145 15.1272 15.2939 15.3201C14.8467 16.0353 14.8963 16.9542 15.4178 17.6171C15.5585 17.7959 15.7738 17.9692 16.2044 18.3157C17.7959 19.5965 20.0904 19.4687 21.5316 18.0189L24 15.5358H26L38 27.6072C39.1046 28.7184 39.1046 30.5198 38 31.631C36.8954 32.7422 35.1046 32.7422 34 31.631L33 30.625M33 30.625L27 24.5894M33 30.625C34.1046 31.7362 34.1046 33.5378 33 34.6488C31.8954 35.76 30.1046 35.76 29 34.6488L27 32.637M27 32.637C28.1046 33.748 28.1046 35.5496 27 36.6608C25.8954 37.7718 24.1046 37.7718 23 36.6608L20 33.6428M27 32.637L23 28.637M20 33.6428L19 32.637M20 33.6428C21.1046 34.754 21.1046 36.5556 20 37.6668C18.8954 38.7778 17.1046 38.7778 16 37.6668L10.3527 31.9018C9.1923 30.7172 8.61208 30.125 7.8687 29.8124C7.12532 29.5 6.29616 29.5 4.63788 29.5H4" stroke="var(--stroke-0, #7556FD)" stroke-width="3" stroke-linecap="round" stroke-linejoin="round"/>
<path id="Vector_2" d="M44 29.5H39" stroke="var(--stroke-0, #7556FD)" stroke-width="3" stroke-linecap="round"/>
<path id="Vector_3" d="M17 13.5001H4" stroke="var(--stroke-0, #7556FD)" stroke-width="3" stroke-linecap="round"/>
</g>
</svg>
