<svg preserveAspectRatio="none" width="100%" height="100%" overflow="visible" style="display: block;" viewBox="0 0 40 40" fill="none" xmlns="http://www.w3.org/2000/svg">
<g id="add-team">
<path id="Vector" d="M20.0007 12.5001C20.0007 15.7217 17.389 18.3334 14.1673 18.3334C10.9457 18.3334 8.33398 15.7217 8.33398 12.5001C8.33398 9.27841 10.9457 6.66675 14.1673 6.66675C17.389 6.66675 20.0007 9.27841 20.0007 12.5001Z" stroke="var(--stroke-0, white)" stroke-width="2.5"/>
<path id="Vector_2" d="M22.5 18.3333C25.7217 18.3333 28.3333 15.7217 28.3333 12.5C28.3333 9.27833 25.7217 6.66667 22.5 6.66667" stroke="var(--stroke-0, white)" stroke-width="2.5" stroke-linecap="round"/>
<path id="Vector_3" d="M21.9055 33.3333H6.42922C4.71977 33.3333 3.33398 32.0541 3.33398 30.4761C3.33398 26.5313 6.79845 23.3333 11.0721 23.3333H17.2625C19.0045 23.3333 20.6122 23.8646 21.9055 24.7613" stroke="var(--stroke-0, white)" stroke-width="2.5" stroke-linecap="round" stroke-linejoin="round"/>
<path id="Vector_4" d="M31.666 23.3333V33.3333M36.666 28.3333H26.666" stroke="var(--stroke-0, white)" stroke-width="2.5" stroke-linecap="round"/>
</g>
</svg>
