<svg preserveAspectRatio="none" width="100%" height="100%" overflow="visible" style="display: block;" viewBox="0 0 34.056 26.9576" fill="none" xmlns="http://www.w3.org/2000/svg">
<g id="Ellipse 4">
<mask id="path-1-inside-1_0_11" fill="white">
<path d="M6.22729e-08 25.4102C3.11599 18.794 7.78424 13.0285 13.6075 8.60435C19.4308 4.1802 26.2366 1.22835 33.446 2.67708e-08L34.056 3.58026C27.4234 4.71034 21.162 7.42604 15.8046 11.4963C10.4472 15.5665 6.15241 20.8707 3.28569 26.9576L6.22729e-08 25.4102Z"/>
</mask>
<path d="M6.22729e-08 25.4102C3.11599 18.794 7.78424 13.0285 13.6075 8.60435C19.4308 4.1802 26.2366 1.22835 33.446 2.67708e-08L34.056 3.58026C27.4234 4.71034 21.162 7.42604 15.8046 11.4963C10.4472 15.5665 6.15241 20.8707 3.28569 26.9576L6.22729e-08 25.4102Z" fill="var(--fill-0, #F0DBCC)" stroke="var(--stroke-0, white)" stroke-width="0.873043" mask="url(#path-1-inside-1_0_11)"/>
</g>
</svg>
