<svg preserveAspectRatio="none" width="100%" height="100%" overflow="visible" style="display: block;" viewBox="0 0 65.0467 33.895" fill="none" xmlns="http://www.w3.org/2000/svg">
<g id="Ellipse 7" opacity="0.2">
<mask id="path-1-inside-1_0_9" fill="white">
<path d="M65.0467 2.5251C62.9817 8.88073 59.5391 14.7021 54.9645 19.5736C50.39 24.4451 44.7964 28.2466 38.583 30.7068C32.3696 33.1669 25.6897 34.225 19.0202 33.8054C12.3507 33.3859 5.85611 31.4991 5.6758e-07 28.2798L3.93666 21.1188C8.73867 23.7587 14.0643 25.3058 19.5333 25.6499C25.0022 25.9939 30.4797 25.1263 35.5747 23.109C40.6697 21.0917 45.2564 17.9744 49.0076 13.9798C52.7587 9.98514 55.5817 5.21162 57.275 7.93207e-07L65.0467 2.5251Z"/>
</mask>
<path d="M65.0467 2.5251C62.9817 8.88073 59.5391 14.7021 54.9645 19.5736C50.39 24.4451 44.7964 28.2466 38.583 30.7068C32.3696 33.1669 25.6897 34.225 19.0202 33.8054C12.3507 33.3859 5.85611 31.4991 5.6758e-07 28.2798L3.93666 21.1188C8.73867 23.7587 14.0643 25.3058 19.5333 25.6499C25.0022 25.9939 30.4797 25.1263 35.5747 23.109C40.6697 21.0917 45.2564 17.9744 49.0076 13.9798C52.7587 9.98514 55.5817 5.21162 57.275 7.93207e-07L65.0467 2.5251Z" fill="var(--fill-0, #7556FD)" stroke="var(--stroke-0, white)" stroke-width="0.873043" mask="url(#path-1-inside-1_0_9)"/>
</g>
</svg>
