<svg preserveAspectRatio="none" width="100%" height="100%" overflow="visible" style="display: block;" viewBox="0 0 45.3982 59.396" fill="none" xmlns="http://www.w3.org/2000/svg">
<g id="Ellipse 6" opacity="0.2">
<mask id="path-1-inside-1_0_17" fill="white">
<path d="M5.41368e-07 0C7.16156 8.54007e-08 14.2215 1.69428 20.6031 4.94441C26.9847 8.19454 32.5068 12.9083 36.7183 18.7006C40.9299 24.4929 43.7113 31.1994 44.8355 38.2722C45.9596 45.345 45.3945 52.5834 43.1863 59.396L35.4128 56.8764C37.2235 51.2901 37.6869 45.3546 36.7651 39.5549C35.8433 33.7552 33.5625 28.2559 30.109 23.5062C26.6556 18.7565 22.1274 14.8912 16.8945 12.2261C11.6616 9.56099 5.87248 8.17168 4.43922e-07 8.17168L5.41368e-07 0Z"/>
</mask>
<path d="M5.41368e-07 0C7.16156 8.54007e-08 14.2215 1.69428 20.6031 4.94441C26.9847 8.19454 32.5068 12.9083 36.7183 18.7006C40.9299 24.4929 43.7113 31.1994 44.8355 38.2722C45.9596 45.345 45.3945 52.5834 43.1863 59.396L35.4128 56.8764C37.2235 51.2901 37.6869 45.3546 36.7651 39.5549C35.8433 33.7552 33.5625 28.2559 30.109 23.5062C26.6556 18.7565 22.1274 14.8912 16.8945 12.2261C11.6616 9.56099 5.87248 8.17168 4.43922e-07 8.17168L5.41368e-07 0Z" fill="var(--fill-0, #7556FD)" stroke="var(--stroke-0, white)" stroke-width="0.873043" mask="url(#path-1-inside-1_0_17)"/>
</g>
</svg>
