<svg preserveAspectRatio="none" width="100%" height="100%" overflow="visible" style="display: block;" viewBox="0 0 25.2636 59.1195" fill="none" xmlns="http://www.w3.org/2000/svg">
<g id="Ellipse 3">
<mask id="path-1-inside-1_0_86" fill="white">
<path d="M23.5128 59.1195C13.3962 53.553 5.78091 44.3407 2.21679 33.3577C-1.34734 22.3746 -0.592432 10.4461 4.32786 7.11304e-08L7.61349 1.54758C3.08682 11.158 2.39231 22.1322 5.6713 32.2366C8.9503 42.3411 15.9564 50.8163 25.2636 55.9375L23.5128 59.1195Z"/>
</mask>
<path d="M23.5128 59.1195C13.3962 53.553 5.78091 44.3407 2.21679 33.3577C-1.34734 22.3746 -0.592432 10.4461 4.32786 7.11304e-08L7.61349 1.54758C3.08682 11.158 2.39231 22.1322 5.6713 32.2366C8.9503 42.3411 15.9564 50.8163 25.2636 55.9375L23.5128 59.1195Z" fill="var(--fill-0, #D3870D)" stroke="var(--stroke-0, white)" stroke-width="0.873043" mask="url(#path-1-inside-1_0_86)"/>
</g>
</svg>
