<svg preserveAspectRatio="none" width="100%" height="100%" overflow="visible" style="display: block;" viewBox="0 0 34.8185 28.8919" fill="none" xmlns="http://www.w3.org/2000/svg">
<g id="Ellipse 9" opacity="0.2">
<mask id="path-1-inside-1_0_15" fill="white">
<path d="M6.22729e-08 25.4102C3.11599 18.794 7.78424 13.0285 13.6075 8.60435C19.4308 4.1802 26.2366 1.22835 33.446 2.67708e-08L34.8185 8.05559C28.9068 9.06284 23.326 11.4834 18.551 15.1112C13.7759 18.739 9.94793 23.4666 7.39282 28.8919L6.22729e-08 25.4102Z"/>
</mask>
<path d="M6.22729e-08 25.4102C3.11599 18.794 7.78424 13.0285 13.6075 8.60435C19.4308 4.1802 26.2366 1.22835 33.446 2.67708e-08L34.8185 8.05559C28.9068 9.06284 23.326 11.4834 18.551 15.1112C13.7759 18.739 9.94793 23.4666 7.39282 28.8919L6.22729e-08 25.4102Z" fill="var(--fill-0, #F8EEE7)" stroke="var(--stroke-0, white)" stroke-width="0.873043" mask="url(#path-1-inside-1_0_15)"/>
</g>
</svg>
