<svg preserveAspectRatio="none" width="100%" height="100%" overflow="visible" style="display: block;" viewBox="0 0 45.3982 59.396" fill="none" xmlns="http://www.w3.org/2000/svg">
<g id="Ellipse 1">
<mask id="path-1-inside-1_0_83" fill="white">
<path d="M5.41368e-07 0C7.16156 8.54007e-08 14.2215 1.69428 20.6031 4.94441C26.9847 8.19454 32.5068 12.9083 36.7183 18.7006C40.9299 24.4929 43.7113 31.1994 44.8355 38.2722C45.9596 45.345 45.3945 52.5834 43.1863 59.396L39.7314 58.2762C41.7629 52.0086 42.2828 45.3493 41.2486 38.8423C40.2144 32.3353 37.6555 26.1654 33.7809 20.8364C29.9063 15.5075 24.8259 11.1708 18.9549 8.18071C13.0838 5.19059 6.58863 3.63186 4.98059e-07 3.63186L5.41368e-07 0Z"/>
</mask>
<path d="M5.41368e-07 0C7.16156 8.54007e-08 14.2215 1.69428 20.6031 4.94441C26.9847 8.19454 32.5068 12.9083 36.7183 18.7006C40.9299 24.4929 43.7113 31.1994 44.8355 38.2722C45.9596 45.345 45.3945 52.5834 43.1863 59.396L39.7314 58.2762C41.7629 52.0086 42.2828 45.3493 41.2486 38.8423C40.2144 32.3353 37.6555 26.1654 33.7809 20.8364C29.9063 15.5075 24.8259 11.1708 18.9549 8.18071C13.0838 5.19059 6.58863 3.63186 4.98059e-07 3.63186L5.41368e-07 0Z" fill="var(--fill-0, #7556FD)" stroke="var(--stroke-0, white)" stroke-width="0.873043" mask="url(#path-1-inside-1_0_83)"/>
</g>
</svg>
