<svg preserveAspectRatio="none" width="100%" height="100%" overflow="visible" style="display: block;" viewBox="0 0 26 26" fill="none" xmlns="http://www.w3.org/2000/svg">
<g id="entypo-social:linkedin-with-circle" clip-path="url(#clip0_0_7)">
<path id="Vector" d="M12.9995 0.519531C6.10693 0.519531 0.519531 6.10693 0.519531 12.9995C0.519531 19.8921 6.10693 25.4795 12.9995 25.4795C19.8921 25.4795 25.4795 19.8921 25.4795 12.9995C25.4795 6.10693 19.8921 0.519531 12.9995 0.519531ZM9.94453 18.1722H7.41733V10.0394H9.94453V18.1722ZM8.66533 9.04103C7.86713 9.04103 7.35103 8.47553 7.35103 7.77613C7.35103 7.06243 7.88273 6.51383 8.69783 6.51383C9.51293 6.51383 10.0121 7.06243 10.0277 7.77613C10.0277 8.47553 9.51293 9.04103 8.66533 9.04103ZM19.1745 18.1722H16.6473V13.6651C16.6473 12.616 16.2807 11.9036 15.3668 11.9036C14.6687 11.9036 14.254 12.3859 14.0707 12.85C14.0031 13.0151 13.9862 13.2491 13.9862 13.4818V18.1709H11.4577V12.6329C11.4577 11.6176 11.4252 10.7687 11.3914 10.0381H13.5871L13.7028 11.1678H13.7535C14.0863 10.6374 14.9014 9.85483 16.2651 9.85483C17.9278 9.85483 19.1745 10.9689 19.1745 13.3635V18.1722Z" fill="var(--fill-0, white)"/>
</g>
<defs>
<clipPath id="clip0_0_7">
<rect width="26" height="26" fill="white"/>
</clipPath>
</defs>
</svg>
