<svg preserveAspectRatio="none" width="100%" height="100%" overflow="visible" style="display: block;" viewBox="0 0 22 22" fill="none" xmlns="http://www.w3.org/2000/svg">
<g id="fluent:document-data-link-16-regular">
<path id="Vector" d="M5.5 4.125C5.5 3.39565 5.78973 2.69618 6.30546 2.18046C6.82118 1.66473 7.52065 1.375 8.25 1.375H13.1808C13.4516 1.37488 13.7199 1.42812 13.9702 1.53169C14.2205 1.63526 14.448 1.78713 14.6396 1.97862L18.6464 5.98538C19.0327 6.37313 19.25 6.897 19.25 7.44425V17.875C19.25 18.6043 18.9603 19.3038 18.4445 19.8195C17.9288 20.3353 17.2293 20.625 16.5 20.625H13.6812C14.0865 20.228 14.4184 19.7625 14.6616 19.25H16.5C16.8647 19.25 17.2144 19.1051 17.4723 18.8473C17.7301 18.5894 17.875 18.2397 17.875 17.875V8.25H14.4375C13.8905 8.25 13.3659 8.0327 12.9791 7.64591C12.5923 7.25911 12.375 6.73451 12.375 6.1875V2.75H8.25C7.88533 2.75 7.53559 2.89487 7.27773 3.15273C7.01987 3.41059 6.875 3.76033 6.875 4.125V12.375H5.5V4.125ZM15.8125 17.875C15.6302 17.875 15.4553 17.8026 15.3264 17.6736C15.1974 17.5447 15.125 17.3698 15.125 17.1875V11.6875C15.125 11.5052 15.1974 11.3303 15.3264 11.2014C15.4553 11.0724 15.6302 11 15.8125 11C15.9948 11 16.1697 11.0724 16.2986 11.2014C16.4276 11.3303 16.5 11.5052 16.5 11.6875V17.1875C16.5 17.3698 16.4276 17.5447 16.2986 17.6736C16.1697 17.8026 15.9948 17.875 15.8125 17.875ZM8.25 8.9375V12.375H9.625V8.9375C9.625 8.75516 9.55257 8.5803 9.42364 8.45136C9.2947 8.32243 9.11984 8.25 8.9375 8.25C8.75516 8.25 8.5803 8.32243 8.45136 8.45136C8.32243 8.5803 8.25 8.75516 8.25 8.9375ZM14.4375 6.875H17.5904L13.75 3.03462V6.1875C13.75 6.36984 13.8224 6.5447 13.9514 6.67364C14.0803 6.80257 14.2552 6.875 14.4375 6.875ZM4.8125 13.75C3.90082 13.75 3.02648 14.1122 2.38182 14.7568C1.73716 15.4015 1.375 16.2758 1.375 17.1875C1.375 18.0992 1.73716 18.9735 2.38182 19.6182C3.02648 20.2628 3.90082 20.625 4.8125 20.625H5.5C5.68234 20.625 5.8572 20.5526 5.98614 20.4236C6.11507 20.2947 6.1875 20.1198 6.1875 19.9375C6.1875 19.7552 6.11507 19.5803 5.98614 19.4514C5.8572 19.3224 5.68234 19.25 5.5 19.25H4.8125C4.26549 19.25 3.74089 19.0327 3.35409 18.6459C2.9673 18.2591 2.75 17.7345 2.75 17.1875C2.75 16.6405 2.9673 16.1159 3.35409 15.7291C3.74089 15.3423 4.26549 15.125 4.8125 15.125H5.5C5.68234 15.125 5.8572 15.0526 5.98614 14.9236C6.11507 14.7947 6.1875 14.6198 6.1875 14.4375C6.1875 14.2552 6.11507 14.0803 5.98614 13.9514C5.8572 13.8224 5.68234 13.75 5.5 13.75H4.8125ZM9.625 13.75C9.44266 13.75 9.2678 13.8224 9.13886 13.9514C9.00993 14.0803 8.9375 14.2552 8.9375 14.4375C8.9375 14.6198 9.00993 14.7947 9.13886 14.9236C9.2678 15.0526 9.44266 15.125 9.625 15.125H10.3125C10.8595 15.125 11.3841 15.3423 11.7709 15.7291C12.1577 16.1159 12.375 16.6405 12.375 17.1875C12.375 17.7345 12.1577 18.2591 11.7709 18.6459C11.3841 19.0327 10.8595 19.25 10.3125 19.25H9.625C9.44266 19.25 9.2678 19.3224 9.13886 19.4514C9.00993 19.5803 8.9375 19.7552 8.9375 19.9375C8.9375 20.1198 9.00993 20.2947 9.13886 20.4236C9.2678 20.5526 9.44266 20.625 9.625 20.625H10.3125C11.2242 20.625 12.0985 20.2628 12.7432 19.6182C13.3878 18.9735 13.75 18.0992 13.75 17.1875C13.75 16.2758 13.3878 15.4015 12.7432 14.7568C12.0985 14.1122 11.2242 13.75 10.3125 13.75H9.625ZM4.125 17.1875C4.125 17.0052 4.19743 16.8303 4.32636 16.7014C4.4553 16.5724 4.63016 16.5 4.8125 16.5H10.3125C10.4948 16.5 10.6697 16.5724 10.7986 16.7014C10.9276 16.8303 11 17.0052 11 17.1875C11 17.3698 10.9276 17.5447 10.7986 17.6736C10.6697 17.8026 10.4948 17.875 10.3125 17.875H4.8125C4.63016 17.875 4.4553 17.8026 4.32636 17.6736C4.19743 17.5447 4.125 17.3698 4.125 17.1875Z" fill="var(--fill-0, #686868)"/>
</g>
</svg>
