<svg preserveAspectRatio="none" width="100%" height="100%" overflow="visible" style="display: block;" viewBox="0 0 27 40" fill="none" xmlns="http://www.w3.org/2000/svg">
<g id="figma-icon (1) 1" clip-path="url(#clip0_0_18)">
<g id="Vector">
</g>
<path id="Vector_2" d="M13.5 20C13.5 16.3182 16.5214 13.3333 20.2487 13.3333C23.9758 13.3333 26.9973 16.3182 26.9973 20C26.9973 23.6819 23.9758 26.6667 20.2487 26.6667C16.5214 26.6667 13.5 23.6819 13.5 20Z" fill="var(--fill-0, #1ABCFE)"/>
<path id="Vector_3" d="M0.00269981 33.3333C0.00269981 29.6515 3.02414 26.6667 6.75135 26.6667H13.5V33.3333C13.5 37.0153 10.4786 40 6.75135 40C3.02414 40 0.00269981 37.0153 0.00269981 33.3333Z" fill="var(--fill-0, #0ACF83)"/>
<path id="Vector_4" d="M13.5 9.15264e-05V13.3333H20.2487C23.9759 13.3333 26.9973 10.3486 26.9973 6.66667C26.9973 2.98474 23.9759 9.15264e-05 20.2487 9.15264e-05H13.5Z" fill="var(--fill-0, #FF7262)"/>
<path id="Vector_5" d="M0.00257795 6.66667C0.00257795 10.3486 3.02402 13.3333 6.75123 13.3333H13.4999V5.10594e-07H6.75123C3.02402 5.10594e-07 0.00257795 2.98483 0.00257795 6.66667Z" fill="var(--fill-0, #F24E1E)"/>
<path id="Vector_6" d="M0.00269981 20C0.00269981 23.6819 3.02414 26.6667 6.75135 26.6667H13.5V13.3333H6.75135C3.02414 13.3333 0.00269981 16.3182 0.00269981 20Z" fill="var(--fill-0, #A259FF)"/>
</g>
<defs>
<clipPath id="clip0_0_18">
<rect width="27" height="40" fill="white"/>
</clipPath>
</defs>
</svg>
