<svg preserveAspectRatio="none" width="100%" height="100%" overflow="visible" style="display: block;" viewBox="0 0 48 48" fill="none" xmlns="http://www.w3.org/2000/svg">
<g id="flow">
<path id="Vector" d="M42 13C42 16.866 38.866 20 35 20C31.134 20 28 16.866 28 13C28 9.134 31.134 6 35 6C38.866 6 42 9.134 42 13Z" stroke="var(--stroke-0, #7556FD)" stroke-width="3"/>
<path id="Vector_2" d="M6 13C6 9.70016 6 8.05026 7.02512 7.02512C8.05026 6 9.70016 6 13 6C16.2998 6 17.9497 6 18.9749 7.02512C20 8.05026 20 9.70016 20 13C20 16.2998 20 17.9497 18.9749 18.9749C17.9497 20 16.2998 20 13 20C9.70016 20 8.05026 20 7.02512 18.9749C6 17.9497 6 16.2998 6 13Z" stroke="var(--stroke-0, #7556FD)" stroke-width="3"/>
<path id="Vector_3" d="M6 35C6 31.7002 6 30.0502 7.02512 29.0252C8.05026 28 9.70016 28 13 28C16.2998 28 17.9497 28 18.9749 29.0252C20 30.0502 20 31.7002 20 35C20 38.2998 20 39.9498 18.9749 40.9748C17.9497 42 16.2998 42 13 42C9.70016 42 8.05026 42 7.02512 40.9748C6 39.9498 6 38.2998 6 35Z" stroke="var(--stroke-0, #7556FD)" stroke-width="3"/>
<path id="Vector_4" d="M28 35C28 31.7002 28 30.0502 29.0252 29.0252C30.0502 28 31.7002 28 35 28C38.2998 28 39.9498 28 40.9748 29.0252C42 30.0502 42 31.7002 42 35C42 38.2998 42 39.9498 40.9748 40.9748C39.9498 42 38.2998 42 35 42C31.7002 42 30.0502 42 29.0252 40.9748C28 39.9498 28 38.2998 28 35Z" stroke="var(--stroke-0, #7556FD)" stroke-width="3"/>
<path id="Vector_5" d="M35 20V28M28 35H20M20 13H28" stroke="var(--stroke-0, #7556FD)" stroke-width="3" stroke-linecap="round" stroke-linejoin="round"/>
</g>
</svg>
