<svg preserveAspectRatio="none" width="100%" height="100%" overflow="visible" style="display: block;" viewBox="0 0 28 28" fill="none" xmlns="http://www.w3.org/2000/svg">
<g id="fluent:task-list-square-sparkle-20-filled" clip-path="url(#clip0_0_18)">
<path id="Vector" d="M12.7244 4.19993C12.6412 4.42196 12.599 4.65723 12.5998 4.89433C12.5998 5.31433 12.7258 5.70773 12.9638 6.04373C13.2018 6.37973 13.5378 6.64713 13.9578 6.78853L15.4446 7.27853C15.6546 7.34853 15.8506 7.46053 16.1026 7.68453C16.2566 7.83853 16.3826 8.02053 16.51 8.34393L16.9916 9.79993H15.3998C15.2142 9.79993 15.0361 9.87368 14.9048 10.005C14.7736 10.1362 14.6998 10.3143 14.6998 10.4999C14.6998 10.6856 14.7736 10.8636 14.9048 10.9949C15.0361 11.1262 15.2142 11.1999 15.3998 11.1999H18.3468C18.2272 11.4855 18.1825 11.7969 18.2168 12.1046C18.2511 12.4122 18.3633 12.7061 18.5428 12.9583C18.7668 13.2663 19.0748 13.4903 19.4528 13.6303L20.5168 13.9803C20.6288 14.0223 20.7408 14.0923 20.8248 14.1777C20.9228 14.2617 20.9788 14.3737 21.0208 14.4857L21.3848 15.6071C21.5248 15.9571 21.7488 16.2525 22.0568 16.4779C22.3648 16.6865 22.726 16.7971 23.1026 16.7985C23.3448 16.7985 23.58 16.7677 23.7998 16.6865V19.5999C23.7998 20.7138 23.3573 21.7821 22.5697 22.5698C21.782 23.3574 20.7137 23.7999 19.5998 23.7999H8.39982C7.28591 23.7999 6.21763 23.3574 5.42997 22.5698C4.64232 21.7821 4.19982 20.7138 4.19982 19.5999V8.39993C4.19982 7.28602 4.64232 6.21774 5.42997 5.43008C6.21763 4.64243 7.28591 4.19993 8.39982 4.19993H12.7244ZM13.0954 15.9557C13.0304 15.8905 12.9532 15.8388 12.8681 15.8035C12.7831 15.7682 12.6919 15.7501 12.5998 15.7501C12.5077 15.7501 12.4166 15.7682 12.3315 15.8035C12.2465 15.8388 12.1692 15.8905 12.1042 15.9557L10.1274 17.9325L9.57162 17.4229C9.43424 17.2978 9.25278 17.2324 9.06715 17.241C8.88153 17.2497 8.70695 17.3317 8.58182 17.4691C8.45669 17.6065 8.39126 17.788 8.39993 17.9736C8.40859 18.1592 8.49064 18.3338 8.62802 18.4589L9.67802 19.4165C9.81088 19.5378 9.98535 19.6033 10.1652 19.5994C10.3451 19.5955 10.5166 19.5225 10.644 19.3955L13.094 16.9455C13.2253 16.8143 13.299 16.6362 13.299 16.4506C13.299 16.265 13.2253 16.087 13.094 15.9557M15.3998 16.7999C15.2142 16.7999 15.0361 16.8737 14.9048 17.005C14.7736 17.1362 14.6998 17.3143 14.6998 17.4999C14.6998 17.6856 14.7736 17.8636 14.9048 17.9949C15.0361 18.1262 15.2142 18.1999 15.3998 18.1999H18.8998C19.0855 18.1999 19.2635 18.1262 19.3948 17.9949C19.5261 17.8636 19.5998 17.6856 19.5998 17.4999C19.5998 17.3143 19.5261 17.1362 19.3948 17.005C19.2635 16.8737 19.0855 16.7999 18.8998 16.7999H15.3998ZM23.0956 16.7999H23.1096L23.1026 16.7985L23.0956 16.7999ZM23.0774 8.39993C23.165 8.3994 23.2505 8.42624 23.322 8.4767C23.3935 8.52715 23.4475 8.59869 23.4764 8.68133L23.8264 9.75373C23.9352 10.0791 24.1182 10.3748 24.3609 10.6173C24.6037 10.8598 24.8995 11.0425 25.225 11.1509L26.296 11.4981L26.317 11.5037C26.3787 11.5257 26.4344 11.5616 26.4798 11.6087C26.5253 11.6557 26.5592 11.7127 26.579 11.775C26.5988 11.8374 26.6039 11.9035 26.5939 11.9681C26.5839 12.0328 26.5591 12.0943 26.5214 12.1477C26.471 12.2191 26.3995 12.2729 26.317 12.3017L25.246 12.6489C24.9205 12.7574 24.6247 12.9401 24.3819 13.1826C24.1392 13.4251 23.9562 13.7207 23.8474 14.0461L23.4988 15.1185C23.4698 15.2012 23.4159 15.2729 23.3444 15.3236C23.2729 15.3743 23.1875 15.4015 23.0998 15.4015C23.0122 15.4015 22.9267 15.3743 22.8553 15.3236C22.7838 15.2729 22.7298 15.2012 22.7008 15.1185L22.3508 14.0461C22.2429 13.7198 22.0605 13.4232 21.8179 13.1797C21.5754 12.9362 21.2795 12.7525 20.9536 12.6433L19.8826 12.2961C19.821 12.2742 19.7653 12.2383 19.7198 12.1912C19.6744 12.1441 19.6404 12.0872 19.6206 12.0248C19.6008 11.9625 19.5957 11.8964 19.6057 11.8317C19.6157 11.7671 19.6405 11.7056 19.6782 11.6521C19.7287 11.5808 19.8001 11.527 19.8826 11.4981L20.9536 11.1509C21.2753 11.0397 21.5669 10.8558 21.8058 10.6134C22.0448 10.3711 22.2246 10.0769 22.3312 9.75373L22.6798 8.67993C22.7089 8.59778 22.7627 8.5267 22.834 8.47653C22.9052 8.42637 22.9903 8.39959 23.0774 8.39993ZM13.0954 8.95433C13.0304 8.88914 12.9532 8.83742 12.8681 8.80213C12.7831 8.76684 12.6919 8.74868 12.5998 8.74868C12.5077 8.74868 12.4166 8.76684 12.3315 8.80213C12.2465 8.83742 12.1692 8.88914 12.1042 8.95433L10.1274 10.9339L9.57162 10.4243C9.43424 10.2992 9.25278 10.2338 9.06715 10.2424C8.88153 10.2511 8.70695 10.3331 8.58182 10.4705C8.45669 10.6079 8.39126 10.7894 8.39993 10.975C8.40859 11.1606 8.49064 11.3352 8.62802 11.4603L9.67802 12.4179C9.81088 12.5392 9.98535 12.6047 10.1652 12.6008C10.3451 12.5969 10.5166 12.5239 10.644 12.3969L13.094 9.94693C13.1592 9.88191 13.2109 9.80466 13.2462 9.71962C13.2815 9.63457 13.2997 9.5434 13.2997 9.45133C13.2997 9.35926 13.2815 9.26809 13.2462 9.18304C13.2109 9.098 13.1592 9.02075 13.094 8.95573M18.8704 -6.89935e-05C18.9931 -0.000745518 19.1129 0.0369518 19.213 0.107745C19.3132 0.178538 19.3887 0.278883 19.429 0.394731L19.9162 1.89553C20.0675 2.35133 20.3233 2.76544 20.6631 3.10479C21.0029 3.44413 21.4174 3.69931 21.8734 3.84993L23.3742 4.33853L23.405 4.34553C23.5196 4.38716 23.6185 4.46303 23.6884 4.56284C23.7584 4.66265 23.7959 4.78156 23.7959 4.90343C23.7959 5.0253 23.7584 5.14421 23.6884 5.24402C23.6185 5.34384 23.5196 5.41971 23.405 5.46133L21.9042 5.94993C21.4485 6.10134 21.0342 6.35677 20.6943 6.69599C20.3543 7.03521 20.098 7.44891 19.9456 7.90433L19.4598 9.40513C19.4293 9.49137 19.3791 9.56936 19.3133 9.63297C19.2476 9.69658 19.168 9.74409 19.0807 9.77176C18.9935 9.79943 18.9011 9.80651 18.8107 9.79245C18.7202 9.7784 18.6343 9.74358 18.5596 9.69073L18.5316 9.66973C18.4453 9.60015 18.3799 9.50811 18.3426 9.40373L17.8554 7.90573C17.7034 7.44902 17.4473 7.03387 17.1074 6.69301C16.7675 6.35215 16.3531 6.0949 15.8968 5.94153L14.396 5.45433C14.2815 5.41271 14.1825 5.33683 14.1126 5.23702C14.0427 5.13721 14.0052 5.0183 14.0052 4.89643C14.0052 4.77456 14.0427 4.65565 14.1126 4.55584C14.1825 4.45603 14.2815 4.38016 14.396 4.33853L15.8968 3.84993C16.3469 3.69447 16.755 3.43723 17.0893 3.09824C17.4237 2.75926 17.6753 2.34767 17.8246 1.89553L18.3118 0.394731C18.3522 0.278656 18.4279 0.178149 18.5284 0.107336C18.6288 0.0365223 18.7475 -0.00103877 18.8704 -6.89935e-05Z" fill="var(--fill-0, white)"/>
</g>
<defs>
<clipPath id="clip0_0_18">
<rect width="28" height="28" fill="white"/>
</clipPath>
</defs>
</svg>
