<svg preserveAspectRatio="none" width="100%" height="100%" overflow="visible" style="display: block;" viewBox="0 0 16 16" fill="none" xmlns="http://www.w3.org/2000/svg">
<g id="fluent:task-list-square-sparkle-24-filled" clip-path="url(#clip0_0_44)">
<path id="Vector" d="M8.032 2C7.8287 2.07115 7.6524 2.20348 7.52731 2.37883C7.40221 2.55418 7.33445 2.76394 7.33333 2.97933C7.33467 3.40267 7.61067 3.83067 8 3.99933L8.93333 4.306C9.278 4.42267 9.60933 4.68333 9.72667 5.03267L9.90533 5.66667H8.83333C8.70073 5.66667 8.57355 5.71935 8.47978 5.81311C8.38601 5.90688 8.33333 6.03406 8.33333 6.16667C8.33333 6.29927 8.38601 6.42645 8.47978 6.52022C8.57355 6.61399 8.70073 6.66667 8.83333 6.66667H10.7213C10.8027 6.68756 10.8867 6.69844 10.9733 6.69933C11.0713 6.70067 11.1687 6.68467 11.262 6.65667C11.3188 6.64586 11.373 6.62461 11.422 6.594L11.4267 6.59267C11.3467 6.726 11.306 6.878 11.3067 7.03267C11.304 7.39267 11.548 7.73133 11.8867 7.85267C12.1373 7.93267 12.558 7.97333 12.6533 8.266C12.8133 8.77267 12.9873 9.366 13.64 9.366C13.7813 9.366 13.8993 9.33667 14 9.28867V11.8333C14 12.408 13.7717 12.9591 13.3654 13.3654C12.9591 13.7717 12.408 14 11.8333 14H4.16667C3.59203 14 3.04093 13.7717 2.6346 13.3654C2.22827 12.9591 2 12.408 2 11.8333V4.16667C2 3.59203 2.22827 3.04093 2.6346 2.6346C3.04093 2.22827 3.59203 2 4.16667 2H8.032ZM7.18667 8.81333C7.09292 8.7197 6.96583 8.66711 6.83333 8.66711C6.70083 8.66711 6.57375 8.7197 6.48 8.81333L5.5 9.79333L5.18667 9.48C5.14089 9.43088 5.08569 9.39147 5.02436 9.36415C4.96303 9.33682 4.89682 9.32212 4.82968 9.32094C4.76255 9.31975 4.69586 9.3321 4.6336 9.35725C4.57134 9.3824 4.51479 9.41983 4.46731 9.46731C4.41983 9.51479 4.3824 9.57134 4.35725 9.6336C4.3321 9.69586 4.31975 9.76255 4.32094 9.82968C4.32212 9.89682 4.33682 9.96303 4.36415 10.0244C4.39147 10.0857 4.43088 10.1409 4.48 10.1867L5.14667 10.8533C5.24042 10.947 5.3675 10.9996 5.5 10.9996C5.6325 10.9996 5.75958 10.947 5.85333 10.8533L7.18667 9.52C7.2803 9.42625 7.33289 9.29917 7.33289 9.16667C7.33289 9.03417 7.2803 8.90708 7.18667 8.81333ZM8.83333 9.33333C8.70073 9.33333 8.57355 9.38601 8.47978 9.47978C8.38601 9.57355 8.33333 9.70073 8.33333 9.83333C8.33333 9.96594 8.38601 10.0931 8.47978 10.1869C8.57355 10.2807 8.70073 10.3333 8.83333 10.3333H11.1667C11.2993 10.3333 11.4265 10.2807 11.5202 10.1869C11.614 10.0931 11.6667 9.96594 11.6667 9.83333C11.6667 9.70073 11.614 9.57355 11.5202 9.47978C11.4265 9.38601 11.2993 9.33333 11.1667 9.33333H8.83333ZM13.656 5.33333C13.6977 5.33308 13.7384 5.34586 13.7725 5.36989C13.8065 5.39391 13.8322 5.42798 13.846 5.46733L14.0127 5.978C14.0645 6.13296 14.1516 6.27373 14.2672 6.38921C14.3828 6.50468 14.5237 6.59168 14.6787 6.64333L15.1887 6.80867L15.1987 6.81133C15.2279 6.8219 15.2544 6.83906 15.2759 6.86148C15.2975 6.88391 15.3136 6.91099 15.323 6.94065C15.3324 6.9703 15.3349 7.00172 15.3302 7.03248C15.3255 7.06323 15.3138 7.09249 15.296 7.118C15.272 7.15197 15.238 7.17761 15.1987 7.19133L14.6887 7.35667C14.5337 7.40832 14.3928 7.49532 14.2772 7.61079C14.1616 7.72627 14.0745 7.86704 14.0227 8.022L13.8567 8.53267C13.8426 8.57174 13.8167 8.60552 13.7827 8.6294C13.7487 8.65327 13.7082 8.66608 13.6667 8.66608C13.6251 8.66608 13.5846 8.65327 13.5506 8.6294C13.5166 8.60552 13.4908 8.57174 13.4767 8.53267L13.31 8.022C13.2586 7.86662 13.1717 7.72536 13.0562 7.6094C12.9408 7.49345 12.7998 7.40601 12.6447 7.354L12.1347 7.18867C12.1054 7.1781 12.079 7.16094 12.0574 7.13852C12.0358 7.11609 12.0197 7.08901 12.0103 7.05935C12.0009 7.0297 11.9984 6.99828 12.0031 6.96752C12.0078 6.93677 12.0195 6.90751 12.0373 6.882C12.0614 6.84803 12.0954 6.82239 12.1347 6.80867L12.6447 6.64333C12.7978 6.59037 12.9367 6.50278 13.0505 6.38738C13.1643 6.27199 13.2499 6.13189 13.3007 5.978L13.4667 5.46667C13.4805 5.42755 13.5062 5.3937 13.5401 5.36981C13.574 5.34592 13.6145 5.33317 13.656 5.33333ZM7.18667 5.14667C7.09292 5.05303 6.96583 5.00044 6.83333 5.00044C6.70083 5.00044 6.57375 5.05303 6.48 5.14667L5.5 6.12667L5.18667 5.81333C5.14089 5.76421 5.08569 5.72481 5.02436 5.69748C4.96303 5.67015 4.89682 5.65546 4.82968 5.65427C4.76255 5.65309 4.69586 5.66544 4.6336 5.69058C4.57134 5.71573 4.51479 5.75316 4.46731 5.80064C4.41983 5.84812 4.3824 5.90468 4.35725 5.96693C4.3321 6.02919 4.31975 6.09588 4.32094 6.16301C4.32212 6.23015 4.33682 6.29636 4.36415 6.35769C4.39147 6.41902 4.43088 6.47423 4.48 6.52L5.14667 7.18667C5.24042 7.2803 5.3675 7.33289 5.5 7.33289C5.6325 7.33289 5.75958 7.2803 5.85333 7.18667L7.18667 5.85333C7.2803 5.75958 7.33289 5.6325 7.33289 5.5C7.33289 5.3675 7.2803 5.24042 7.18667 5.14667ZM10.982 -2.38419e-07C11.0569 0.000235308 11.1299 0.0236132 11.191 0.0669335C11.2521 0.110254 11.2983 0.171399 11.3233 0.242L11.6227 1.15933C11.7156 1.43834 11.8722 1.69187 12.0802 1.89981C12.2881 2.10776 12.5417 2.2644 12.8207 2.35733L13.7393 2.65533L13.758 2.66C13.8285 2.6855 13.8896 2.73203 13.9328 2.79331C13.9761 2.85458 13.9996 2.92765 14 3.00267C14.0004 3.0778 13.9773 3.15117 13.9339 3.2125C13.8905 3.27383 13.829 3.32004 13.758 3.34467L12.8393 3.64267C12.5602 3.73535 12.3064 3.89182 12.0982 4.09965C11.89 4.30749 11.7332 4.56097 11.64 4.84L11.342 5.75733L11.3333 5.78C11.3044 5.84702 11.2559 5.90377 11.1942 5.94284C11.1326 5.98192 11.0606 6.00151 10.9876 5.99906C10.9146 5.99661 10.8441 5.97224 10.7852 5.92913C10.7263 5.88601 10.6817 5.82614 10.6573 5.75733L10.36 4.84C10.2676 4.56006 10.1111 4.30555 9.90305 4.09676C9.69495 3.88796 9.44097 3.73064 9.16133 3.63733L8.24267 3.33933C8.1721 3.31398 8.11101 3.2676 8.06762 3.20645C8.02423 3.1453 8.00063 3.07231 8 2.99733C7.99961 2.9222 8.02273 2.84883 8.06613 2.7875C8.10952 2.72617 8.17102 2.67996 8.242 2.65533L9.16067 2.35733C9.43258 2.26339 9.67951 2.10872 9.8827 1.90506C10.0859 1.70141 10.24 1.45413 10.3333 1.182L10.3413 1.15933L10.6393 0.242C10.6648 0.171454 10.7114 0.110427 10.7726 0.0671536C10.8339 0.02388 10.907 0.000441316 10.982 -2.38419e-07Z" fill="var(--fill-0, white)"/>
</g>
<defs>
<clipPath id="clip0_0_44">
<rect width="16" height="16" fill="white"/>
</clipPath>
</defs>
</svg>
