<svg preserveAspectRatio="none" width="100%" height="100%" overflow="visible" style="display: block;" viewBox="0 0 16 16" fill="none" xmlns="http://www.w3.org/2000/svg">
<g id="Frame">
<path id="Vector" d="M7.99967 8.66659C8.36786 8.66659 8.66634 8.36811 8.66634 7.99992C8.66634 7.63173 8.36786 7.33325 7.99967 7.33325C7.63148 7.33325 7.33301 7.63173 7.33301 7.99992C7.33301 8.36811 7.63148 8.66659 7.99967 8.66659Z" stroke="var(--stroke-0, #141414)" stroke-linecap="round" stroke-linejoin="round"/>
<path id="Vector_2" d="M7.99967 4.00008C8.36786 4.00008 8.66634 3.7016 8.66634 3.33341C8.66634 2.96522 8.36786 2.66675 7.99967 2.66675C7.63148 2.66675 7.33301 2.96522 7.33301 3.33341C7.33301 3.7016 7.63148 4.00008 7.99967 4.00008Z" stroke="var(--stroke-0, #141414)" stroke-linecap="round" stroke-linejoin="round"/>
<path id="Vector_3" d="M7.99967 13.3333C8.36786 13.3333 8.66634 13.0349 8.66634 12.6667C8.66634 12.2985 8.36786 12 7.99967 12C7.63148 12 7.33301 12.2985 7.33301 12.6667C7.33301 13.0349 7.63148 13.3333 7.99967 13.3333Z" stroke="var(--stroke-0, #141414)" stroke-linecap="round" stroke-linejoin="round"/>
</g>
</svg>
