<svg preserveAspectRatio="none" width="100%" height="100%" overflow="visible" style="display: block;" viewBox="0 0 36 36" fill="none" xmlns="http://www.w3.org/2000/svg">
<g id="famicons:timer">
<path id="Vector" d="M18 3.375C9.9225 3.375 3.375 9.9225 3.375 18C3.375 26.0775 9.9225 32.625 18 32.625C26.0775 32.625 32.625 26.0775 32.625 18C32.625 9.9225 26.0775 3.375 18 3.375ZM12.2112 11.4145L19.594 16.4067C20.0813 16.7577 20.4109 17.2865 20.5114 17.8786C20.6119 18.4707 20.4753 19.0785 20.1311 19.5707C19.7869 20.0629 19.2628 20.3997 18.6721 20.5084C18.0814 20.6171 17.4717 20.4889 16.9748 20.1516C16.7565 19.9976 16.5663 19.8074 16.4123 19.5891L11.4202 12.2063C11.3433 12.0962 11.3077 11.9625 11.3195 11.8288C11.3313 11.6951 11.3897 11.5698 11.4847 11.4748C11.5796 11.3799 11.7049 11.3214 11.8387 11.3096C11.9724 11.2978 12.106 11.3335 12.2161 11.4103L12.2112 11.4145ZM18 30.375C11.1797 30.375 5.625 24.8238 5.625 18C5.6192 16.3356 5.952 14.6875 6.60316 13.1557C7.25431 11.624 8.21021 10.2407 9.41273 9.09C9.50625 8.99677 9.6174 8.92309 9.73969 8.87325C9.86197 8.82341 9.99296 8.79842 10.125 8.79972C10.2571 8.80103 10.3875 8.82861 10.5088 8.88086C10.6301 8.9331 10.7397 9.00897 10.8314 9.10403C10.9231 9.1991 10.9949 9.31145 11.0427 9.43456C11.0904 9.55766 11.1132 9.68905 11.1097 9.82106C11.1062 9.95306 11.0765 10.083 11.0222 10.2034C10.9679 10.3238 10.8903 10.4322 10.7937 10.5223C9.78459 11.4881 8.98243 12.649 8.43597 13.9345C7.8895 15.22 7.61013 16.6032 7.61484 18C7.61484 23.7263 12.2737 28.3852 18 28.3852C23.7263 28.3852 28.3852 23.7263 28.3852 18C28.3852 12.6091 24.2564 8.16469 18.9949 7.66406V11.5312C18.9949 11.7951 18.8901 12.0482 18.7035 12.2348C18.5169 12.4213 18.2639 12.5262 18 12.5262C17.7361 12.5262 17.4831 12.4213 17.2965 12.2348C17.1099 12.0482 17.0051 11.7951 17.0051 11.5312V6.61992C17.0051 6.35605 17.1099 6.10299 17.2965 5.91641C17.4831 5.72982 17.7361 5.625 18 5.625C24.8238 5.625 30.375 11.1797 30.375 18C30.375 24.8203 24.8238 30.375 18 30.375Z" fill="var(--fill-0, #7556FD)"/>
</g>
</svg>
