<svg preserveAspectRatio="none" width="100%" height="100%" overflow="visible" style="display: block;" viewBox="0 0 42.1463 53.9061" fill="none" xmlns="http://www.w3.org/2000/svg">
<g id="Group 7">
<path id="Subtract" d="M32.3525 0.290763C35.5984 -0.189785 39.2972 1.54748 41.0039 4.33471C42.3358 6.50984 42.58 8.76508 41.3262 10.9958C40.2137 12.9741 39.0277 14.9406 37.6328 16.7234C35.194 19.8401 32.4599 22.7278 30.0459 25.8611C24.3436 33.2654 20.8691 41.6775 18.9658 50.8054C18.7499 51.8414 18.5196 52.8744 18.2822 53.906C15.9772 42.6844 9.24949 33.0767 0 26.9841C3.51414 25.5559 6.66537 23.4218 9.2793 20.7585C9.25811 20.8865 9.23588 21.0203 9.21289 21.1609C9.71111 20.6627 9.91512 20.4758 10.0996 20.2703C12.068 18.0875 13.9949 15.8647 16.0078 13.7234C19.2132 10.3115 22.4919 6.96777 25.707 3.5642C27.5275 1.63712 29.7817 0.671994 32.3525 0.290763Z" fill="var(--fill-0, #FFC296)"/>
<path id="Vector" fill-rule="evenodd" clip-rule="evenodd" d="M28.864 12.433C29.9512 13.2641 30.9843 14.1818 32.1406 14.9019C33.4051 15.6896 34.7874 15.5152 35.737 14.4244C36.8736 13.1189 37.9828 11.753 38.8676 10.2722C40.1736 8.0861 39.7822 5.78855 38.0791 4.20916C35.8135 2.1072 33.7309 1.75964 31.4184 3.28625C30.0246 4.20611 28.7005 5.26438 27.479 6.40394C25.9302 7.84956 25.9396 8.81678 27.2777 10.4298C27.8131 11.075 28.388 11.6884 28.9447 12.3161C28.918 12.3552 28.8906 12.394 28.864 12.433Z" fill="var(--fill-0, #FFE3D0)"/>
</g>
</svg>
