<svg preserveAspectRatio="none" width="100%" height="100%" overflow="visible" style="display: block;" viewBox="0 0 39 40" fill="none" xmlns="http://www.w3.org/2000/svg">
<g id="google-icon-1 1" clip-path="url(#clip0_0_46)">
<path id="Vector" d="M39 20.4432C39 18.8034 38.8672 17.6069 38.5799 16.366H19.898V23.7669H30.8639C30.6429 25.6062 29.449 28.376 26.7959 30.2372L26.7587 30.485L32.6656 35.0713L33.0748 35.1123C36.8332 31.6333 39 26.5146 39 20.4432Z" fill="var(--fill-0, #4285F4)"/>
<path id="Vector_2" d="M19.898 39.9429C25.2703 39.9429 29.7805 38.1701 33.0748 35.1123L26.7959 30.2372C25.1156 31.4117 22.8605 32.2315 19.898 32.2315C14.6361 32.2315 10.1701 28.7527 8.57815 23.9443L8.3448 23.9641L2.20272 28.7283L2.1224 28.9521C5.39447 35.4667 12.1156 39.9429 19.898 39.9429Z" fill="var(--fill-0, #34A853)"/>
<path id="Vector_3" d="M8.57815 23.9443C8.15809 22.7034 7.91498 21.3738 7.91498 20C7.91498 18.6261 8.15809 17.2966 8.55605 16.0557L8.54492 15.7915L2.32587 10.9508L2.1224 11.0478C0.773818 13.7512 1.88631e-08 16.787 1.88631e-08 20C1.88631e-08 23.213 0.773818 26.2487 2.1224 28.9521L8.57815 23.9443Z" fill="var(--fill-0, #FBBC05)"/>
<path id="Vector_4" d="M19.898 7.76833C23.6343 7.76833 26.1547 9.38591 27.5918 10.7377L33.2074 5.24229C29.7585 2.02928 25.2703 0.0571429 19.898 0.0571429C12.1156 0.0571429 5.39447 4.53317 2.1224 11.0478L8.55605 16.0557C10.1701 11.2473 14.6361 7.76833 19.898 7.76833Z" fill="var(--fill-0, #EB4335)"/>
</g>
<defs>
<clipPath id="clip0_0_46">
<rect width="39" height="40" fill="white"/>
</clipPath>
</defs>
</svg>
