<svg preserveAspectRatio="none" width="100%" height="100%" overflow="visible" style="display: block;" viewBox="0 0 42.1464 53.9058" fill="none" xmlns="http://www.w3.org/2000/svg">
<g id="Group 9">
<path id="Subtract" d="M32.3525 0.29045C35.5984 -0.190097 39.2972 1.54717 41.0039 4.3344C42.336 6.50968 42.5802 8.76559 41.3262 10.9965C40.2137 12.9747 39.0277 14.9413 37.6328 16.724C35.194 19.8407 32.4598 22.7275 30.0459 25.8608C24.3435 33.2651 20.8691 41.6771 18.9658 50.8051C18.7499 51.8411 18.5196 52.8741 18.2822 53.9057C15.9772 42.6843 9.2493 33.0773 0 26.9848C3.51423 25.5566 6.66532 23.4216 9.2793 20.7582C9.25808 20.8863 9.23592 21.0207 9.21289 21.1615C9.71119 20.6632 9.91513 20.4765 10.0996 20.2709C12.0681 18.0881 13.9948 15.8645 16.0078 13.7231C19.2132 10.3112 22.4919 6.96842 25.707 3.56486C27.5276 1.63753 29.7815 0.671702 32.3525 0.29045Z" fill="var(--fill-0, #FFC296)"/>
<path id="Vector" fill-rule="evenodd" clip-rule="evenodd" d="M28.864 12.433C29.9512 13.2641 30.9843 14.1818 32.1406 14.9019C33.4051 15.6896 34.7874 15.5152 35.737 14.4244C36.8736 13.1189 37.9828 11.753 38.8676 10.2722C40.1736 8.0861 39.7822 5.78855 38.0791 4.20916C35.8135 2.1072 33.7309 1.75964 31.4184 3.28625C30.0246 4.20611 28.7005 5.26438 27.479 6.40394C25.9302 7.84956 25.9396 8.81678 27.2777 10.4298C27.8131 11.075 28.388 11.6884 28.9447 12.3161C28.918 12.3552 28.8906 12.394 28.864 12.433Z" fill="var(--fill-0, #FFE3D0)"/>
</g>
</svg>
