<svg preserveAspectRatio="none" width="100%" height="100%" overflow="visible" style="display: block;" viewBox="0 0 48 48" fill="none" xmlns="http://www.w3.org/2000/svg">
<g id="package-remove">
<path id="Vector" d="M22 44C20.3636 44 18.8004 43.3396 15.6739 42.019C7.89128 38.7314 4 37.0876 4 34.3226C4 33.5484 4 20.129 4 14M22 44V22.7096M22 44C23.2334 44 24.24 43.6248 26 42.8744M40 14V24" stroke="var(--stroke-0, #7556FD)" stroke-width="3" stroke-linecap="round" stroke-linejoin="round"/>
<path id="Vector_2" d="M32 30L38 36M38 36L44 42M38 36L32 42M38 36L44 30" stroke="var(--stroke-0, #7556FD)" stroke-width="3" stroke-linecap="round"/>
<path id="Vector_3" d="M14.6518 19.3828L8.80944 16.5557C5.60314 15.0042 4 14.2285 4 13C4 11.7715 5.60314 10.9958 8.80944 9.4443L14.6518 6.61724C18.2577 4.87242 20.0606 4 22 4C23.9394 4 25.7424 4.8724 29.3482 6.61724L35.1906 9.4443C38.3968 10.9958 40 11.7715 40 13C40 14.2285 38.3968 15.0042 35.1906 16.5557L29.3482 19.3828C25.7424 21.1276 23.9394 22 22 22C20.0606 22 18.2577 21.1276 14.6518 19.3828Z" stroke="var(--stroke-0, #7556FD)" stroke-width="3" stroke-linecap="round" stroke-linejoin="round"/>
<path id="Vector_4" d="M10 24L14 26" stroke="var(--stroke-0, #7556FD)" stroke-width="3" stroke-linecap="round" stroke-linejoin="round"/>
<path id="Vector_5" d="M32 8L12 18" stroke="var(--stroke-0, #7556FD)" stroke-width="3" stroke-linecap="round" stroke-linejoin="round"/>
</g>
</svg>
