<svg preserveAspectRatio="none" width="100%" height="100%" overflow="visible" style="display: block;" viewBox="0 0 264 484.348" fill="none" xmlns="http://www.w3.org/2000/svg">
<path id="Rectangle 272" d="M247.324 0.754165C250.184 0.71401 252.224 0.991265 253.97 1.73366C257.123 3.07485 259.732 5.43916 261.377 8.44459C262.288 10.1082 262.765 12.1114 263.007 14.9612C263.249 17.8191 263.25 21.4551 263.25 26.3645V458.06C263.25 462.936 263.249 466.547 263.009 469.387C262.769 472.219 262.296 474.211 261.394 475.869C259.763 478.865 257.174 481.227 254.043 482.578C252.31 483.326 250.282 483.617 247.44 483.598C244.59 483.579 240.995 483.251 236.139 482.807L23.3389 463.361C19.2198 462.984 16.1728 462.705 13.7666 462.293C11.3698 461.883 9.6669 461.35 8.22461 460.495C5.61735 458.95 3.52916 456.662 2.22754 453.925C1.50761 452.411 1.13166 450.667 0.941406 448.242C0.75041 445.809 0.75 442.75 0.75 438.614V47.4221C0.75 43.3144 0.750381 40.2766 0.939453 37.8587C1.12781 35.45 1.49997 33.7152 2.21289 32.2073C3.50163 29.4815 5.56969 27.1987 8.15527 25.6477C9.58573 24.7897 11.2758 24.2482 13.6543 23.8235C16.0419 23.3972 19.0655 23.0981 23.1533 22.6936L235.953 1.63502C240.839 1.15157 244.456 0.794462 247.324 0.754165Z" fill="var(--fill-0, #242636)" stroke="var(--stroke-0, #171732)" stroke-width="1.5" stroke-linecap="round"/>
</svg>
