<svg preserveAspectRatio="none" width="100%" height="100%" overflow="visible" style="display: block;" viewBox="0 0 182.488 42.6324" fill="none" xmlns="http://www.w3.org/2000/svg">
<g id="rating">
<path id="Vector" d="M169.422 42.6324H13.066C5.84993 42.6324 0 36.7826 0 29.5664V13.066C0 5.84994 5.84975 0 13.066 0H169.422C176.638 0 182.488 5.84975 182.488 13.066V29.5664C182.488 36.7826 176.638 42.6324 169.422 42.6324Z" fill="var(--fill-0, #F9F9F9)"/>
<g id="Group">
<path id="Vector_2" d="M28.8207 10.3065L30.7566 16.2648C30.9359 16.8168 31.4503 17.1906 32.0307 17.1906H38.2956C39.5933 17.1906 40.133 18.8513 39.083 19.6142L34.0148 23.2966C33.5453 23.6377 33.3488 24.2426 33.5281 24.7944L35.464 30.7527C35.8651 31.9869 34.4523 33.0134 33.4024 32.2505L28.3341 28.5681C27.8644 28.227 27.2287 28.227 26.7591 28.5681L21.6908 32.2505C20.6409 33.0132 19.2281 31.9869 19.6292 30.7527L21.5651 24.7944C21.7444 24.2424 21.5479 23.6377 21.0784 23.2966L16.0101 19.6142C14.9602 18.8513 15.4999 17.1906 16.7976 17.1906H23.0625C23.6429 17.1906 24.1573 16.8168 24.3366 16.2648L26.2725 10.3065C26.6736 9.07228 28.4198 9.07228 28.8207 10.3065Z" fill="var(--fill-0, #7556FD)"/>
<path id="Vector_3" d="M60.6689 10.3065L62.6047 16.2648C62.784 16.8168 63.2984 17.1906 63.8789 17.1906H70.1437C71.4415 17.1906 71.9811 18.8513 70.9312 19.6142L65.8629 23.2966C65.3933 23.6377 65.1969 24.2426 65.3763 24.7944L67.3121 30.7527C67.7133 31.9869 66.3004 33.0134 65.2505 32.2505L60.1822 28.5681C59.7128 28.2269 59.0769 28.2269 58.6072 28.5681L53.539 32.2505C52.489 33.0132 51.0762 31.9869 51.4773 30.7527L53.4132 24.7944C53.5925 24.2424 53.396 23.6377 52.9266 23.2966L47.8583 19.6142C46.8084 18.8513 47.348 17.1906 48.6458 17.1906H54.9106C55.4911 17.1906 56.0054 16.8168 56.1847 16.2648L58.1206 10.3065C58.5215 9.07228 60.2679 9.07228 60.6689 10.3065Z" fill="var(--fill-0, #7556FD)"/>
<path id="Vector_4" d="M92.5187 10.3065L94.4546 16.2648C94.6339 16.8168 95.1483 17.1906 95.7287 17.1906H101.994C103.291 17.1906 103.831 18.8513 102.781 19.6142L97.7128 23.2966C97.2433 23.6377 97.0468 24.2426 97.2261 24.7944L99.162 30.7527C99.5631 31.9869 98.1503 33.0134 97.1004 32.2505L92.0321 28.5681C91.5626 28.2269 90.9268 28.2269 90.4571 28.5681L85.3888 32.2505C84.3389 33.0132 82.9261 31.9869 83.3272 30.7527L85.2631 24.7944C85.4424 24.2424 85.2459 23.6377 84.7764 23.2966L79.7081 19.6142C78.6582 18.8513 79.1979 17.1906 80.4956 17.1906H86.7605C87.3409 17.1906 87.8553 16.8168 88.0346 16.2648L89.9705 10.3065C90.3714 9.07228 92.1176 9.07228 92.5187 10.3065Z" fill="var(--fill-0, #7556FD)"/>
<path id="Vector_5" d="M124.366 10.3065L126.302 16.2648C126.481 16.8168 126.996 17.1906 127.576 17.1906H133.841C135.139 17.1906 135.678 18.8513 134.628 19.6142L129.56 23.2966C129.091 23.6377 128.894 24.2426 129.074 24.7944L131.01 30.7527C131.411 31.9869 129.998 33.0134 128.948 32.2505L123.88 28.5681C123.41 28.2269 122.774 28.2269 122.305 28.5681L117.236 32.2505C116.186 33.0132 114.774 31.9869 115.175 30.7527L117.111 24.7944C117.29 24.2424 117.093 23.6377 116.624 23.2966L111.556 19.6142C110.506 18.8513 111.045 17.1906 112.343 17.1906H118.608C119.189 17.1906 119.703 16.8168 119.882 16.2648L121.818 10.3065C122.219 9.07228 123.965 9.07228 124.366 10.3065Z" fill="var(--fill-0, #7556FD)"/>
<path id="Vector_6" d="M156.215 10.3065L158.151 16.2648C158.33 16.8168 158.845 17.1906 159.425 17.1906H165.69C166.988 17.1906 167.527 18.8513 166.477 19.6142L161.409 23.2966C160.94 23.6377 160.743 24.2426 160.922 24.7944L162.858 30.7527C163.259 31.9869 161.847 33.0134 160.797 32.2505L155.728 28.5681C155.259 28.2269 154.623 28.2269 154.153 28.5681L149.085 32.2505C148.035 33.0132 146.623 31.9869 147.024 30.7527L148.959 24.7944C149.139 24.2424 148.942 23.6377 148.473 23.2966L143.404 19.6142C142.355 18.8513 142.894 17.1906 144.192 17.1906H150.457C151.037 17.1906 151.552 16.8168 151.731 16.2648L153.667 10.3065C154.068 9.07228 155.814 9.07228 156.215 10.3065Z" fill="var(--fill-0, #CECECE)"/>
</g>
</g>
</svg>
