<svg preserveAspectRatio="none" width="100%" height="100%" overflow="visible" style="display: block;" viewBox="0 0 28 28" fill="none" xmlns="http://www.w3.org/2000/svg">
<g id="solar:code-file-bold">
<path id="Vector" d="M22.5766 8.88606L17.9566 4.72922C16.6418 3.54506 15.9849 2.95239 15.1764 2.64322L15.1659 5.83289C15.1659 8.58272 15.1659 9.95822 16.0199 10.8122C16.8739 11.6662 18.2494 11.6662 20.9993 11.6662H25.1759C24.7536 10.8449 23.9953 10.1636 22.5766 8.88606Z" fill="var(--fill-0, white)"/>
<path id="Vector_2" fill-rule="evenodd" clip-rule="evenodd" d="M11.6681 25.6664H16.3348C20.7343 25.6664 22.9346 25.6664 24.3008 24.299C25.667 22.9317 25.6681 20.7325 25.6681 16.333V15.8232C25.6681 14.8047 25.6681 14.0394 25.618 13.4164H20.8906C19.6108 13.4164 18.4791 13.4164 17.568 13.2939C16.5798 13.1609 15.5916 12.8564 14.7855 12.0502C13.9781 11.2429 13.6736 10.2547 13.5406 9.26652C13.4181 8.35536 13.4181 7.22486 13.4181 5.94386L13.4298 2.63752C13.4298 2.54108 13.4376 2.44619 13.4531 2.35286C12.976 2.33302 12.4101 2.33302 11.7031 2.33302C7.2803 2.33302 5.0683 2.33302 3.70213 3.70036C2.3348 5.06652 2.3348 7.26686 2.3348 11.6664V16.333C2.3348 20.7325 2.3348 22.9329 3.70213 24.299C5.06946 25.6652 7.26863 25.6664 11.6681 25.6664ZM12.7998 18.048C12.9639 17.8842 13.1863 17.7921 13.4181 17.7921C13.65 17.7921 13.8724 17.8842 14.0365 18.048L15.2031 19.2147C15.367 19.3788 15.459 19.6011 15.459 19.833C15.459 20.0649 15.367 20.2873 15.2031 20.4514L14.0365 21.618C13.9564 21.704 13.8598 21.7729 13.7524 21.8208C13.6451 21.8686 13.5292 21.8943 13.4117 21.8964C13.2943 21.8985 13.1776 21.8768 13.0686 21.8328C12.9596 21.7888 12.8607 21.7233 12.7776 21.6402C12.6945 21.5571 12.629 21.4582 12.585 21.3492C12.541 21.2403 12.5194 21.1236 12.5214 21.0061C12.5235 20.8886 12.5492 20.7727 12.5971 20.6654C12.6449 20.5581 12.7138 20.4615 12.7998 20.3814L13.3481 19.833L12.7998 19.2847C12.6359 19.1206 12.5439 18.8982 12.5439 18.6664C12.5439 18.4345 12.6359 18.2121 12.7998 18.048ZM12.4871 16.6399C12.5316 16.5315 12.5538 16.4152 12.5525 16.2981C12.5511 16.1809 12.5263 16.0652 12.4794 15.9579C12.4326 15.8505 12.3646 15.7536 12.2796 15.673C12.1946 15.5924 12.0942 15.5297 11.9845 15.4886C11.8748 15.4475 11.7579 15.4288 11.6409 15.4337C11.5238 15.4386 11.4089 15.467 11.3031 15.5171C11.1972 15.5673 11.1024 15.6382 11.0244 15.7256C10.9465 15.8131 10.8869 15.9153 10.8491 16.0262L9.09913 20.6929C9.05469 20.8013 9.03247 20.9175 9.03379 21.0346C9.03511 21.1518 9.05995 21.2675 9.10682 21.3749C9.1537 21.4822 9.22166 21.5791 9.30668 21.6597C9.3917 21.7403 9.49204 21.8031 9.60176 21.8442C9.71147 21.8853 9.82832 21.9039 9.94538 21.899C10.0624 21.8941 10.1773 21.8657 10.2832 21.8156C10.3891 21.7654 10.4838 21.6946 10.5618 21.6071C10.6398 21.5197 10.6994 21.4174 10.7371 21.3065L12.4871 16.6399ZM8.78646 15.7147C8.95032 15.8788 9.04236 16.1011 9.04236 16.333C9.04236 16.5649 8.95032 16.7873 8.78646 16.9514L8.23813 17.4997L8.78646 18.048C8.87243 18.1281 8.94138 18.2247 8.98921 18.3321C9.03703 18.4394 9.06275 18.5553 9.06482 18.6727C9.06689 18.7902 9.04528 18.9069 9.00127 19.0159C8.95727 19.1248 8.89176 19.2238 8.80867 19.3069C8.72559 19.39 8.62661 19.4555 8.51766 19.4995C8.40871 19.5435 8.29201 19.5651 8.17452 19.563C8.05703 19.561 7.94117 19.5353 7.83384 19.4874C7.7265 19.4396 7.6299 19.3707 7.5498 19.2847L6.38313 18.118C6.21927 17.954 6.12723 17.7316 6.12723 17.4997C6.12723 17.2678 6.21927 17.0454 6.38313 16.8814L7.5498 15.7147C7.71386 15.5508 7.93625 15.4588 8.16813 15.4588C8.40001 15.4588 8.6224 15.5508 8.78646 15.7147Z" fill="var(--fill-0, white)"/>
</g>
</svg>
