<svg preserveAspectRatio="none" width="100%" height="100%" overflow="visible" style="display: block;" viewBox="0 0 39 40" fill="none" xmlns="http://www.w3.org/2000/svg">
<g id="Group">
<path id="Vector" fill-rule="evenodd" clip-rule="evenodd" d="M14.2992 0C12.1433 0.00163099 10.3985 1.79246 10.4001 3.99919C10.3985 6.20591 12.1449 7.99674 14.3007 7.99837H18.2014V4.00082C18.203 1.79409 16.4566 0.00326198 14.2992 0C14.3007 0 14.3007 0 14.2992 0ZM14.2992 10.6667H3.90064C1.74477 10.6683 -0.00158904 12.4591 4.35456e-06 14.6659C-0.00318244 16.8726 1.74318 18.6634 3.89905 18.6667H14.2992C16.455 18.665 18.2014 16.8742 18.1998 14.6675C18.2014 12.4591 16.455 10.6683 14.2992 10.6667Z" fill="var(--fill-0, #36C5F0)"/>
<path id="Vector_2" fill-rule="evenodd" clip-rule="evenodd" d="M39 14.6659C39.0016 12.4591 37.2552 10.6683 35.0994 10.6667C32.9435 10.6683 31.1971 12.4591 31.1987 14.6659V18.6667H35.0994C37.2552 18.665 39.0016 16.8742 39 14.6659ZM28.5999 14.6659V3.99919C28.6015 1.79409 26.8567 0.00326198 24.7009 0C22.545 0.00163099 20.7986 1.79246 20.8002 3.99919V14.6659C20.797 16.8726 22.5434 18.6634 24.6993 18.6667C26.8551 18.665 28.6015 16.8742 28.5999 14.6659Z" fill="var(--fill-0, #2EB67D)"/>
<path id="Vector_3" fill-rule="evenodd" clip-rule="evenodd" d="M24.6993 40C26.8551 39.9984 28.6015 38.2075 28.5999 36.0008C28.6015 33.7941 26.8551 32.0033 24.6993 32.0016H20.7986V36.0008C20.797 38.2059 22.5434 39.9967 24.6993 40ZM24.6993 29.3317H35.0994C37.2552 29.3301 39.0016 27.5392 39 25.3325C39.0032 23.1258 37.2568 21.335 35.101 21.3317H24.7009C22.545 21.3333 20.7986 23.1242 20.8002 25.3309C20.7986 27.5392 22.5434 29.3301 24.6993 29.3317Z" fill="var(--fill-0, #ECB22E)"/>
<path id="Vector_4" fill-rule="evenodd" clip-rule="evenodd" d="M6.58767e-06 25.3325C-0.00158681 27.5392 1.74478 29.3301 3.90064 29.3317C6.05651 29.3301 7.80287 27.5392 7.80128 25.3325V21.3333H3.90064C1.74478 21.335 -0.00158681 23.1258 6.58767e-06 25.3325ZM10.4001 25.3325V35.9992C10.3969 38.2059 12.1433 39.9967 14.2992 40C16.455 39.9984 18.2014 38.2075 18.1998 36.0008V25.3358C18.203 23.129 16.4566 21.3382 14.3007 21.335C12.1433 21.335 10.3985 23.1258 10.4001 25.3325Z" fill="var(--fill-0, #E01E5A)"/>
</g>
</svg>
