<svg preserveAspectRatio="none" width="100%" height="100%" overflow="visible" style="display: block;" viewBox="0 0 16 16" fill="none" xmlns="http://www.w3.org/2000/svg">
<g id="si:lock-fill" opacity="0.48">
<path id="Vector" fill-rule="evenodd" clip-rule="evenodd" d="M4.66634 4.66671C4.66634 2.82537 6.15834 1.33337 7.99967 1.33337C9.84101 1.33337 11.333 2.82537 11.333 4.66671V6.66671H11.5997C12.1863 6.66671 12.6663 7.14671 12.6663 7.73337V12.4C12.6663 13.28 11.9463 14 11.0663 14H4.93301C4.05301 14 3.33301 13.28 3.33301 12.4V7.73337C3.33301 7.14671 3.81301 6.66671 4.39967 6.66671H4.66634V4.66671ZM9.99967 4.66671V6.66671H5.99967V4.66671C5.99967 3.56137 6.89434 2.66671 7.99967 2.66671C9.10501 2.66671 9.99967 3.56137 9.99967 4.66671ZM7.99967 8.16671C7.73457 8.16643 7.47727 8.25645 7.27016 8.42195C7.06306 8.58744 6.91849 8.81854 6.86027 9.07718C6.80205 9.33581 6.83366 9.60657 6.94988 9.84484C7.06611 10.0831 7.26002 10.2747 7.49967 10.388V12C7.49967 12.1326 7.55235 12.2598 7.64612 12.3536C7.73989 12.4474 7.86707 12.5 7.99967 12.5C8.13228 12.5 8.25946 12.4474 8.35323 12.3536C8.447 12.2598 8.49967 12.1326 8.49967 12V10.388C8.73933 10.2747 8.93324 10.0831 9.04946 9.84484C9.16569 9.60657 9.19729 9.33581 9.13908 9.07718C9.08086 8.81854 8.93629 8.58744 8.72919 8.42195C8.52208 8.25645 8.26478 8.16643 7.99967 8.16671Z" fill="var(--fill-0, #686868)"/>
</g>
</svg>
