<svg preserveAspectRatio="none" width="100%" height="100%" overflow="visible" style="display: block;" viewBox="0 0 48 48" fill="none" xmlns="http://www.w3.org/2000/svg">
<g id="setting-done-04">
<path id="Vector" d="M30 35C30 35 31 35 32 37C32 37 35.1764 32 38 31" stroke="var(--stroke-0, #7556FD)" stroke-width="3" stroke-linecap="round" stroke-linejoin="round"/>
<path id="Vector_2" d="M44 34C44 39.5228 39.5228 44 34 44C28.4772 44 24 39.5228 24 34C24 28.4772 28.4772 24 34 24C39.5228 24 44 28.4772 44 34Z" stroke="var(--stroke-0, #7556FD)" stroke-width="3" stroke-linecap="round"/>
<path id="Vector_3" d="M30.0574 18.4894C28.8456 16.4029 26.5866 15 24 15C20.134 15 17 18.134 17 22C17 24.1314 17.9525 26.0402 19.4551 27.324" stroke="var(--stroke-0, #7556FD)" stroke-width="3" stroke-linecap="round"/>
<path id="Vector_4" d="M43.968 21.48C43.92 20.4 43.1938 19.0836 41.5812 16.304L37.7338 9.67244C36.1276 6.90394 35.3246 5.51968 34.0038 4.75984C32.6832 4 31.0804 4 27.8746 4H20.1254C16.9196 4 15.3168 4 13.9961 4.75984C12.6755 5.51968 11.8724 6.90392 10.2662 9.67242L6.41884 16.304C4.80628 19.0836 4 20.4732 4 22C4 23.5268 4.80628 24.9164 6.41884 27.696L10.2662 34.3276C11.8724 37.096 12.6755 38.4804 13.9961 39.2402C15.24 39.84 15.9942 40 19.2 40" stroke="var(--stroke-0, #7556FD)" stroke-width="3" stroke-linecap="round"/>
</g>
</svg>
