<svg preserveAspectRatio="none" width="100%" height="100%" overflow="visible" style="display: block;" viewBox="0 0 125 34" fill="none" xmlns="http://www.w3.org/2000/svg">
<g id="@taxky.">
<path d="M16.8336 33.7733C7.0519 33.7733 0 26.7089 0 16.9622C0 7.29111 6.90025 0.188889 16.8336 0.188889C26.5773 0.188889 32.9847 6.95111 32.9847 15.3C32.9847 21.0044 29.9895 24.4422 25.5916 24.48C23.0135 24.5556 21.1936 23.3467 20.5112 21.0422C19.6392 23.1578 17.971 24.3667 15.6582 24.3667C12.1323 24.3667 9.63001 21.4578 9.63001 17.0378C9.63001 12.6178 12.1323 9.70889 15.6582 9.70889C17.5539 9.70889 19.0325 10.6156 19.9804 12.1267V10.3133H23.8096V18.3222C23.8096 20.0222 24.4163 20.7778 25.6295 20.7778C27.1081 20.7778 28.6626 19.6822 28.6626 15.7156C28.6626 8.68889 24.075 4.11778 16.8336 4.11778C9.21297 4.11778 4.32213 9.25556 4.32213 16.9622C4.32213 24.7444 9.3267 29.8067 16.9473 29.8067C19.1842 29.8067 21.2694 29.3533 22.786 28.5222L24.6058 32.0733C22.4448 33.1689 19.715 33.7733 16.8336 33.7733ZM16.7198 20.74C18.4638 20.74 19.6771 19.2667 19.6771 17.0378C19.6771 14.8089 18.4638 13.3356 16.7198 13.3356C15.0516 13.3356 13.9521 14.8089 13.9521 17.0378C13.9521 19.2667 15.0516 20.74 16.7198 20.74Z" fill="#7556FD"/>
<path d="M44.2059 26.4444C39.6563 26.4444 37.154 23.9511 37.154 19.7578V11.4089H33.6659V7.32889H35.9028C36.9265 7.32889 37.4573 6.8 37.4573 5.81778V1.51111H41.8932V7.32889H45.912V11.4089H42.0069V21.2311C42.0069 22.0244 42.386 22.3644 43.1822 22.3644H46.4049V26.4444H44.2059Z" fill="var(--fill-0, white)"/>
<path d="M53.1641 27.0489C48.9557 27.0489 46.4155 24.5556 46.4155 21.08C46.4155 17.7178 48.7282 15.5644 53.1262 15.2244L57.6 14.9222C58.5099 14.8467 59.0407 14.4311 59.0407 13.3733C59.0407 11.4467 57.5621 10.5778 55.4389 10.5778C53.0125 10.5778 51.7613 11.7111 51.4959 13.4867H46.8326C47.2875 9.21778 50.2069 6.72444 55.4768 6.72444C60.7089 6.72444 63.8178 9.21778 63.8178 14.3933V22.3644H65.3722V26.4444H63.4386C61.1638 26.4444 59.9506 25.2733 59.799 23.0822C58.5857 25.84 56.0834 27.0489 53.1641 27.0489ZM54.1499 23.1956C57.0313 23.1956 59.0786 21.2311 59.0786 18.6622V17.9067L54.1499 18.2844C52.0646 18.4356 51.2684 19.4556 51.2684 20.8156C51.2684 22.3267 52.33 23.1956 54.1499 23.1956Z" fill="var(--fill-0, white)"/>
<path d="M70.7168 17.6422C71.1718 16.9622 71.2476 16.32 70.7168 15.4889L65.1815 7.32889H70.641L74.5082 13.0711H74.6598L78.4891 7.32889H83.9486L78.4133 15.4889C77.8825 16.2822 77.9583 16.9622 78.4133 17.6422L84.4415 26.4444H78.7545L74.6598 20.3244H74.5082L70.3756 26.4444H64.7265L70.7168 17.6422Z" fill="var(--fill-0, white)"/>
<path d="M94.1956 18.6244C93.7028 17.7556 93.0203 17.68 92.3379 18.36L89.4564 21.3444V26.4444H84.8689V0H89.4564V15.8289L97.4562 7.36667H103.067L97.6837 13.0333C97.0391 13.7133 96.9633 14.3556 97.3804 15.1111L103.636 26.4444H98.3661L94.1956 18.6244Z" fill="var(--fill-0, white)"/>
<path d="M109.399 27.5022C109.778 26.4822 109.778 25.84 109.399 24.9333L102.347 7.32889H107.465L112.204 20.4H112.356L116.64 7.32889H121.645L112.09 34H107.086L109.399 27.5022Z" fill="var(--fill-0, white)"/>
<path d="M122.043 27.0111C120.299 27.0111 119.048 25.84 119.048 24.2533C119.048 22.6667 120.299 21.42 122.043 21.42C123.749 21.42 125 22.6667 125 24.2533C125 25.84 123.749 27.0111 122.043 27.0111Z" fill="#FF1616"/>
</g>
</svg>
