<svg preserveAspectRatio="none" width="100%" height="100%" overflow="visible" style="display: block;" viewBox="0 0 48 48" fill="none" xmlns="http://www.w3.org/2000/svg">
<g id="virtual-reality-vr-01">
<path id="Vector" d="M34 18H14C10.2615 18 8.3923 18 7 18.8842C6.08788 19.4635 5.33046 20.2966 4.80384 21.3C4 22.8316 4 24.8876 4 29C4 33.1124 4 35.1684 4.80384 36.7C5.33046 37.7034 6.08788 38.5364 7 39.1158C8.3923 40 10.2615 40 14 40C15.2266 40 15.84 40 16.4206 39.9058C17.9699 39.6544 19.418 38.9082 20.5854 37.76C21.023 37.3296 21.4156 36.8114 22.201 35.7748L22.8692 34.8926C23.2668 34.3678 23.4656 34.1054 23.7086 34.0028C23.9104 33.9174 24.1318 33.9064 24.3398 33.9712C24.5902 34.0492 24.8098 34.2908 25.249 34.7738L27.1716 36.8888C27.6486 37.4134 27.887 37.6758 28.1352 37.9074C29.4112 39.0996 30.9952 39.8212 32.6638 39.971C32.9882 40 33.3254 40 34 40C37.7384 40 39.6076 40 41 39.1158C41.9122 38.5364 42.6696 37.7034 43.1962 36.7C44 35.1684 44 33.1124 44 29C44 24.8876 44 22.8316 43.1962 21.3C42.6696 20.2966 41.9122 19.4635 41 18.8842C39.6076 18 37.7384 18 34 18Z" stroke="var(--stroke-0, #7556FD)" stroke-width="3" stroke-linecap="round"/>
<path id="Vector_2" d="M32 26H36" stroke="var(--stroke-0, #7556FD)" stroke-width="3" stroke-linecap="round"/>
<path id="Vector_3" d="M44 30V24.9044C44 22.9446 44 21.9646 43.8454 21.0172C43.7688 20.5486 43.6644 20.0876 43.5328 19.6378C43.2666 18.7282 42.854 17.8878 42.029 16.2072C40.3752 12.8385 39.5484 11.1542 38.343 10.0228C37.7512 9.4673 37.0986 9.01576 36.4044 8.6813C34.9904 8 33.3832 8 30.169 8H17.831C14.6167 8 13.0096 8 11.5956 8.6813C10.9014 9.01576 10.2489 9.4673 9.65706 10.0228C8.45158 11.1542 7.62472 12.8385 5.971 16.2072C5.14596 17.8879 4.73342 18.7282 4.46728 19.6378C4.33562 20.0876 4.23114 20.5486 4.15466 21.0172C4 21.9646 4 22.9446 4 24.9044V30" stroke="var(--stroke-0, #7556FD)" stroke-width="3" stroke-linecap="round"/>
</g>
</svg>
