<svg preserveAspectRatio="none" width="100%" height="100%" overflow="visible" style="display: block;" viewBox="0 0 216 216" fill="none" xmlns="http://www.w3.org/2000/svg">
<g id="Vector" opacity="0.4">
<path d="M0 81.6C0 72.6392 0 68.1587 1.7439 64.7362C3.27787 61.7256 5.72556 59.2779 8.73615 57.7439C12.1587 56 16.6392 56 25.6 56H70.4C79.3608 56 83.8413 56 87.2638 57.7439C90.2744 59.2779 92.7221 61.7256 94.2561 64.7362C96 68.1587 96 72.6392 96 81.6V126.4C96 135.361 96 139.841 94.2561 143.264C92.7221 146.274 90.2744 148.722 87.2638 150.256C83.8413 152 79.3608 152 70.4 152H25.6C16.6392 152 12.1587 152 8.73615 150.256C5.72556 148.722 3.27787 146.274 1.7439 143.264C0 139.841 0 135.361 0 126.4V81.6Z" fill="#7556FD" fill-opacity="0.12"/>
<path d="M104 25.6C104 16.6392 104 12.1587 105.744 8.73615C107.278 5.72556 109.726 3.27787 112.736 1.7439C116.159 0 120.639 0 129.6 0H174.4C183.361 0 187.841 0 191.264 1.7439C194.274 3.27787 196.722 5.72556 198.256 8.73615C200 12.1587 200 16.6392 200 25.6V70.4C200 79.3608 200 83.8413 198.256 87.2638C196.722 90.2744 194.274 92.7221 191.264 94.2561C187.841 96 183.361 96 174.4 96H129.6C120.639 96 116.159 96 112.736 94.2561C109.726 92.7221 107.278 90.2744 105.744 87.2638C104 83.8413 104 79.3608 104 70.4V25.6Z" fill="#FAFAFA"/>
<path d="M104 129.6C104 120.639 104 116.159 105.744 112.736C107.278 109.726 109.726 107.278 112.736 105.744C116.159 104 120.639 104 129.6 104H190.4C199.361 104 203.841 104 207.264 105.744C210.274 107.278 212.722 109.726 214.256 112.736C216 116.159 216 120.639 216 129.6V190.4C216 199.361 216 203.841 214.256 207.264C212.722 210.274 210.274 212.722 207.264 214.256C203.841 216 199.361 216 190.4 216H129.6C120.639 216 116.159 216 112.736 214.256C109.726 212.722 107.278 210.274 105.744 207.264C104 203.841 104 199.361 104 190.4V129.6Z" fill="var(--fill-0, #F97316)" fill-opacity="0.12"/>
</g>
</svg>
