<svg preserveAspectRatio="none" width="100%" height="100%" overflow="visible" style="display: block;" viewBox="0 0 248.024 245.724" fill="none" xmlns="http://www.w3.org/2000/svg">
<g id="woman">
<path id="Vector" d="M110.069 94.4246L131.461 98.492L134.318 95.3111L146.172 102.13L140.858 111.89L109.38 104.799L110.069 94.4246Z" fill="var(--fill-0, #FFCBBB)"/>
<path id="Vector_2" d="M62.3379 152.967L61.3258 117.459C61.002 106.102 71.8696 97.7462 82.7617 100.976C104.322 106.645 124.105 111.717 135.641 116.508L132.673 134.612L62.3379 152.967Z" fill="var(--fill-0, #141414)"/>
<path id="Vector_3" d="M44.5997 233.488C44.2488 234.655 43.8508 235.776 43.3989 236.844C42.4335 239.126 39.7645 240.154 37.4947 239.16L15.6188 229.577L19.8265 219.972L27.508 217.78C27.5153 217.778 27.5229 217.776 27.5303 217.774C28.7943 217.41 29.8409 216.52 30.4489 215.353L34.5966 207.397L55.1944 214.541L44.5997 233.488Z" fill="var(--fill-0, #FFCBBB)"/>
<path id="Vector_4" d="M133.484 130.197L70.5291 137.686C61.3725 138.775 53.3509 144.331 49.1118 152.52L23.8194 201.377C31.6026 212.282 42.6823 218.438 59.9569 215.457L80.8329 166.109C112.816 165.822 147.776 167.692 157.992 151.629L133.484 130.197Z" fill="var(--fill-0, #141414)"/>
<path id="Vector_5" d="M133.482 130.197L70.5282 137.685C61.3718 138.775 53.3502 144.33 49.1111 152.519" stroke="var(--stroke-0, #EBEBEB)" stroke-width="3" stroke-miterlimit="10" stroke-linecap="round"/>
<path id="Vector_6" d="M170.334 23.766C178.731 29.7402 181.162 37.2593 176.453 46.6266C174.285 50.8417 174.423 53.2971 174.866 55.5193L141.58 48.5056C133.113 44.3812 132.684 38.4365 139.533 28.9459C140.906 21.6801 158.114 11.5815 170.334 23.766Z" fill="var(--fill-0, #282626)"/>
<path id="Vector_7" d="M156.27 15.7029C153.133 16.2542 148.688 13.1312 151.178 8.46532C152.397 6.18287 155.081 5.07147 157.522 5.92986C157.539 5.93614 157.557 5.94241 157.575 5.94888C157.859 3.77964 157.555 1.43809 161.124 0.234354C162.168 -0.117644 163.322 -0.0829211 164.309 0.405186C165.508 0.997451 166.296 2.14301 166.422 4.17614C167.41 2.57239 168.571 1.25526 170.518 1.23033C172.006 1.21131 173.376 1.98493 174.264 3.17869C175.407 4.71411 175.474 6.36847 174.488 8.13917C175.473 8.07158 176.439 8.13141 177.275 9.08657C178.111 10.0428 178.37 11.3903 177.986 12.6012C177.561 13.941 176.542 14.4515 175.044 14.2921C176.679 14.6936 178.406 16.2979 177.849 18.529C177.615 19.4691 177.005 20.2656 176.218 20.8303C174.362 22.162 172.846 21.8023 171.394 21.123L156.27 15.7029Z" fill="var(--fill-0, #282626)"/>
<path id="Vector_8" d="M154.928 18.238C154.98 17.7475 154.078 16.6581 156.27 15.7033C160.757 13.9797 168.005 15.909 171.394 21.1234C171.759 21.7314 171.865 23.4423 170.334 23.7655C166.038 19.4946 160.916 17.614 154.928 18.238Z" fill="var(--fill-0, #FF4500)"/>
<path id="Vector_9" d="M140.851 52.1204C140.556 51.1088 141.115 50.1115 141.991 49.7625C141.088 47.2666 139.534 40.8933 139.686 39.3235C141.643 41.7761 153.428 49.546 167.369 38.738C166.303 35.8201 170.563 33.2364 173.362 37.2841C174.736 39.4405 175.014 43.5068 170.074 44.7726C170.54 47.761 171.316 50.4041 173.214 53.319C172.197 54.1107 163.045 59.6951 161.878 60.2412C153.801 64.0217 148.007 60.6466 143.984 53.8036L143.984 53.8056C142.335 54.2987 141.312 53.6998 140.851 52.1204Z" fill="var(--fill-0, #FFCBBB)"/>
<g id="Group">
<path id="Vector_10" d="M177.626 58.1826C175.227 56.1794 174.358 54.9656 173.214 53.3192L160.934 59.0482C162.209 60.7597 163.701 62.8468 164.499 65.3135C161.33 69.0814 161.112 73.4004 164.499 74.4001C168.109 74.8171 172.71 69.9041 177.626 58.1826Z" fill="var(--fill-0, #FFCBBB)"/>
<g id="Clip path group">
<mask id="mask0_0_44" style="mask-type:luminance" maskUnits="userSpaceOnUse" x="160" y="53" width="18" height="22">
<g id="XMLID_00000034067044252418891590000002003385587782072252_">
<path id="Vector_11" d="M177.626 58.1826C175.227 56.1794 174.358 54.9656 173.214 53.3192L160.934 59.0482C162.209 60.7597 163.701 62.8468 164.499 65.3135C161.33 69.0814 161.112 73.4004 164.499 74.4001C168.109 74.8171 172.71 69.9041 177.626 58.1826Z" fill="var(--fill-0, white)"/>
</g>
</mask>
<g mask="url(#mask0_0_44)">
<path id="Vector_12" d="M161.878 60.2405C161.878 60.2405 161.161 64.1723 164.047 64.1145C166.934 64.0567 170.641 54.5188 170.641 54.5188C168.015 56.6954 165.3 58.7897 161.878 60.2405Z" fill="var(--fill-0, #282626)"/>
</g>
</g>
</g>
<path id="Vector_13" d="M146.85 47.7987C147.46 47.4411 147.645 46.6242 147.264 45.9742C146.882 45.3242 146.079 45.0873 145.469 45.445C144.86 45.8027 144.675 46.6195 145.056 47.2695C145.437 47.9195 146.241 48.1564 146.85 47.7987Z" fill="var(--fill-0, #282626)"/>
<path id="Vector_14" d="M153.065 54.5192C153.72 56.0999 151.125 58.0153 149.803 56.4324" stroke="var(--stroke-0, #282626)" stroke-width="3" stroke-miterlimit="10" stroke-linecap="round"/>
<path id="Vector_15" d="M176.976 57.6276C172.933 66.8143 168.81 74.2804 164.319 73.896C161.526 72.8997 161.971 69.7872 164.499 65.3132C163.145 65.7951 161.846 66.3975 160.593 67.0949C158.689 68.1535 156.935 69.4612 155.332 70.9348L153.699 72.4359C151.001 94.9277 144.564 110.248 134.04 117.733C127.365 125.19 130.129 135.95 139.723 143.041C146.186 148 152.026 151.093 157.992 151.628C177.477 137.792 202.956 114.341 176.976 57.6276Z" fill="var(--fill-0, #7556FD)"/>
<path id="Vector_16" d="M153.699 72.4361C145.595 80.2458 138.596 88.1607 131.068 97.6576C133.725 102.006 137.031 105.858 143.388 107.378C150.363 99.9429 154.875 89.5759 153.699 72.4361Z" fill="var(--fill-0, #7556FD)"/>
<path id="Vector_17" d="M152.482 80.6972C149.291 98.7119 143.22 111.205 134.04 117.734" stroke="var(--stroke-0, #282626)" stroke-width="3" stroke-miterlimit="10" stroke-linecap="round"/>
<path id="Vector_18" d="M196.198 106.714C196.549 119.301 194.188 128.914 188.136 134.482C184.106 138.189 177.971 138.422 173.603 135.119C166.574 129.803 157.675 120.177 148.015 112.744C139.614 110.739 134.744 104.415 130.755 97.0146L145.929 96.7017L155.785 102.438L176.313 113.024L176.521 110.833L196.198 106.714Z" fill="var(--fill-0, #FFCBBB)"/>
<path id="Vector_19" d="M176.977 57.6276C195.475 63.11 199.552 84.9815 201.917 108.799C194.364 112.478 180.815 113.822 173.584 111.806C174.22 99.8798 174.145 88.18 172.959 76.8334L176.977 57.6276Z" fill="var(--fill-0, #7556FD)"/>
<path id="Vector_20" d="M201.917 108.8C194.364 112.478 180.815 113.823 173.584 111.807C174.22 99.8803 174.145 88.1805 172.959 76.8337" stroke="var(--stroke-0, #282626)" stroke-width="3" stroke-miterlimit="10" stroke-linecap="round"/>
<path id="Vector_21" d="M131.211 97.0146L123.324 101.83C122.431 102.375 122.154 103.544 122.707 104.432C123.25 105.303 124.39 105.579 125.271 105.052L133.131 100.352L131.211 97.0146Z" fill="var(--fill-0, #FFCBBB)"/>
<path id="Vector_22" d="M132.675 100.352L124.211 105.41C123.301 105.954 123.04 107.153 123.642 108.025C124.19 108.82 125.262 109.053 126.091 108.558L134.732 103.4L132.675 100.352Z" fill="var(--fill-0, #FFCBBB)"/>
<path id="Vector_23" d="M137.031 106.179L129.702 110.564C128.905 111.04 127.877 110.828 127.335 110.074C126.724 109.225 126.971 108.034 127.869 107.497L134.732 103.401L137.031 106.179Z" fill="var(--fill-0, #FFCBBB)"/>
<path id="Vector_24" d="M137.03 106.179L140.225 109.077L134.49 112.433C133.659 112.919 132.6 112.749 131.964 112.027C131.135 111.087 131.357 109.627 132.428 108.976L137.03 106.179Z" fill="var(--fill-0, #FFCBBB)"/>
<g id="Group_2">
<path id="Vector_25" d="M131.017 97.1325L123.324 101.83C122.431 102.376 122.154 103.544 122.707 104.432C123.25 105.303 124.39 105.579 125.271 105.052L133.131 100.352" stroke="var(--stroke-0, #282626)" stroke-width="3" stroke-miterlimit="10" stroke-linecap="round"/>
<path id="Vector_26" d="M124.21 105.41C123.301 105.954 123.04 107.153 123.641 108.025C124.19 108.82 125.261 109.053 126.091 108.558L134.731 103.4" stroke="var(--stroke-0, #282626)" stroke-width="3" stroke-miterlimit="10" stroke-linecap="round"/>
<path id="Vector_27" d="M137.031 106.179L129.702 110.564C128.906 111.04 127.877 110.827 127.335 110.074C126.724 109.224 126.971 108.034 127.869 107.497L134.732 103.401" stroke="var(--stroke-0, #282626)" stroke-width="3" stroke-miterlimit="10" stroke-linecap="round"/>
<path id="Vector_28" d="M140.226 109.078L134.49 112.433C133.659 112.919 132.6 112.749 131.964 112.027C131.135 111.088 131.357 109.627 132.428 108.976" stroke="var(--stroke-0, #282626)" stroke-width="3" stroke-miterlimit="10" stroke-linecap="round"/>
</g>
<path id="Vector_29" d="M63.5726 64.4479L80.7284 98.0918L119.212 107.109L100.023 66.3036L63.5726 64.4479Z" fill="var(--fill-0, #687989)"/>
<path id="Vector_30" d="M80.8324 101.167V98.0923L119.212 107.109V110.818L80.8324 101.167Z" fill="var(--fill-0, #5C6B77)"/>
<path id="Vector_31" d="M119.213 110.818L155.855 118.912V115.202L119.213 107.109V110.818Z" fill="var(--fill-0, #687989)"/>
<path id="Vector_32" d="M110.678 245.719H147.441C190.989 245.949 218.645 238.707 234.532 211.818C239.387 203.599 242.488 194.467 243.84 185.017C251.385 132.278 251.756 85.7455 218.743 84.3602C208.628 84.4431 200.032 90.5353 192.743 100.694C192.088 101.607 191.41 102.505 190.735 103.404C185.183 110.808 177.816 127.262 170.281 138.158C169.331 139.333 168.371 140.452 167.404 141.516C156.836 153.141 141.606 159.353 125.905 158.834C104.593 158.129 83.206 160.12 68.3347 174.104C45.3917 194.878 49.614 233.76 82.9879 243.251C90.0277 245.285 99.6903 245.253 110.678 245.719Z" fill="var(--fill-0, #282626)"/>
<path id="Vector_33" d="M43.9199 242.045L1.52142 223.471L0 226.943L42.3985 245.518L43.9199 242.045Z" fill="var(--fill-0, #FF4500)"/>
<path id="Vector_34" d="M20.865 231.925L1.52791 223.454L2.28585 221.724C4.20158 217.351 9.29941 215.359 13.6722 217.274L19.8282 219.971C22.9086 222.614 23.2185 227.28 20.865 231.925Z" fill="var(--fill-0, #FF4500)"/>
</g>
</svg>
