<svg preserveAspectRatio="none" width="100%" height="100%" overflow="visible" style="display: block;" viewBox="0 0 40 40" fill="none" xmlns="http://www.w3.org/2000/svg">
<g id="zap">
<path id="Vector" d="M14.3796 21.1227H13.6146C11.1418 21.1227 9.90531 21.1227 9.37828 20.3073C8.85125 19.4922 9.35341 18.3563 10.3577 16.0847L13.3771 9.25538C14.2903 7.19 14.7469 6.1573 15.6326 5.57865C16.5184 5 17.6425 5 19.891 5H23.3733C26.1047 5 27.4703 5 27.9853 5.89225C28.5005 6.7845 27.823 7.97647 26.4678 10.3604L24.6813 13.5031C24.0077 14.6882 23.6708 15.2808 23.6755 15.7659C23.6817 16.3963 24.0168 16.977 24.5583 17.295C24.975 17.5398 25.6538 17.5398 27.0117 17.5398C28.7282 17.5398 29.5865 17.5398 30.0335 17.837C30.6142 18.223 30.9182 18.9137 30.8117 19.6053C30.7297 20.1377 30.1523 20.776 28.9977 22.0528L19.7725 32.2538C17.9605 34.2575 17.0545 35.2593 16.4461 34.9423C15.8377 34.6252 16.1299 33.3037 16.7142 30.6603L17.8588 25.4827C18.3037 23.47 18.5262 22.4637 17.9912 21.7932C17.4562 21.1227 16.4306 21.1227 14.3796 21.1227Z" stroke="var(--stroke-0, white)" stroke-width="2.5" stroke-linejoin="round"/>
</g>
</svg>
