<svg width="40" height="40" viewBox="0 0 40 40" fill="none" xmlns="http://www.w3.org/2000/svg">
<g clip-path="url(#clip0_1191_52)">
<path d="M20 40C31.0457 40 40 31.0457 40 20C40 8.9543 31.0457 0 20 0C8.9543 0 0 8.9543 0 20C0 31.0457 8.9543 40 20 40Z" fill="#FF4500"/>
<path d="M33.3398 20C33.3438 20.274 33.3098 20.5475 33.2378 20.812C33.1658 21.0765 33.0568 21.33 32.9138 21.564C32.7713 21.798 32.5963 22.011 32.3943 22.1965C32.1923 22.382 31.9653 22.538 31.7198 22.66C31.7253 22.733 31.7298 22.8065 31.7323 22.88C31.7383 23.0266 31.7383 23.1734 31.7323 23.32C31.7298 23.3935 31.7253 23.467 31.7198 23.54C31.7198 28.02 26.4998 31.66 20.0598 31.66C13.6198 31.66 8.39981 28.02 8.39981 23.54C8.39431 23.467 8.38981 23.3935 8.38731 23.32C8.38129 23.1734 8.38129 23.0266 8.38731 22.88C8.38981 22.8065 8.39431 22.733 8.39981 22.66C8.01519 22.4832 7.67357 22.225 7.39861 21.9031C7.12364 21.5813 6.92189 21.2035 6.80731 20.796C6.69293 20.3883 6.66856 19.9606 6.7359 19.5426C6.80324 19.1246 6.96068 18.7262 7.19731 18.375C7.43373 18.0239 7.7437 17.7285 8.10573 17.5092C8.46775 17.2899 8.87316 17.152 9.29381 17.105C9.71452 17.0579 10.1405 17.1027 10.5421 17.2366C10.9437 17.3704 11.3115 17.5899 11.6198 17.88C12.1922 17.492 12.792 17.146 13.4143 16.8445C14.0368 16.5435 14.6803 16.2875 15.3398 16.0795C15.9993 15.8715 16.6733 15.712 17.3558 15.6015C18.0383 15.491 18.7283 15.4305 19.4198 15.42L20.8998 8.48001C20.9163 8.39951 20.9488 8.32351 20.9953 8.25551C21.0413 8.18801 21.1008 8.13001 21.1693 8.08551C21.2383 8.04101 21.3153 8.01051 21.3963 7.99551C21.4768 7.98101 21.5598 7.98251 21.6398 8.00001L26.5398 8.98001C27.0343 8.13051 28.0723 7.76651 28.9888 8.12051C29.9053 8.47451 30.4293 9.44201 30.2243 10.403C30.0198 11.364 29.1468 12.034 28.1658 11.9835C27.1843 11.933 26.3848 11.177 26.2798 10.2L21.9998 9.30001L20.6998 15.54C21.3828 15.5545 22.0643 15.6185 22.7383 15.731C24.088 15.956 25.3982 16.3747 26.6283 16.974C27.2427 17.273 27.8347 17.6159 28.3998 18C28.8061 17.6099 29.3167 17.3458 29.8698 17.2395C30.423 17.1329 30.9951 17.1886 31.5173 17.4C32.0395 17.6113 32.4895 17.9692 32.8128 18.4305C33.1363 18.8919 33.3193 19.437 33.3398 20ZM13.4918 22.7655C13.5928 23.008 13.7398 23.2285 13.9258 23.414C14.1113 23.6 14.3318 23.747 14.5743 23.848C14.817 23.9484 15.0771 24 15.3398 24C16.1488 24 16.8778 23.5125 17.1878 22.7655C17.4973 22.018 17.3258 21.158 16.7538 20.586C16.1818 20.014 15.3218 19.8425 14.5743 20.152C13.8273 20.462 13.3398 21.191 13.3398 22C13.3398 22.2625 13.3913 22.5225 13.4918 22.7655ZM24.9468 27.5665C25.0493 27.4665 25.1078 27.33 25.1098 27.187C25.1118 27.0435 25.0563 26.9055 24.9563 26.803C24.8563 26.7005 24.7198 26.642 24.5768 26.64C24.4333 26.638 24.2953 26.6935 24.1798 26.78C23.8791 26.9957 23.5606 27.1856 23.2278 27.3475C22.895 27.5095 22.5491 27.6432 22.1938 27.747C21.8388 27.8505 21.4753 27.924 21.1078 27.9665C20.7398 28.009 20.3693 28.02 19.9998 28C19.6308 28.0165 19.2608 28.0015 18.8943 27.9555C18.5277 27.91 18.1657 27.833 17.8123 27.7255C17.4583 27.6185 17.1148 27.4815 16.7843 27.3165C16.4538 27.1515 16.1378 26.9585 15.8398 26.74C15.7363 26.655 15.6048 26.6115 15.4708 26.618C15.3368 26.6245 15.2103 26.681 15.1153 26.7755C15.0208 26.8705 14.9643 26.997 14.9578 27.131C14.9513 27.265 14.9948 27.3965 15.0798 27.5C15.4313 27.765 15.8048 27.999 16.1963 28.2C16.5878 28.401 16.9963 28.5675 17.4163 28.6985C17.8363 28.8295 18.2668 28.924 18.7033 28.9815C19.1398 29.0385 19.5803 29.058 20.0198 29.04C20.4593 29.058 20.8998 29.0385 21.3363 28.9815C22.2106 28.8665 23.0586 28.6022 23.8433 28.2C24.2348 27.999 24.6083 27.765 24.9598 27.5L24.9468 27.5665ZM24.5798 24.16C24.8508 24.163 25.1198 24.1105 25.3703 24.0065C25.6208 23.902 25.8473 23.748 26.0363 23.5535C26.2253 23.359 26.3723 23.128 26.4693 22.8745C26.5664 22.6213 26.6108 22.351 26.5998 22.08C26.5998 21.271 26.1123 20.542 25.3653 20.232C24.6178 19.9225 23.7578 20.094 23.1858 20.666C22.6138 21.238 22.4423 22.098 22.7518 22.8455C23.0618 23.5925 23.7908 24.08 24.5998 24.08L24.5798 24.16Z" fill="white"/>
</g>
<defs>
<clipPath id="clip0_1191_52">
<rect width="40" height="40" fill="white"/>
</clipPath>
</defs>
</svg>
