<svg width="40" height="40" viewBox="0 0 40 40" fill="none" xmlns="http://www.w3.org/2000/svg">
<g clip-path="url(#clip0_1191_74)">
<path d="M33.9597 0.00158691H6.04031C2.70425 0.00158691 0 2.70583 0 6.04172V33.9582C0 37.2941 2.70425 39.9982 6.04031 39.9982H33.9597C37.2958 39.9982 40 37.2939 40 33.9582V6.04189C40 2.70601 37.2956 0.00158691 33.9597 0.00158691Z" fill="#FF0000"/>
<path opacity="0.554" d="M29.4319 1.71149H10.568C5.57463 1.71149 1.55469 5.76412 1.55469 10.798V29.202C1.71638 33.1314 2.33815 30.6472 3.52143 26.2957C4.89687 21.2383 9.37587 16.8182 14.8308 13.5055C18.9943 10.977 23.6544 9.36246 32.1375 9.20876C36.9482 9.12179 36.5237 2.96506 29.4319 1.71149Z" fill="url(#paint0_linear_1191_74)"/>
<path d="M8.99291 7.26923C11.5111 5.01586 14.4637 3.43038 18.9795 4.2501V18.7655C18.7859 19.4622 18.2054 19.6171 17.7022 19.23L8.99291 7.26923ZM27.0156 12.5526C29.0387 13.8162 31.3028 16.3419 31.9443 20.0615L22.2199 21.6359C21.659 21.4226 21.2373 21.0706 21.2911 20.2424L27.0156 12.5526ZM22.5104 25.0034C21.883 25.1444 21.5513 25.5214 21.6975 26.2808L26.616 34.607C28.8031 33.6035 30.9862 31.2611 31.9741 27.7904L22.5104 25.0034ZM17.459 26.1646C18.1095 26.0803 18.7172 26.0677 18.9105 26.7452L19.2009 36.0351C16.0054 36.2715 13.3407 35.4465 11.5368 32.8997L17.459 26.1646ZM16.1816 21.8681C16.6463 22.4265 16.907 23.0141 16.2979 23.726L7.35637 26.8614C6.30228 23.9509 6.39879 21.2175 7.35637 18.6168L16.1816 21.8681Z" fill="white"/>
</g>
<defs>
<linearGradient id="paint0_linear_1191_74" x1="10.1806" y1="-5.88536" x2="15.3853" y2="9.28572" gradientUnits="userSpaceOnUse">
<stop stop-color="white"/>
<stop offset="1" stop-color="white" stop-opacity="0"/>
</linearGradient>
<clipPath id="clip0_1191_74">
<rect width="40" height="40" fill="white"/>
</clipPath>
</defs>
</svg>
